  0
SECTION
  2
HEADER
  9
$ANGBASE
  50
0.0
  9
$ANGDIR
  70
1
  9
$MEASUREMENT
  70
1
  0
ENDSEC
  0
SECTION
  2
TABLES
  0
TABLE
  2
LTYPE
  70
4
  0
LTYPE
  5
40F
  2
CONTINUOUS
  70
0
  3
Solid line
  72
65
  73
0
  40
0.0
  0
LTYPE
  5
410
  2
DASHDOT
 70
0
  3
Dash Dot ____ _ ____ _
 72
65
 73
4
 40
2.0
 49
1.25
 49
-0.25
 49
0.25
 49
-0.25
  0
LTYPE
  5
411
  2
DASHED
 70
0
  3
Dashed __ __ __ __ __
 72
65
 73
2
 40
0.75
 49
0.5
 49
-0.25
  0
LTYPE
  5
43B
  2
DOTTED
 70
0
  3
Dotted .  .  .  .
 72
65
 73
2
 40
0.2
 49
0.0
 49
-0.2
  0
ENDTAB
  0
TABLE
  2
STYLE
  70
4
  0
STYLE
  2
KICAD
  70
0
  40
0
  41
1
  42
1
  50
0
  71
0
  3
isocp.shx
  0
STYLE
  2
KICADB
  70
0
  40
0
  41
1
  42
1
  50
0
  71
0
  3
isocp.shx
  0
STYLE
  2
KICADI
  70
0
  40
0
  41
1
  42
1
  50
15
  71
0
  3
isocp.shx
  0
STYLE
  2
KICADBI
  70
0
  40
0
  41
1
  42
1
  50
15
  71
0
  3
isocp.shx
  0
ENDTAB
  0
TABLE
  2
LAYER
  70
1
  0
LAYER
  2
BLACK
  70
0
  62
7
  6
CONTINUOUS
  0
ENDTAB
  0
ENDSEC
  0
SECTION
  2
ENTITIES
0
LINE
8
BLACK
6
CONTINUOUS
10
14.2817
20
-76.0944
11
13.4109
21
-76.0944
0
LINE
8
BLACK
6
CONTINUOUS
10
13.8463
20
-76.0944
11
13.8463
21
-74.5704
0
LINE
8
BLACK
6
CONTINUOUS
10
13.8463
20
-74.5704
11
13.7011
21
-74.7881
0
LINE
8
BLACK
6
CONTINUOUS
10
13.7011
20
-74.7881
11
13.556
21
-74.9333
0
LINE
8
BLACK
6
CONTINUOUS
10
13.556
20
-74.9333
11
13.4109
21
-75.0059
0
LINE
8
BLACK
6
CONTINUOUS
10
14.9349
20
-75.9493
11
15.0074
21
-76.0219
0
LINE
8
BLACK
6
CONTINUOUS
10
15.0074
20
-76.0219
11
14.9349
21
-76.0944
0
LINE
8
BLACK
6
CONTINUOUS
10
14.9349
20
-76.0944
11
14.8623
21
-76.0219
0
LINE
8
BLACK
6
CONTINUOUS
10
14.8623
20
-76.0219
11
14.9349
21
-75.9493
0
LINE
8
BLACK
6
CONTINUOUS
10
14.9349
20
-75.9493
11
14.9349
21
-76.0944
0
LINE
8
BLACK
6
CONTINUOUS
10
16.3863
20
-74.5704
11
15.6606
21
-74.5704
0
LINE
8
BLACK
6
CONTINUOUS
10
15.6606
20
-74.5704
11
15.588
21
-75.2961
0
LINE
8
BLACK
6
CONTINUOUS
10
15.588
20
-75.2961
11
15.6606
21
-75.2236
0
LINE
8
BLACK
6
CONTINUOUS
10
15.6606
20
-75.2236
11
15.8057
21
-75.151
0
LINE
8
BLACK
6
CONTINUOUS
10
15.8057
20
-75.151
11
16.1686
21
-75.151
0
LINE
8
BLACK
6
CONTINUOUS
10
16.1686
20
-75.151
11
16.3137
21
-75.2236
0
LINE
8
BLACK
6
CONTINUOUS
10
16.3137
20
-75.2236
11
16.3863
21
-75.2961
0
LINE
8
BLACK
6
CONTINUOUS
10
16.3863
20
-75.2961
11
16.4589
21
-75.4413
0
LINE
8
BLACK
6
CONTINUOUS
10
16.4589
20
-75.4413
11
16.4589
21
-75.8041
0
LINE
8
BLACK
6
CONTINUOUS
10
16.4589
20
-75.8041
11
16.3863
21
-75.9493
0
LINE
8
BLACK
6
CONTINUOUS
10
16.3863
20
-75.9493
11
16.3137
21
-76.0219
0
LINE
8
BLACK
6
CONTINUOUS
10
16.3137
20
-76.0219
11
16.1686
21
-76.0944
0
LINE
8
BLACK
6
CONTINUOUS
10
16.1686
20
-76.0944
11
15.8057
21
-76.0944
0
LINE
8
BLACK
6
CONTINUOUS
10
15.8057
20
-76.0944
11
15.6606
21
-76.0219
0
LINE
8
BLACK
6
CONTINUOUS
10
15.6606
20
-76.0219
11
15.588
21
-75.9493
0
LINE
8
BLACK
6
CONTINUOUS
10
17.4023
20
-74.5704
11
17.5474
21
-74.5704
0
LINE
8
BLACK
6
CONTINUOUS
10
17.5474
20
-74.5704
11
17.6926
21
-74.643
0
LINE
8
BLACK
6
CONTINUOUS
10
17.6926
20
-74.643
11
17.7651
21
-74.7156
0
LINE
8
BLACK
6
CONTINUOUS
10
17.7651
20
-74.7156
11
17.8377
21
-74.8607
0
LINE
8
BLACK
6
CONTINUOUS
10
17.8377
20
-74.8607
11
17.9103
21
-75.151
0
LINE
8
BLACK
6
CONTINUOUS
10
17.9103
20
-75.151
11
17.9103
21
-75.5139
0
LINE
8
BLACK
6
CONTINUOUS
10
17.9103
20
-75.5139
11
17.8377
21
-75.8041
0
LINE
8
BLACK
6
CONTINUOUS
10
17.8377
20
-75.8041
11
17.7651
21
-75.9493
0
LINE
8
BLACK
6
CONTINUOUS
10
17.7651
20
-75.9493
11
17.6926
21
-76.0219
0
LINE
8
BLACK
6
CONTINUOUS
10
17.6926
20
-76.0219
11
17.5474
21
-76.0944
0
LINE
8
BLACK
6
CONTINUOUS
10
17.5474
20
-76.0944
11
17.4023
21
-76.0944
0
LINE
8
BLACK
6
CONTINUOUS
10
17.4023
20
-76.0944
11
17.2571
21
-76.0219
0
LINE
8
BLACK
6
CONTINUOUS
10
17.2571
20
-76.0219
11
17.1846
21
-75.9493
0
LINE
8
BLACK
6
CONTINUOUS
10
17.1846
20
-75.9493
11
17.112
21
-75.8041
0
LINE
8
BLACK
6
CONTINUOUS
10
17.112
20
-75.8041
11
17.0394
21
-75.5139
0
LINE
8
BLACK
6
CONTINUOUS
10
17.0394
20
-75.5139
11
17.0394
21
-75.151
0
LINE
8
BLACK
6
CONTINUOUS
10
17.0394
20
-75.151
11
17.112
21
-74.8607
0
LINE
8
BLACK
6
CONTINUOUS
10
17.112
20
-74.8607
11
17.1846
21
-74.7156
0
LINE
8
BLACK
6
CONTINUOUS
10
17.1846
20
-74.7156
11
17.2571
21
-74.643
0
LINE
8
BLACK
6
CONTINUOUS
10
17.2571
20
-74.643
11
17.4023
21
-74.5704
0
LINE
8
BLACK
6
CONTINUOUS
10
19.2166
20
-75.0784
11
19.2166
21
-76.0944
0
LINE
8
BLACK
6
CONTINUOUS
10
18.5634
20
-75.0784
11
18.5634
21
-75.8767
0
LINE
8
BLACK
6
CONTINUOUS
10
18.5634
20
-75.8767
11
18.636
21
-76.0219
0
LINE
8
BLACK
6
CONTINUOUS
10
18.636
20
-76.0219
11
18.7811
21
-76.0944
0
LINE
8
BLACK
6
CONTINUOUS
10
18.7811
20
-76.0944
11
18.9989
21
-76.0944
0
LINE
8
BLACK
6
CONTINUOUS
10
18.9989
20
-76.0944
11
19.144
21
-76.0219
0
LINE
8
BLACK
6
CONTINUOUS
10
19.144
20
-76.0219
11
19.2166
21
-75.9493
0
LINE
8
BLACK
6
CONTINUOUS
10
186.093
20
-84.6317
11
185.242
21
-84.8128
0
LINE
8
BLACK
6
CONTINUOUS
10
185.667
20
-84.7223
11
185.351
21
-83.2316
0
LINE
8
BLACK
6
CONTINUOUS
10
185.351
20
-83.2316
11
185.254
21
-83.4747
0
LINE
8
BLACK
6
CONTINUOUS
10
185.254
20
-83.4747
11
185.142
21
-83.6469
0
LINE
8
BLACK
6
CONTINUOUS
10
185.142
20
-83.6469
11
185.015
21
-83.748
0
LINE
8
BLACK
6
CONTINUOUS
10
186.702
20
-84.354
11
186.788
21
-84.4099
0
LINE
8
BLACK
6
CONTINUOUS
10
186.788
20
-84.4099
11
186.732
21
-84.4959
0
LINE
8
BLACK
6
CONTINUOUS
10
186.732
20
-84.4959
11
186.646
21
-84.44
0
LINE
8
BLACK
6
CONTINUOUS
10
186.646
20
-84.44
11
186.702
21
-84.354
0
LINE
8
BLACK
6
CONTINUOUS
10
186.702
20
-84.354
11
186.732
21
-84.4959
0
LINE
8
BLACK
6
CONTINUOUS
10
187.084
20
-83.0114
11
187.14
21
-82.9253
0
LINE
8
BLACK
6
CONTINUOUS
10
187.14
20
-82.9253
11
187.267
21
-82.8242
0
LINE
8
BLACK
6
CONTINUOUS
10
187.267
20
-82.8242
11
187.622
21
-82.7487
0
LINE
8
BLACK
6
CONTINUOUS
10
187.622
20
-82.7487
11
187.779
21
-82.7896
0
LINE
8
BLACK
6
CONTINUOUS
10
187.779
20
-82.7896
11
187.865
21
-82.8454
0
LINE
8
BLACK
6
CONTINUOUS
10
187.865
20
-82.8454
11
187.966
21
-82.9723
0
LINE
8
BLACK
6
CONTINUOUS
10
187.966
20
-82.9723
11
187.997
21
-83.1143
0
LINE
8
BLACK
6
CONTINUOUS
10
187.997
20
-83.1143
11
187.971
21
-83.3423
0
LINE
8
BLACK
6
CONTINUOUS
10
187.971
20
-83.3423
11
187.3
21
-84.3752
0
LINE
8
BLACK
6
CONTINUOUS
10
187.3
20
-84.3752
11
188.223
21
-84.1791
0
LINE
8
BLACK
6
CONTINUOUS
10
189.255
20
-82.4017
11
188.545
21
-82.5526
0
LINE
8
BLACK
6
CONTINUOUS
10
188.545
20
-82.5526
11
188.625
21
-83.2775
0
LINE
8
BLACK
6
CONTINUOUS
10
188.625
20
-83.2775
11
188.681
21
-83.1915
0
LINE
8
BLACK
6
CONTINUOUS
10
188.681
20
-83.1915
11
188.808
21
-83.0903
0
LINE
8
BLACK
6
CONTINUOUS
10
188.808
20
-83.0903
11
189.163
21
-83.0149
0
LINE
8
BLACK
6
CONTINUOUS
10
189.163
20
-83.0149
11
189.32
21
-83.0557
0
LINE
8
BLACK
6
CONTINUOUS
10
189.32
20
-83.0557
11
189.406
21
-83.1116
0
LINE
8
BLACK
6
CONTINUOUS
10
189.406
20
-83.1116
11
189.507
21
-83.2384
0
LINE
8
BLACK
6
CONTINUOUS
10
189.507
20
-83.2384
11
189.582
21
-83.5934
0
LINE
8
BLACK
6
CONTINUOUS
10
189.582
20
-83.5934
11
189.541
21
-83.7504
0
LINE
8
BLACK
6
CONTINUOUS
10
189.541
20
-83.7504
11
189.486
21
-83.8365
0
LINE
8
BLACK
6
CONTINUOUS
10
189.486
20
-83.8365
11
189.359
21
-83.9377
0
LINE
8
BLACK
6
CONTINUOUS
10
189.359
20
-83.9377
11
189.004
21
-84.0131
0
LINE
8
BLACK
6
CONTINUOUS
10
189.004
20
-84.0131
11
188.847
21
-83.9723
0
LINE
8
BLACK
6
CONTINUOUS
10
188.847
20
-83.9723
11
188.761
21
-83.9164
0
LINE
8
BLACK
6
CONTINUOUS
10
190.709
20
-82.6119
11
190.92
21
-83.6057
0
LINE
8
BLACK
6
CONTINUOUS
10
190.07
20
-82.7477
11
190.236
21
-83.5286
0
LINE
8
BLACK
6
CONTINUOUS
10
190.236
20
-83.5286
11
190.337
21
-83.6554
0
LINE
8
BLACK
6
CONTINUOUS
10
190.337
20
-83.6554
11
190.494
21
-83.6963
0
LINE
8
BLACK
6
CONTINUOUS
10
190.494
20
-83.6963
11
190.707
21
-83.651
0
LINE
8
BLACK
6
CONTINUOUS
10
190.707
20
-83.651
11
190.834
21
-83.5498
0
LINE
8
BLACK
6
CONTINUOUS
10
190.834
20
-83.5498
11
190.89
21
-83.4638
0
LINE
8
BLACK
6
CONTINUOUS
10
182.454
20
-67.1168
11
182.51
21
-67.0307
0
LINE
8
BLACK
6
CONTINUOUS
10
182.51
20
-67.0307
11
182.637
21
-66.9296
0
LINE
8
BLACK
6
CONTINUOUS
10
182.637
20
-66.9296
11
182.992
21
-66.8541
0
LINE
8
BLACK
6
CONTINUOUS
10
182.992
20
-66.8541
11
183.149
21
-66.895
0
LINE
8
BLACK
6
CONTINUOUS
10
183.149
20
-66.895
11
183.235
21
-66.9509
0
LINE
8
BLACK
6
CONTINUOUS
10
183.235
20
-66.9509
11
183.336
21
-67.0777
0
LINE
8
BLACK
6
CONTINUOUS
10
183.336
20
-67.0777
11
183.366
21
-67.2197
0
LINE
8
BLACK
6
CONTINUOUS
10
183.366
20
-67.2197
11
183.34
21
-67.4477
0
LINE
8
BLACK
6
CONTINUOUS
10
183.34
20
-67.4477
11
182.67
21
-68.4806
0
LINE
8
BLACK
6
CONTINUOUS
10
182.67
20
-68.4806
11
183.592
21
-68.2845
0
LINE
8
BLACK
6
CONTINUOUS
10
184.201
20
-68.0067
11
184.287
21
-68.0626
0
LINE
8
BLACK
6
CONTINUOUS
10
184.287
20
-68.0626
11
184.231
21
-68.1487
0
LINE
8
BLACK
6
CONTINUOUS
10
184.231
20
-68.1487
11
184.145
21
-68.0928
0
LINE
8
BLACK
6
CONTINUOUS
10
184.145
20
-68.0928
11
184.201
21
-68.0067
0
LINE
8
BLACK
6
CONTINUOUS
10
184.201
20
-68.0067
11
184.231
21
-68.1487
0
LINE
8
BLACK
6
CONTINUOUS
10
184.482
20
-66.5373
11
185.476
21
-66.326
0
LINE
8
BLACK
6
CONTINUOUS
10
185.476
20
-66.326
11
185.154
21
-67.9525
0
LINE
8
BLACK
6
CONTINUOUS
10
186.754
20
-66.0545
11
186.044
21
-66.2053
0
LINE
8
BLACK
6
CONTINUOUS
10
186.044
20
-66.2053
11
186.124
21
-66.9303
0
LINE
8
BLACK
6
CONTINUOUS
10
186.124
20
-66.9303
11
186.18
21
-66.8442
0
LINE
8
BLACK
6
CONTINUOUS
10
186.18
20
-66.8442
11
186.307
21
-66.743
0
LINE
8
BLACK
6
CONTINUOUS
10
186.307
20
-66.743
11
186.662
21
-66.6676
0
LINE
8
BLACK
6
CONTINUOUS
10
186.662
20
-66.6676
11
186.819
21
-66.7084
0
LINE
8
BLACK
6
CONTINUOUS
10
186.819
20
-66.7084
11
186.905
21
-66.7643
0
LINE
8
BLACK
6
CONTINUOUS
10
186.905
20
-66.7643
11
187.006
21
-66.8912
0
LINE
8
BLACK
6
CONTINUOUS
10
187.006
20
-66.8912
11
187.081
21
-67.2461
0
LINE
8
BLACK
6
CONTINUOUS
10
187.081
20
-67.2461
11
187.041
21
-67.4032
0
LINE
8
BLACK
6
CONTINUOUS
10
187.041
20
-67.4032
11
186.985
21
-67.4893
0
LINE
8
BLACK
6
CONTINUOUS
10
186.985
20
-67.4893
11
186.858
21
-67.5904
0
LINE
8
BLACK
6
CONTINUOUS
10
186.858
20
-67.5904
11
186.503
21
-67.6659
0
LINE
8
BLACK
6
CONTINUOUS
10
186.503
20
-67.6659
11
186.346
21
-67.6251
0
LINE
8
BLACK
6
CONTINUOUS
10
186.346
20
-67.6251
11
186.26
21
-67.5692
0
LINE
8
BLACK
6
CONTINUOUS
10
188.208
20
-66.2647
11
188.419
21
-67.2585
0
LINE
8
BLACK
6
CONTINUOUS
10
187.569
20
-66.4005
11
187.735
21
-67.1813
0
LINE
8
BLACK
6
CONTINUOUS
10
187.735
20
-67.1813
11
187.836
21
-67.3082
0
LINE
8
BLACK
6
CONTINUOUS
10
187.836
20
-67.3082
11
187.994
21
-67.349
0
LINE
8
BLACK
6
CONTINUOUS
10
187.994
20
-67.349
11
188.206
21
-67.3037
0
LINE
8
BLACK
6
CONTINUOUS
10
188.206
20
-67.3037
11
188.333
21
-67.2026
0
LINE
8
BLACK
6
CONTINUOUS
10
188.333
20
-67.2026
11
188.389
21
-67.1165
0
LINE
8
BLACK
6
CONTINUOUS
10
10.313
20
-57.0444
11
9.44211
21
-57.0444
0
LINE
8
BLACK
6
CONTINUOUS
10
9.87753
20
-57.0444
11
9.87753
21
-55.5204
0
LINE
8
BLACK
6
CONTINUOUS
10
9.87753
20
-55.5204
11
9.73239
21
-55.7381
0
LINE
8
BLACK
6
CONTINUOUS
10
9.73239
20
-55.7381
11
9.58725
21
-55.8833
0
LINE
8
BLACK
6
CONTINUOUS
10
9.58725
20
-55.8833
11
9.44211
21
-55.9559
0
LINE
8
BLACK
6
CONTINUOUS
10
10.9661
20
-56.8993
11
11.0387
21
-56.9719
0
LINE
8
BLACK
6
CONTINUOUS
10
11.0387
20
-56.9719
11
10.9661
21
-57.0444
0
LINE
8
BLACK
6
CONTINUOUS
10
10.9661
20
-57.0444
11
10.8935
21
-56.9719
0
LINE
8
BLACK
6
CONTINUOUS
10
10.8935
20
-56.9719
11
10.9661
21
-56.8993
0
LINE
8
BLACK
6
CONTINUOUS
10
10.9661
20
-56.8993
11
10.9661
21
-57.0444
0
LINE
8
BLACK
6
CONTINUOUS
10
11.5467
20
-55.5204
11
12.5627
21
-55.5204
0
LINE
8
BLACK
6
CONTINUOUS
10
12.5627
20
-55.5204
11
11.9095
21
-57.0444
0
LINE
8
BLACK
6
CONTINUOUS
10
13.869
20
-55.5204
11
13.1433
21
-55.5204
0
LINE
8
BLACK
6
CONTINUOUS
10
13.1433
20
-55.5204
11
13.0707
21
-56.2461
0
LINE
8
BLACK
6
CONTINUOUS
10
13.0707
20
-56.2461
11
13.1433
21
-56.1736
0
LINE
8
BLACK
6
CONTINUOUS
10
13.1433
20
-56.1736
11
13.2884
21
-56.101
0
LINE
8
BLACK
6
CONTINUOUS
10
13.2884
20
-56.101
11
13.6512
21
-56.101
0
LINE
8
BLACK
6
CONTINUOUS
10
13.6512
20
-56.101
11
13.7964
21
-56.1736
0
LINE
8
BLACK
6
CONTINUOUS
10
13.7964
20
-56.1736
11
13.869
21
-56.2461
0
LINE
8
BLACK
6
CONTINUOUS
10
13.869
20
-56.2461
11
13.9415
21
-56.3913
0
LINE
8
BLACK
6
CONTINUOUS
10
13.9415
20
-56.3913
11
13.9415
21
-56.7541
0
LINE
8
BLACK
6
CONTINUOUS
10
13.9415
20
-56.7541
11
13.869
21
-56.8993
0
LINE
8
BLACK
6
CONTINUOUS
10
13.869
20
-56.8993
11
13.7964
21
-56.9719
0
LINE
8
BLACK
6
CONTINUOUS
10
13.7964
20
-56.9719
11
13.6512
21
-57.0444
0
LINE
8
BLACK
6
CONTINUOUS
10
13.6512
20
-57.0444
11
13.2884
21
-57.0444
0
LINE
8
BLACK
6
CONTINUOUS
10
13.2884
20
-57.0444
11
13.1433
21
-56.9719
0
LINE
8
BLACK
6
CONTINUOUS
10
13.1433
20
-56.9719
11
13.0707
21
-56.8993
0
LINE
8
BLACK
6
CONTINUOUS
10
15.2478
20
-56.0284
11
15.2478
21
-57.0444
0
LINE
8
BLACK
6
CONTINUOUS
10
14.5947
20
-56.0284
11
14.5947
21
-56.8267
0
LINE
8
BLACK
6
CONTINUOUS
10
14.5947
20
-56.8267
11
14.6672
21
-56.9719
0
LINE
8
BLACK
6
CONTINUOUS
10
14.6672
20
-56.9719
11
14.8124
21
-57.0444
0
LINE
8
BLACK
6
CONTINUOUS
10
14.8124
20
-57.0444
11
15.0301
21
-57.0444
0
LINE
8
BLACK
6
CONTINUOUS
10
15.0301
20
-57.0444
11
15.1753
21
-56.9719
0
LINE
8
BLACK
6
CONTINUOUS
10
15.1753
20
-56.9719
11
15.2478
21
-56.8993
0
LINE
8
BLACK
6
CONTINUOUS
10
245.549
20
-76.0944
11
244.678
21
-76.0944
0
LINE
8
BLACK
6
CONTINUOUS
10
245.114
20
-76.0944
11
245.114
21
-74.5704
0
LINE
8
BLACK
6
CONTINUOUS
10
245.114
20
-74.5704
11
244.969
21
-74.7881
0
LINE
8
BLACK
6
CONTINUOUS
10
244.969
20
-74.7881
11
244.823
21
-74.9333
0
LINE
8
BLACK
6
CONTINUOUS
10
244.823
20
-74.9333
11
244.678
21
-75.0059
0
LINE
8
BLACK
6
CONTINUOUS
10
246.202
20
-75.9493
11
246.275
21
-76.0219
0
LINE
8
BLACK
6
CONTINUOUS
10
246.275
20
-76.0219
11
246.202
21
-76.0944
0
LINE
8
BLACK
6
CONTINUOUS
10
246.202
20
-76.0944
11
246.13
21
-76.0219
0
LINE
8
BLACK
6
CONTINUOUS
10
246.13
20
-76.0219
11
246.202
21
-75.9493
0
LINE
8
BLACK
6
CONTINUOUS
10
246.202
20
-75.9493
11
246.202
21
-76.0944
0
LINE
8
BLACK
6
CONTINUOUS
10
247.654
20
-74.5704
11
246.928
21
-74.5704
0
LINE
8
BLACK
6
CONTINUOUS
10
246.928
20
-74.5704
11
246.855
21
-75.2961
0
LINE
8
BLACK
6
CONTINUOUS
10
246.855
20
-75.2961
11
246.928
21
-75.2236
0
LINE
8
BLACK
6
CONTINUOUS
10
246.928
20
-75.2236
11
247.073
21
-75.151
0
LINE
8
BLACK
6
CONTINUOUS
10
247.073
20
-75.151
11
247.436
21
-75.151
0
LINE
8
BLACK
6
CONTINUOUS
10
247.436
20
-75.151
11
247.581
21
-75.2236
0
LINE
8
BLACK
6
CONTINUOUS
10
247.581
20
-75.2236
11
247.654
21
-75.2961
0
LINE
8
BLACK
6
CONTINUOUS
10
247.654
20
-75.2961
11
247.726
21
-75.4413
0
LINE
8
BLACK
6
CONTINUOUS
10
247.726
20
-75.4413
11
247.726
21
-75.8041
0
LINE
8
BLACK
6
CONTINUOUS
10
247.726
20
-75.8041
11
247.654
21
-75.9493
0
LINE
8
BLACK
6
CONTINUOUS
10
247.654
20
-75.9493
11
247.581
21
-76.0219
0
LINE
8
BLACK
6
CONTINUOUS
10
247.581
20
-76.0219
11
247.436
21
-76.0944
0
LINE
8
BLACK
6
CONTINUOUS
10
247.436
20
-76.0944
11
247.073
21
-76.0944
0
LINE
8
BLACK
6
CONTINUOUS
10
247.073
20
-76.0944
11
246.928
21
-76.0219
0
LINE
8
BLACK
6
CONTINUOUS
10
246.928
20
-76.0219
11
246.855
21
-75.9493
0
LINE
8
BLACK
6
CONTINUOUS
10
248.67
20
-74.5704
11
248.815
21
-74.5704
0
LINE
8
BLACK
6
CONTINUOUS
10
248.815
20
-74.5704
11
248.96
21
-74.643
0
LINE
8
BLACK
6
CONTINUOUS
10
248.96
20
-74.643
11
249.033
21
-74.7156
0
LINE
8
BLACK
6
CONTINUOUS
10
249.033
20
-74.7156
11
249.105
21
-74.8607
0
LINE
8
BLACK
6
CONTINUOUS
10
249.105
20
-74.8607
11
249.178
21
-75.151
0
LINE
8
BLACK
6
CONTINUOUS
10
249.178
20
-75.151
11
249.178
21
-75.5139
0
LINE
8
BLACK
6
CONTINUOUS
10
249.178
20
-75.5139
11
249.105
21
-75.8041
0
LINE
8
BLACK
6
CONTINUOUS
10
249.105
20
-75.8041
11
249.033
21
-75.9493
0
LINE
8
BLACK
6
CONTINUOUS
10
249.033
20
-75.9493
11
248.96
21
-76.0219
0
LINE
8
BLACK
6
CONTINUOUS
10
248.96
20
-76.0219
11
248.815
21
-76.0944
0
LINE
8
BLACK
6
CONTINUOUS
10
248.815
20
-76.0944
11
248.67
21
-76.0944
0
LINE
8
BLACK
6
CONTINUOUS
10
248.67
20
-76.0944
11
248.525
21
-76.0219
0
LINE
8
BLACK
6
CONTINUOUS
10
248.525
20
-76.0219
11
248.452
21
-75.9493
0
LINE
8
BLACK
6
CONTINUOUS
10
248.452
20
-75.9493
11
248.379
21
-75.8041
0
LINE
8
BLACK
6
CONTINUOUS
10
248.379
20
-75.8041
11
248.307
21
-75.5139
0
LINE
8
BLACK
6
CONTINUOUS
10
248.307
20
-75.5139
11
248.307
21
-75.151
0
LINE
8
BLACK
6
CONTINUOUS
10
248.307
20
-75.151
11
248.379
21
-74.8607
0
LINE
8
BLACK
6
CONTINUOUS
10
248.379
20
-74.8607
11
248.452
21
-74.7156
0
LINE
8
BLACK
6
CONTINUOUS
10
248.452
20
-74.7156
11
248.525
21
-74.643
0
LINE
8
BLACK
6
CONTINUOUS
10
248.525
20
-74.643
11
248.67
21
-74.5704
0
LINE
8
BLACK
6
CONTINUOUS
10
250.484
20
-75.0784
11
250.484
21
-76.0944
0
LINE
8
BLACK
6
CONTINUOUS
10
249.831
20
-75.0784
11
249.831
21
-75.8767
0
LINE
8
BLACK
6
CONTINUOUS
10
249.831
20
-75.8767
11
249.903
21
-76.0219
0
LINE
8
BLACK
6
CONTINUOUS
10
249.903
20
-76.0219
11
250.049
21
-76.0944
0
LINE
8
BLACK
6
CONTINUOUS
10
250.049
20
-76.0944
11
250.266
21
-76.0944
0
LINE
8
BLACK
6
CONTINUOUS
10
250.266
20
-76.0944
11
250.411
21
-76.0219
0
LINE
8
BLACK
6
CONTINUOUS
10
250.411
20
-76.0219
11
250.484
21
-75.9493
0
LINE
8
BLACK
6
CONTINUOUS
10
160.472
20
-90.0777
11
159.62
21
-90.2588
0
LINE
8
BLACK
6
CONTINUOUS
10
160.046
20
-90.1683
11
159.729
21
-88.6776
0
LINE
8
BLACK
6
CONTINUOUS
10
159.729
20
-88.6776
11
159.633
21
-88.9207
0
LINE
8
BLACK
6
CONTINUOUS
10
159.633
20
-88.9207
11
159.521
21
-89.0928
0
LINE
8
BLACK
6
CONTINUOUS
10
159.521
20
-89.0928
11
159.394
21
-89.194
0
LINE
8
BLACK
6
CONTINUOUS
10
161.081
20
-89.8
11
161.167
21
-89.8559
0
LINE
8
BLACK
6
CONTINUOUS
10
161.167
20
-89.8559
11
161.111
21
-89.9419
0
LINE
8
BLACK
6
CONTINUOUS
10
161.111
20
-89.9419
11
161.025
21
-89.886
0
LINE
8
BLACK
6
CONTINUOUS
10
161.025
20
-89.886
11
161.081
21
-89.8
0
LINE
8
BLACK
6
CONTINUOUS
10
161.081
20
-89.8
11
161.111
21
-89.9419
0
LINE
8
BLACK
6
CONTINUOUS
10
162.214
20
-88.1495
11
161.504
21
-88.3004
0
LINE
8
BLACK
6
CONTINUOUS
10
161.504
20
-88.3004
11
161.584
21
-89.0253
0
LINE
8
BLACK
6
CONTINUOUS
10
161.584
20
-89.0253
11
161.64
21
-88.9392
0
LINE
8
BLACK
6
CONTINUOUS
10
161.64
20
-88.9392
11
161.767
21
-88.8381
0
LINE
8
BLACK
6
CONTINUOUS
10
161.767
20
-88.8381
11
162.121
21
-88.7626
0
LINE
8
BLACK
6
CONTINUOUS
10
162.121
20
-88.7626
11
162.279
21
-88.8034
0
LINE
8
BLACK
6
CONTINUOUS
10
162.279
20
-88.8034
11
162.365
21
-88.8593
0
LINE
8
BLACK
6
CONTINUOUS
10
162.365
20
-88.8593
11
162.466
21
-88.9862
0
LINE
8
BLACK
6
CONTINUOUS
10
162.466
20
-88.9862
11
162.541
21
-89.3411
0
LINE
8
BLACK
6
CONTINUOUS
10
162.541
20
-89.3411
11
162.5
21
-89.4982
0
LINE
8
BLACK
6
CONTINUOUS
10
162.5
20
-89.4982
11
162.445
21
-89.5843
0
LINE
8
BLACK
6
CONTINUOUS
10
162.445
20
-89.5843
11
162.318
21
-89.6854
0
LINE
8
BLACK
6
CONTINUOUS
10
162.318
20
-89.6854
11
161.963
21
-89.7609
0
LINE
8
BLACK
6
CONTINUOUS
10
161.963
20
-89.7609
11
161.806
21
-89.7201
0
LINE
8
BLACK
6
CONTINUOUS
10
161.806
20
-89.7201
11
161.72
21
-89.6642
0
LINE
8
BLACK
6
CONTINUOUS
10
163.208
20
-87.9382
11
163.349
21
-87.9081
0
LINE
8
BLACK
6
CONTINUOUS
10
163.349
20
-87.9081
11
163.507
21
-87.9489
0
LINE
8
BLACK
6
CONTINUOUS
10
163.507
20
-87.9489
11
163.593
21
-88.0048
0
LINE
8
BLACK
6
CONTINUOUS
10
163.593
20
-88.0048
11
163.694
21
-88.1316
0
LINE
8
BLACK
6
CONTINUOUS
10
163.694
20
-88.1316
11
163.825
21
-88.4005
0
LINE
8
BLACK
6
CONTINUOUS
10
163.825
20
-88.4005
11
163.901
21
-88.7554
0
LINE
8
BLACK
6
CONTINUOUS
10
163.901
20
-88.7554
11
163.89
21
-89.0545
0
LINE
8
BLACK
6
CONTINUOUS
10
163.89
20
-89.0545
11
163.849
21
-89.2115
0
LINE
8
BLACK
6
CONTINUOUS
10
163.849
20
-89.2115
11
163.793
21
-89.2976
0
LINE
8
BLACK
6
CONTINUOUS
10
163.793
20
-89.2976
11
163.666
21
-89.3987
0
LINE
8
BLACK
6
CONTINUOUS
10
163.666
20
-89.3987
11
163.524
21
-89.4289
0
LINE
8
BLACK
6
CONTINUOUS
10
163.524
20
-89.4289
11
163.367
21
-89.3881
0
LINE
8
BLACK
6
CONTINUOUS
10
163.367
20
-89.3881
11
163.281
21
-89.3322
0
LINE
8
BLACK
6
CONTINUOUS
10
163.281
20
-89.3322
11
163.18
21
-89.2053
0
LINE
8
BLACK
6
CONTINUOUS
10
163.18
20
-89.2053
11
163.049
21
-88.9365
0
LINE
8
BLACK
6
CONTINUOUS
10
163.049
20
-88.9365
11
162.973
21
-88.5816
0
LINE
8
BLACK
6
CONTINUOUS
10
162.973
20
-88.5816
11
162.984
21
-88.2825
0
LINE
8
BLACK
6
CONTINUOUS
10
162.984
20
-88.2825
11
163.025
21
-88.1255
0
LINE
8
BLACK
6
CONTINUOUS
10
163.025
20
-88.1255
11
163.081
21
-88.0394
0
LINE
8
BLACK
6
CONTINUOUS
10
163.081
20
-88.0394
11
163.208
21
-87.9382
0
LINE
8
BLACK
6
CONTINUOUS
10
165.088
20
-88.0579
11
165.299
21
-89.0517
0
LINE
8
BLACK
6
CONTINUOUS
10
164.449
20
-88.1937
11
164.615
21
-88.9746
0
LINE
8
BLACK
6
CONTINUOUS
10
164.615
20
-88.9746
11
164.716
21
-89.1014
0
LINE
8
BLACK
6
CONTINUOUS
10
164.716
20
-89.1014
11
164.873
21
-89.1422
0
LINE
8
BLACK
6
CONTINUOUS
10
164.873
20
-89.1422
11
165.086
21
-89.097
0
LINE
8
BLACK
6
CONTINUOUS
10
165.086
20
-89.097
11
165.213
21
-88.9958
0
LINE
8
BLACK
6
CONTINUOUS
10
165.213
20
-88.9958
11
165.269
21
-88.9097
0
LINE
8
BLACK
6
CONTINUOUS
10
252.693
20
-57.0444
11
251.822
21
-57.0444
0
LINE
8
BLACK
6
CONTINUOUS
10
252.258
20
-57.0444
11
252.258
21
-55.5204
0
LINE
8
BLACK
6
CONTINUOUS
10
252.258
20
-55.5204
11
252.112
21
-55.7381
0
LINE
8
BLACK
6
CONTINUOUS
10
252.112
20
-55.7381
11
251.967
21
-55.8833
0
LINE
8
BLACK
6
CONTINUOUS
10
251.967
20
-55.8833
11
251.822
21
-55.9559
0
LINE
8
BLACK
6
CONTINUOUS
10
253.346
20
-56.8993
11
253.419
21
-56.9719
0
LINE
8
BLACK
6
CONTINUOUS
10
253.419
20
-56.9719
11
253.346
21
-57.0444
0
LINE
8
BLACK
6
CONTINUOUS
10
253.346
20
-57.0444
11
253.274
21
-56.9719
0
LINE
8
BLACK
6
CONTINUOUS
10
253.274
20
-56.9719
11
253.346
21
-56.8993
0
LINE
8
BLACK
6
CONTINUOUS
10
253.346
20
-56.8993
11
253.346
21
-57.0444
0
LINE
8
BLACK
6
CONTINUOUS
10
253.999
20
-55.6656
11
254.072
21
-55.593
0
LINE
8
BLACK
6
CONTINUOUS
10
254.072
20
-55.593
11
254.217
21
-55.5204
0
LINE
8
BLACK
6
CONTINUOUS
10
254.217
20
-55.5204
11
254.58
21
-55.5204
0
LINE
8
BLACK
6
CONTINUOUS
10
254.58
20
-55.5204
11
254.725
21
-55.593
0
LINE
8
BLACK
6
CONTINUOUS
10
254.725
20
-55.593
11
254.798
21
-55.6656
0
LINE
8
BLACK
6
CONTINUOUS
10
254.798
20
-55.6656
11
254.87
21
-55.8107
0
LINE
8
BLACK
6
CONTINUOUS
10
254.87
20
-55.8107
11
254.87
21
-55.9559
0
LINE
8
BLACK
6
CONTINUOUS
10
254.87
20
-55.9559
11
254.798
21
-56.1736
0
LINE
8
BLACK
6
CONTINUOUS
10
254.798
20
-56.1736
11
253.927
21
-57.0444
0
LINE
8
BLACK
6
CONTINUOUS
10
253.927
20
-57.0444
11
254.87
21
-57.0444
0
LINE
8
BLACK
6
CONTINUOUS
10
256.249
20
-55.5204
11
255.523
21
-55.5204
0
LINE
8
BLACK
6
CONTINUOUS
10
255.523
20
-55.5204
11
255.451
21
-56.2461
0
LINE
8
BLACK
6
CONTINUOUS
10
255.451
20
-56.2461
11
255.523
21
-56.1736
0
LINE
8
BLACK
6
CONTINUOUS
10
255.523
20
-56.1736
11
255.668
21
-56.101
0
LINE
8
BLACK
6
CONTINUOUS
10
255.668
20
-56.101
11
256.031
21
-56.101
0
LINE
8
BLACK
6
CONTINUOUS
10
256.031
20
-56.101
11
256.176
21
-56.1736
0
LINE
8
BLACK
6
CONTINUOUS
10
256.176
20
-56.1736
11
256.249
21
-56.2461
0
LINE
8
BLACK
6
CONTINUOUS
10
256.249
20
-56.2461
11
256.322
21
-56.3913
0
LINE
8
BLACK
6
CONTINUOUS
10
256.322
20
-56.3913
11
256.322
21
-56.7541
0
LINE
8
BLACK
6
CONTINUOUS
10
256.322
20
-56.7541
11
256.249
21
-56.8993
0
LINE
8
BLACK
6
CONTINUOUS
10
256.249
20
-56.8993
11
256.176
21
-56.9719
0
LINE
8
BLACK
6
CONTINUOUS
10
256.176
20
-56.9719
11
256.031
21
-57.0444
0
LINE
8
BLACK
6
CONTINUOUS
10
256.031
20
-57.0444
11
255.668
21
-57.0444
0
LINE
8
BLACK
6
CONTINUOUS
10
255.668
20
-57.0444
11
255.523
21
-56.9719
0
LINE
8
BLACK
6
CONTINUOUS
10
255.523
20
-56.9719
11
255.451
21
-56.8993
0
LINE
8
BLACK
6
CONTINUOUS
10
257.628
20
-56.0284
11
257.628
21
-57.0444
0
LINE
8
BLACK
6
CONTINUOUS
10
256.975
20
-56.0284
11
256.975
21
-56.8267
0
LINE
8
BLACK
6
CONTINUOUS
10
256.975
20
-56.8267
11
257.047
21
-56.9719
0
LINE
8
BLACK
6
CONTINUOUS
10
257.047
20
-56.9719
11
257.192
21
-57.0444
0
LINE
8
BLACK
6
CONTINUOUS
10
257.192
20
-57.0444
11
257.41
21
-57.0444
0
LINE
8
BLACK
6
CONTINUOUS
10
257.41
20
-57.0444
11
257.555
21
-56.9719
0
LINE
8
BLACK
6
CONTINUOUS
10
257.555
20
-56.9719
11
257.628
21
-56.8993
0
LINE
8
BLACK
6
CONTINUOUS
10
245.549
20
-37.9944
11
244.678
21
-37.9944
0
LINE
8
BLACK
6
CONTINUOUS
10
245.114
20
-37.9944
11
245.114
21
-36.4704
0
LINE
8
BLACK
6
CONTINUOUS
10
245.114
20
-36.4704
11
244.969
21
-36.6881
0
LINE
8
BLACK
6
CONTINUOUS
10
244.969
20
-36.6881
11
244.823
21
-36.8333
0
LINE
8
BLACK
6
CONTINUOUS
10
244.823
20
-36.8333
11
244.678
21
-36.9059
0
LINE
8
BLACK
6
CONTINUOUS
10
246.202
20
-37.8493
11
246.275
21
-37.9219
0
LINE
8
BLACK
6
CONTINUOUS
10
246.275
20
-37.9219
11
246.202
21
-37.9944
0
LINE
8
BLACK
6
CONTINUOUS
10
246.202
20
-37.9944
11
246.13
21
-37.9219
0
LINE
8
BLACK
6
CONTINUOUS
10
246.13
20
-37.9219
11
246.202
21
-37.8493
0
LINE
8
BLACK
6
CONTINUOUS
10
246.202
20
-37.8493
11
246.202
21
-37.9944
0
LINE
8
BLACK
6
CONTINUOUS
10
246.783
20
-36.4704
11
247.799
21
-36.4704
0
LINE
8
BLACK
6
CONTINUOUS
10
247.799
20
-36.4704
11
247.146
21
-37.9944
0
LINE
8
BLACK
6
CONTINUOUS
10
249.105
20
-36.4704
11
248.379
21
-36.4704
0
LINE
8
BLACK
6
CONTINUOUS
10
248.379
20
-36.4704
11
248.307
21
-37.1961
0
LINE
8
BLACK
6
CONTINUOUS
10
248.307
20
-37.1961
11
248.379
21
-37.1236
0
LINE
8
BLACK
6
CONTINUOUS
10
248.379
20
-37.1236
11
248.525
21
-37.051
0
LINE
8
BLACK
6
CONTINUOUS
10
248.525
20
-37.051
11
248.887
21
-37.051
0
LINE
8
BLACK
6
CONTINUOUS
10
248.887
20
-37.051
11
249.033
21
-37.1236
0
LINE
8
BLACK
6
CONTINUOUS
10
249.033
20
-37.1236
11
249.105
21
-37.1961
0
LINE
8
BLACK
6
CONTINUOUS
10
249.105
20
-37.1961
11
249.178
21
-37.3413
0
LINE
8
BLACK
6
CONTINUOUS
10
249.178
20
-37.3413
11
249.178
21
-37.7041
0
LINE
8
BLACK
6
CONTINUOUS
10
249.178
20
-37.7041
11
249.105
21
-37.8493
0
LINE
8
BLACK
6
CONTINUOUS
10
249.105
20
-37.8493
11
249.033
21
-37.9219
0
LINE
8
BLACK
6
CONTINUOUS
10
249.033
20
-37.9219
11
248.887
21
-37.9944
0
LINE
8
BLACK
6
CONTINUOUS
10
248.887
20
-37.9944
11
248.525
21
-37.9944
0
LINE
8
BLACK
6
CONTINUOUS
10
248.525
20
-37.9944
11
248.379
21
-37.9219
0
LINE
8
BLACK
6
CONTINUOUS
10
248.379
20
-37.9219
11
248.307
21
-37.8493
0
LINE
8
BLACK
6
CONTINUOUS
10
250.484
20
-36.9784
11
250.484
21
-37.9944
0
LINE
8
BLACK
6
CONTINUOUS
10
249.831
20
-36.9784
11
249.831
21
-37.7767
0
LINE
8
BLACK
6
CONTINUOUS
10
249.831
20
-37.7767
11
249.903
21
-37.9219
0
LINE
8
BLACK
6
CONTINUOUS
10
249.903
20
-37.9219
11
250.049
21
-37.9944
0
LINE
8
BLACK
6
CONTINUOUS
10
250.049
20
-37.9944
11
250.266
21
-37.9944
0
LINE
8
BLACK
6
CONTINUOUS
10
250.266
20
-37.9944
11
250.411
21
-37.9219
0
LINE
8
BLACK
6
CONTINUOUS
10
250.411
20
-37.9219
11
250.484
21
-37.8493
0
LINE
8
BLACK
6
CONTINUOUS
10
7.93171
20
-37.9944
11
7.06086
21
-37.9944
0
LINE
8
BLACK
6
CONTINUOUS
10
7.49628
20
-37.9944
11
7.49628
21
-36.4704
0
LINE
8
BLACK
6
CONTINUOUS
10
7.49628
20
-36.4704
11
7.35114
21
-36.6881
0
LINE
8
BLACK
6
CONTINUOUS
10
7.35114
20
-36.6881
11
7.206
21
-36.8333
0
LINE
8
BLACK
6
CONTINUOUS
10
7.206
20
-36.8333
11
7.06086
21
-36.9059
0
LINE
8
BLACK
6
CONTINUOUS
10
8.58486
20
-37.8493
11
8.65743
21
-37.9219
0
LINE
8
BLACK
6
CONTINUOUS
10
8.65743
20
-37.9219
11
8.58486
21
-37.9944
0
LINE
8
BLACK
6
CONTINUOUS
10
8.58486
20
-37.9944
11
8.51229
21
-37.9219
0
LINE
8
BLACK
6
CONTINUOUS
10
8.51229
20
-37.9219
11
8.58486
21
-37.8493
0
LINE
8
BLACK
6
CONTINUOUS
10
8.58486
20
-37.8493
11
8.58486
21
-37.9944
0
LINE
8
BLACK
6
CONTINUOUS
10
9.238
20
-36.6156
11
9.31057
21
-36.543
0
LINE
8
BLACK
6
CONTINUOUS
10
9.31057
20
-36.543
11
9.45571
21
-36.4704
0
LINE
8
BLACK
6
CONTINUOUS
10
9.45571
20
-36.4704
11
9.81857
21
-36.4704
0
LINE
8
BLACK
6
CONTINUOUS
10
9.81857
20
-36.4704
11
9.96371
21
-36.543
0
LINE
8
BLACK
6
CONTINUOUS
10
9.96371
20
-36.543
11
10.0363
21
-36.6156
0
LINE
8
BLACK
6
CONTINUOUS
10
10.0363
20
-36.6156
11
10.1089
21
-36.7607
0
LINE
8
BLACK
6
CONTINUOUS
10
10.1089
20
-36.7607
11
10.1089
21
-36.9059
0
LINE
8
BLACK
6
CONTINUOUS
10
10.1089
20
-36.9059
11
10.0363
21
-37.1236
0
LINE
8
BLACK
6
CONTINUOUS
10
10.0363
20
-37.1236
11
9.16543
21
-37.9944
0
LINE
8
BLACK
6
CONTINUOUS
10
9.16543
20
-37.9944
11
10.1089
21
-37.9944
0
LINE
8
BLACK
6
CONTINUOUS
10
11.4877
20
-36.4704
11
10.762
21
-36.4704
0
LINE
8
BLACK
6
CONTINUOUS
10
10.762
20
-36.4704
11
10.6894
21
-37.1961
0
LINE
8
BLACK
6
CONTINUOUS
10
10.6894
20
-37.1961
11
10.762
21
-37.1236
0
LINE
8
BLACK
6
CONTINUOUS
10
10.762
20
-37.1236
11
10.9071
21
-37.051
0
LINE
8
BLACK
6
CONTINUOUS
10
10.9071
20
-37.051
11
11.27
21
-37.051
0
LINE
8
BLACK
6
CONTINUOUS
10
11.27
20
-37.051
11
11.4151
21
-37.1236
0
LINE
8
BLACK
6
CONTINUOUS
10
11.4151
20
-37.1236
11
11.4877
21
-37.1961
0
LINE
8
BLACK
6
CONTINUOUS
10
11.4877
20
-37.1961
11
11.5603
21
-37.3413
0
LINE
8
BLACK
6
CONTINUOUS
10
11.5603
20
-37.3413
11
11.5603
21
-37.7041
0
LINE
8
BLACK
6
CONTINUOUS
10
11.5603
20
-37.7041
11
11.4877
21
-37.8493
0
LINE
8
BLACK
6
CONTINUOUS
10
11.4877
20
-37.8493
11
11.4151
21
-37.9219
0
LINE
8
BLACK
6
CONTINUOUS
10
11.4151
20
-37.9219
11
11.27
21
-37.9944
0
LINE
8
BLACK
6
CONTINUOUS
10
11.27
20
-37.9944
11
10.9071
21
-37.9944
0
LINE
8
BLACK
6
CONTINUOUS
10
10.9071
20
-37.9944
11
10.762
21
-37.9219
0
LINE
8
BLACK
6
CONTINUOUS
10
10.762
20
-37.9219
11
10.6894
21
-37.8493
0
LINE
8
BLACK
6
CONTINUOUS
10
12.8666
20
-36.9784
11
12.8666
21
-37.9944
0
LINE
8
BLACK
6
CONTINUOUS
10
12.2134
20
-36.9784
11
12.2134
21
-37.7767
0
LINE
8
BLACK
6
CONTINUOUS
10
12.2134
20
-37.7767
11
12.286
21
-37.9219
0
LINE
8
BLACK
6
CONTINUOUS
10
12.286
20
-37.9219
11
12.4311
21
-37.9944
0
LINE
8
BLACK
6
CONTINUOUS
10
12.4311
20
-37.9944
11
12.6489
21
-37.9944
0
LINE
8
BLACK
6
CONTINUOUS
10
12.6489
20
-37.9944
11
12.794
21
-37.9219
0
LINE
8
BLACK
6
CONTINUOUS
10
12.794
20
-37.9219
11
12.8666
21
-37.8493
0
LINE
8
BLACK
6
CONTINUOUS
10
107.338
20
-72.592
11
107.251
21
-72.6479
0
LINE
8
BLACK
6
CONTINUOUS
10
107.251
20
-72.6479
11
107.094
21
-72.6887
0
LINE
8
BLACK
6
CONTINUOUS
10
107.094
20
-72.6887
11
106.739
21
-72.6132
0
LINE
8
BLACK
6
CONTINUOUS
10
106.739
20
-72.6132
11
106.613
21
-72.5121
0
LINE
8
BLACK
6
CONTINUOUS
10
106.613
20
-72.5121
11
106.557
21
-72.426
0
LINE
8
BLACK
6
CONTINUOUS
10
106.557
20
-72.426
11
106.516
21
-72.2689
0
LINE
8
BLACK
6
CONTINUOUS
10
106.516
20
-72.2689
11
106.546
21
-72.127
0
LINE
8
BLACK
6
CONTINUOUS
10
106.546
20
-72.127
11
106.662
21
-71.9291
0
LINE
8
BLACK
6
CONTINUOUS
10
106.662
20
-71.9291
11
107.695
21
-71.2583
0
LINE
8
BLACK
6
CONTINUOUS
10
107.695
20
-71.2583
11
106.772
21
-71.0622
0
LINE
8
BLACK
6
CONTINUOUS
10
106.103
20
-71.0684
11
106.047
21
-70.9823
0
LINE
8
BLACK
6
CONTINUOUS
10
106.047
20
-70.9823
11
106.134
21
-70.9264
0
LINE
8
BLACK
6
CONTINUOUS
10
106.134
20
-70.9264
11
106.189
21
-71.0125
0
LINE
8
BLACK
6
CONTINUOUS
10
106.189
20
-71.0125
11
106.103
21
-71.0684
0
LINE
8
BLACK
6
CONTINUOUS
10
106.103
20
-71.0684
11
106.134
21
-70.9264
0
LINE
8
BLACK
6
CONTINUOUS
10
104.823
20
-72.2059
11
104.681
21
-72.1757
0
LINE
8
BLACK
6
CONTINUOUS
10
104.681
20
-72.1757
11
104.554
21
-72.0745
0
LINE
8
BLACK
6
CONTINUOUS
10
104.554
20
-72.0745
11
104.498
21
-71.9884
0
LINE
8
BLACK
6
CONTINUOUS
10
104.498
20
-71.9884
11
104.457
21
-71.8314
0
LINE
8
BLACK
6
CONTINUOUS
10
104.457
20
-71.8314
11
104.447
21
-71.5324
0
LINE
8
BLACK
6
CONTINUOUS
10
104.447
20
-71.5324
11
104.522
21
-71.1774
0
LINE
8
BLACK
6
CONTINUOUS
10
104.522
20
-71.1774
11
104.653
21
-70.9086
0
LINE
8
BLACK
6
CONTINUOUS
10
104.653
20
-70.9086
11
104.755
21
-70.7817
0
LINE
8
BLACK
6
CONTINUOUS
10
104.755
20
-70.7817
11
104.841
21
-70.7258
0
LINE
8
BLACK
6
CONTINUOUS
10
104.841
20
-70.7258
11
104.998
21
-70.685
0
LINE
8
BLACK
6
CONTINUOUS
10
104.998
20
-70.685
11
105.14
21
-70.7152
0
LINE
8
BLACK
6
CONTINUOUS
10
105.14
20
-70.7152
11
105.267
21
-70.8163
0
LINE
8
BLACK
6
CONTINUOUS
10
105.267
20
-70.8163
11
105.322
21
-70.9024
0
LINE
8
BLACK
6
CONTINUOUS
10
105.322
20
-70.9024
11
105.363
21
-71.0595
0
LINE
8
BLACK
6
CONTINUOUS
10
105.363
20
-71.0595
11
105.374
21
-71.3585
0
LINE
8
BLACK
6
CONTINUOUS
10
105.374
20
-71.3585
11
105.298
21
-71.7134
0
LINE
8
BLACK
6
CONTINUOUS
10
105.298
20
-71.7134
11
105.167
21
-71.9823
0
LINE
8
BLACK
6
CONTINUOUS
10
105.167
20
-71.9823
11
105.066
21
-72.1091
0
LINE
8
BLACK
6
CONTINUOUS
10
105.066
20
-72.1091
11
104.98
21
-72.165
0
LINE
8
BLACK
6
CONTINUOUS
10
104.98
20
-72.165
11
104.823
21
-72.2059
0
LINE
8
BLACK
6
CONTINUOUS
10
103.403
20
-71.9041
11
103.261
21
-71.8739
0
LINE
8
BLACK
6
CONTINUOUS
10
103.261
20
-71.8739
11
103.134
21
-71.7727
0
LINE
8
BLACK
6
CONTINUOUS
10
103.134
20
-71.7727
11
103.078
21
-71.6867
0
LINE
8
BLACK
6
CONTINUOUS
10
103.078
20
-71.6867
11
103.038
21
-71.5296
0
LINE
8
BLACK
6
CONTINUOUS
10
103.038
20
-71.5296
11
103.027
21
-71.2306
0
LINE
8
BLACK
6
CONTINUOUS
10
103.027
20
-71.2306
11
103.102
21
-70.8757
0
LINE
8
BLACK
6
CONTINUOUS
10
103.102
20
-70.8757
11
103.234
21
-70.6068
0
LINE
8
BLACK
6
CONTINUOUS
10
103.234
20
-70.6068
11
103.335
21
-70.4799
0
LINE
8
BLACK
6
CONTINUOUS
10
103.335
20
-70.4799
11
103.421
21
-70.424
0
LINE
8
BLACK
6
CONTINUOUS
10
103.421
20
-70.424
11
103.578
21
-70.3832
0
LINE
8
BLACK
6
CONTINUOUS
10
103.578
20
-70.3832
11
103.72
21
-70.4134
0
LINE
8
BLACK
6
CONTINUOUS
10
103.72
20
-70.4134
11
103.847
21
-70.5146
0
LINE
8
BLACK
6
CONTINUOUS
10
103.847
20
-70.5146
11
103.903
21
-70.6006
0
LINE
8
BLACK
6
CONTINUOUS
10
103.903
20
-70.6006
11
103.944
21
-70.7577
0
LINE
8
BLACK
6
CONTINUOUS
10
103.944
20
-70.7577
11
103.954
21
-71.0567
0
LINE
8
BLACK
6
CONTINUOUS
10
103.954
20
-71.0567
11
103.879
21
-71.4116
0
LINE
8
BLACK
6
CONTINUOUS
10
103.879
20
-71.4116
11
103.747
21
-71.6805
0
LINE
8
BLACK
6
CONTINUOUS
10
103.747
20
-71.6805
11
103.646
21
-71.8074
0
LINE
8
BLACK
6
CONTINUOUS
10
103.646
20
-71.8074
11
103.56
21
-71.8633
0
LINE
8
BLACK
6
CONTINUOUS
10
103.56
20
-71.8633
11
103.403
21
-71.9041
0
LINE
8
BLACK
6
CONTINUOUS
10
101.734
20
-71.03
11
101.945
21
-70.0362
0
LINE
8
BLACK
6
CONTINUOUS
10
102.373
20
-71.1658
11
102.539
21
-70.3849
0
LINE
8
BLACK
6
CONTINUOUS
10
102.539
20
-70.3849
11
102.498
21
-70.2279
0
LINE
8
BLACK
6
CONTINUOUS
10
102.498
20
-70.2279
11
102.371
21
-70.1267
0
LINE
8
BLACK
6
CONTINUOUS
10
102.371
20
-70.1267
11
102.158
21
-70.0814
0
LINE
8
BLACK
6
CONTINUOUS
10
102.158
20
-70.0814
11
102.001
21
-70.1223
0
LINE
8
BLACK
6
CONTINUOUS
10
102.001
20
-70.1223
11
101.915
21
-70.1781
0
LINE
8
BLACK
6
CONTINUOUS
10
201.828
20
-79.2994
11
198.917
21
-65.6053
0
LINE
8
BLACK
6
CONTINUOUS
10
215.522
20
-76.3886
11
201.828
21
-79.2994
0
LINE
8
BLACK
6
CONTINUOUS
10
212.611
20
-62.6945
11
215.522
21
-76.3886
0
LINE
8
BLACK
6
CONTINUOUS
10
218.487
20
-78.3142
11
199.902
21
-82.2645
0
LINE
8
BLACK
6
CONTINUOUS
10
214.537
20
-59.7294
11
218.487
21
-78.3142
0
LINE
8
BLACK
6
CONTINUOUS
10
198.917
20
-65.6053
11
212.611
21
-62.6945
0
LINE
8
BLACK
6
CONTINUOUS
10
199.902
20
-82.2645
11
195.952
21
-63.6797
0
LINE
8
BLACK
6
CONTINUOUS
10
195.952
20
-63.6797
11
214.537
21
-59.7294
0
LINE
8
BLACK
6
CONTINUOUS
10
97.9141
20
-29.609
11
101.864
21
-11.0242
0
LINE
8
BLACK
6
CONTINUOUS
10
120.449
20
-14.9746
11
116.499
21
-33.5594
0
LINE
8
BLACK
6
CONTINUOUS
10
100.879
20
-27.6834
11
103.79
21
-13.9894
0
LINE
8
BLACK
6
CONTINUOUS
10
103.79
20
-13.9894
11
117.484
21
-16.9001
0
LINE
8
BLACK
6
CONTINUOUS
10
101.864
20
-11.0242
11
120.449
21
-14.9746
0
LINE
8
BLACK
6
CONTINUOUS
10
114.573
20
-30.5942
11
100.879
21
-27.6834
0
LINE
8
BLACK
6
CONTINUOUS
10
116.499
20
-33.5594
11
97.9141
21
-29.609
0
LINE
8
BLACK
6
CONTINUOUS
10
117.484
20
-16.9001
11
114.573
21
-30.5942
0
LINE
8
BLACK
6
CONTINUOUS
10
154.714
20
-52.9185
11
150.763
21
-34.3337
0
LINE
8
BLACK
6
CONTINUOUS
10
173.298
20
-48.9682
11
154.714
21
-52.9185
0
LINE
8
BLACK
6
CONTINUOUS
10
169.348
20
-30.3834
11
173.298
21
-48.9682
0
LINE
8
BLACK
6
CONTINUOUS
10
150.763
20
-34.3337
11
169.348
21
-30.3834
0
LINE
8
BLACK
6
CONTINUOUS
10
156.639
20
-49.9534
11
153.728
21
-36.2593
0
LINE
8
BLACK
6
CONTINUOUS
10
167.423
20
-33.3485
11
170.333
21
-47.0426
0
LINE
8
BLACK
6
CONTINUOUS
10
170.333
20
-47.0426
11
156.639
21
-49.9534
0
LINE
8
BLACK
6
CONTINUOUS
10
153.728
20
-36.2593
11
167.423
21
-33.3485
0
LINE
8
BLACK
6
CONTINUOUS
10
185.287
20
-24.3884
11
182.377
21
-10.6943
0
LINE
8
BLACK
6
CONTINUOUS
10
198.982
20
-21.4776
11
185.287
21
-24.3884
0
LINE
8
BLACK
6
CONTINUOUS
10
182.377
20
-10.6943
11
196.071
21
-7.78357
0
LINE
8
BLACK
6
CONTINUOUS
10
183.362
20
-27.3535
11
179.412
21
-8.76874
0
LINE
8
BLACK
6
CONTINUOUS
10
196.071
20
-7.78357
11
198.982
21
-21.4776
0
LINE
8
BLACK
6
CONTINUOUS
10
197.996
20
-4.81842
11
201.947
21
-23.4032
0
LINE
8
BLACK
6
CONTINUOUS
10
201.947
20
-23.4032
11
183.362
21
-27.3535
0
LINE
8
BLACK
6
CONTINUOUS
10
179.412
20
-8.76874
11
197.996
21
-4.81842
0
LINE
8
BLACK
6
CONTINUOUS
10
72.5765
20
-46.3059
11
86.2705
21
-49.2167
0
LINE
8
BLACK
6
CONTINUOUS
10
89.2357
20
-47.2911
11
85.2854
21
-65.8759
0
LINE
8
BLACK
6
CONTINUOUS
10
70.6509
20
-43.3408
11
89.2357
21
-47.2911
0
LINE
8
BLACK
6
CONTINUOUS
10
85.2854
20
-65.8759
11
66.7005
21
-61.9256
0
LINE
8
BLACK
6
CONTINUOUS
10
86.2705
20
-49.2167
11
83.3598
21
-62.9107
0
LINE
8
BLACK
6
CONTINUOUS
10
83.3598
20
-62.9107
11
69.6657
21
-60
0
LINE
8
BLACK
6
CONTINUOUS
10
69.6657
20
-60
11
72.5765
21
-46.3059
0
LINE
8
BLACK
6
CONTINUOUS
10
66.7005
20
-61.9256
11
70.6509
21
-43.3408
0
LINE
8
BLACK
6
CONTINUOUS
10
30.6375
20
-57.625
11
30.6375
21
-76.675
0
LINE
8
BLACK
6
CONTINUOUS
10
30.6375
20
-76.675
11
2.0625
21
-76.675
0
LINE
8
BLACK
6
CONTINUOUS
10
2.0625
20
-57.625
11
30.6375
21
-57.625
0
LINE
8
BLACK
6
CONTINUOUS
10
2.0625
20
-76.675
11
2.0625
21
-57.625
0
LINE
8
BLACK
6
CONTINUOUS
10
99.5481
20
-32.5633
11
96.6373
21
-46.2574
0
LINE
8
BLACK
6
CONTINUOUS
10
83.9284
20
-26.6874
11
102.513
21
-30.6377
0
LINE
8
BLACK
6
CONTINUOUS
10
82.9433
20
-43.3466
11
85.854
21
-29.6525
0
LINE
8
BLACK
6
CONTINUOUS
10
96.6373
20
-46.2574
11
82.9433
21
-43.3466
0
LINE
8
BLACK
6
CONTINUOUS
10
98.5629
20
-49.2225
11
79.9781
21
-45.2722
0
LINE
8
BLACK
6
CONTINUOUS
10
85.854
20
-29.6525
11
99.5481
21
-32.5633
0
LINE
8
BLACK
6
CONTINUOUS
10
79.9781
20
-45.2722
11
83.9284
21
-26.6874
0
LINE
8
BLACK
6
CONTINUOUS
10
102.513
20
-30.6377
11
98.5629
21
-49.2225
0
LINE
8
BLACK
6
CONTINUOUS
10
172.63
20
-68.6113
11
195.923
21
-63.6604
0
LINE
8
BLACK
6
CONTINUOUS
10
195.923
20
-63.6604
11
199.883
21
-82.2942
0
LINE
8
BLACK
6
CONTINUOUS
10
199.883
20
-82.2942
11
176.591
21
-87.2451
0
LINE
8
BLACK
6
CONTINUOUS
10
176.591
20
-87.2451
11
172.63
21
-68.6113
0
LINE
8
BLACK
6
CONTINUOUS
10
103.919
20
-69.8366
11
85.3343
21
-65.8863
0
LINE
8
BLACK
6
CONTINUOUS
10
107.869
20
-51.2518
11
103.919
21
-69.8366
0
LINE
8
BLACK
6
CONTINUOUS
10
101.993
20
-66.8715
11
88.2994
21
-63.9607
0
LINE
8
BLACK
6
CONTINUOUS
10
88.2994
20
-63.9607
11
91.2102
21
-50.2666
0
LINE
8
BLACK
6
CONTINUOUS
10
85.3343
20
-65.8863
11
89.2846
21
-47.3015
0
LINE
8
BLACK
6
CONTINUOUS
10
104.904
20
-53.1774
11
101.993
21
-66.8715
0
LINE
8
BLACK
6
CONTINUOUS
10
91.2102
20
-50.2666
11
104.904
21
-53.1774
0
LINE
8
BLACK
6
CONTINUOUS
10
89.2846
20
-47.3015
11
107.869
21
-51.2518
0
LINE
8
BLACK
6
CONTINUOUS
10
19.55
20
-19.5
11
19.55
21
-0.5
0
LINE
8
BLACK
6
CONTINUOUS
10
38.55
20
-19.5
11
19.55
21
-19.5
0
LINE
8
BLACK
6
CONTINUOUS
10
22.05
20
-17
11
22.05
21
-3
0
LINE
8
BLACK
6
CONTINUOUS
10
36.05
20
-17
11
22.05
21
-17
0
LINE
8
BLACK
6
CONTINUOUS
10
36.05
20
-3
11
36.05
21
-17
0
LINE
8
BLACK
6
CONTINUOUS
10
19.55
20
-0.5
11
38.55
21
-0.5
0
LINE
8
BLACK
6
CONTINUOUS
10
38.55
20
-0.5
11
38.55
21
-19.5
0
LINE
8
BLACK
6
CONTINUOUS
10
22.05
20
-3
11
36.05
21
-3
0
LINE
8
BLACK
6
CONTINUOUS
10
133.4
20
-2.17725
11
126.034
21
-2.17725
0
LINE
8
BLACK
6
CONTINUOUS
10
133.4
20
2.90275
11
133.4
21
-2.17725
0
LINE
8
BLACK
6
CONTINUOUS
10
126.034
20
-2.17725
11
126.034
21
2.90275
0
LINE
8
BLACK
6
CONTINUOUS
10
126.034
20
2.90275
11
133.4
21
2.90275
0
LINE
8
BLACK
6
CONTINUOUS
10
77.3059
20
-22.6728
11
63.6118
21
-19.762
0
LINE
8
BLACK
6
CONTINUOUS
10
60.6467
20
-21.6876
11
64.597
21
-3.10279
0
LINE
8
BLACK
6
CONTINUOUS
10
79.2315
20
-25.6379
11
60.6467
21
-21.6876
0
LINE
8
BLACK
6
CONTINUOUS
10
80.2167
20
-8.9787
11
77.3059
21
-22.6728
0
LINE
8
BLACK
6
CONTINUOUS
10
83.1818
20
-7.05312
11
79.2315
21
-25.6379
0
LINE
8
BLACK
6
CONTINUOUS
10
64.597
20
-3.10279
11
83.1818
21
-7.05312
0
LINE
8
BLACK
6
CONTINUOUS
10
66.5226
20
-6.06794
11
80.2167
21
-8.9787
0
LINE
8
BLACK
6
CONTINUOUS
10
63.6118
20
-19.762
11
66.5226
21
-6.06794
0
LINE
8
BLACK
6
CONTINUOUS
10
103.968
20
-69.847
11
107.918
21
-51.2622
0
LINE
8
BLACK
6
CONTINUOUS
10
122.553
20
-73.7973
11
103.968
21
-69.847
0
LINE
8
BLACK
6
CONTINUOUS
10
120.627
20
-70.8322
11
106.933
21
-67.9214
0
LINE
8
BLACK
6
CONTINUOUS
10
123.538
20
-57.1381
11
120.627
21
-70.8322
0
LINE
8
BLACK
6
CONTINUOUS
10
109.844
20
-54.2273
11
123.538
21
-57.1381
0
LINE
8
BLACK
6
CONTINUOUS
10
106.933
20
-67.9214
11
109.844
21
-54.2273
0
LINE
8
BLACK
6
CONTINUOUS
10
126.503
20
-55.2125
11
122.553
21
-73.7973
0
LINE
8
BLACK
6
CONTINUOUS
10
107.918
20
-51.2622
11
126.503
21
-55.2125
0
LINE
8
BLACK
6
CONTINUOUS
10
146.094
20
-35.275
11
142.144
21
-16.6902
0
LINE
8
BLACK
6
CONTINUOUS
10
148.02
20
-32.3098
11
145.109
21
-18.6158
0
LINE
8
BLACK
6
CONTINUOUS
10
164.679
20
-31.3247
11
146.094
21
-35.275
0
LINE
8
BLACK
6
CONTINUOUS
10
158.803
20
-15.705
11
161.714
21
-29.3991
0
LINE
8
BLACK
6
CONTINUOUS
10
145.109
20
-18.6158
11
158.803
21
-15.705
0
LINE
8
BLACK
6
CONTINUOUS
10
161.714
20
-29.3991
11
148.02
21
-32.3098
0
LINE
8
BLACK
6
CONTINUOUS
10
142.144
20
-16.6902
11
160.729
21
-12.7399
0
LINE
8
BLACK
6
CONTINUOUS
10
160.729
20
-12.7399
11
164.679
21
-31.3247
0
LINE
8
BLACK
6
CONTINUOUS
10
38.4312
20
-22.05
11
38.4312
21
-36.05
0
LINE
8
BLACK
6
CONTINUOUS
10
40.9312
20
-38.55
11
21.9312
21
-38.55
0
LINE
8
BLACK
6
CONTINUOUS
10
21.9312
20
-19.55
11
40.9312
21
-19.55
0
LINE
8
BLACK
6
CONTINUOUS
10
24.4312
20
-36.05
11
24.4312
21
-22.05
0
LINE
8
BLACK
6
CONTINUOUS
10
24.4312
20
-22.05
11
38.4312
21
-22.05
0
LINE
8
BLACK
6
CONTINUOUS
10
21.9312
20
-38.55
11
21.9312
21
-19.55
0
LINE
8
BLACK
6
CONTINUOUS
10
38.4312
20
-36.05
11
24.4312
21
-36.05
0
LINE
8
BLACK
6
CONTINUOUS
10
40.9312
20
-19.55
11
40.9312
21
-38.55
0
LINE
8
BLACK
6
CONTINUOUS
10
61.583
20
-5.01799
11
58.6722
21
-18.7121
0
LINE
8
BLACK
6
CONTINUOUS
10
58.6722
20
-18.7121
11
44.9781
21
-15.8013
0
LINE
8
BLACK
6
CONTINUOUS
10
42.013
20
-17.7269
11
45.9633
21
0.857925
0
LINE
8
BLACK
6
CONTINUOUS
10
47.8889
20
-2.10722
11
61.583
21
-5.01799
0
LINE
8
BLACK
6
CONTINUOUS
10
44.9781
20
-15.8013
11
47.8889
21
-2.10722
0
LINE
8
BLACK
6
CONTINUOUS
10
60.5978
20
-21.6772
11
42.013
21
-17.7269
0
LINE
8
BLACK
6
CONTINUOUS
10
45.9633
20
0.857925
11
64.5481
21
-3.0924
0
LINE
8
BLACK
6
CONTINUOUS
10
64.5481
20
-3.0924
11
60.5978
21
-21.6772
0
LINE
8
BLACK
6
CONTINUOUS
10
201.259
20
-43.076
11
205.21
21
-61.6608
0
LINE
8
BLACK
6
CONTINUOUS
10
199.334
20
-46.0412
11
202.245
21
-59.7352
0
LINE
8
BLACK
6
CONTINUOUS
10
182.675
20
-47.0263
11
201.259
21
-43.076
0
LINE
8
BLACK
6
CONTINUOUS
10
185.64
20
-48.9519
11
199.334
21
-46.0412
0
LINE
8
BLACK
6
CONTINUOUS
10
205.21
20
-61.6608
11
186.625
21
-65.6112
0
LINE
8
BLACK
6
CONTINUOUS
10
202.245
20
-59.7352
11
188.55
21
-62.646
0
LINE
8
BLACK
6
CONTINUOUS
10
188.55
20
-62.646
11
185.64
21
-48.9519
0
LINE
8
BLACK
6
CONTINUOUS
10
186.625
20
-65.6112
11
182.675
21
-47.0263
0
LINE
8
BLACK
6
CONTINUOUS
10
148.641
20
-93.1861
11
144.68
21
-74.5524
0
LINE
8
BLACK
6
CONTINUOUS
10
199.883
20
-82.2942
11
148.641
21
-93.1861
0
LINE
8
BLACK
6
CONTINUOUS
10
195.923
20
-63.6604
11
199.883
21
-82.2942
0
LINE
8
BLACK
6
CONTINUOUS
10
144.68
20
-74.5524
11
195.923
21
-63.6604
0
LINE
8
BLACK
6
CONTINUOUS
10
51.032
20
-56.0393
11
53.9427
21
-42.3452
0
LINE
8
BLACK
6
CONTINUOUS
10
70.602
20
-43.3304
11
66.6516
21
-61.9152
0
LINE
8
BLACK
6
CONTINUOUS
10
48.0668
20
-57.9648
11
52.0172
21
-39.38
0
LINE
8
BLACK
6
CONTINUOUS
10
64.7261
20
-58.95
11
51.032
21
-56.0393
0
LINE
8
BLACK
6
CONTINUOUS
10
53.9427
20
-42.3452
11
67.6368
21
-45.2559
0
LINE
8
BLACK
6
CONTINUOUS
10
67.6368
20
-45.2559
11
64.7261
21
-58.95
0
LINE
8
BLACK
6
CONTINUOUS
10
52.0172
20
-39.38
11
70.602
21
-43.3304
0
LINE
8
BLACK
6
CONTINUOUS
10
66.6516
20
-61.9152
11
48.0668
21
-57.9648
0
LINE
8
BLACK
6
CONTINUOUS
10
201.996
20
-23.3928
11
198.045
21
-4.80803
0
LINE
8
BLACK
6
CONTINUOUS
10
203.921
20
-20.4277
11
201.01
21
-6.73362
0
LINE
8
BLACK
6
CONTINUOUS
10
201.01
20
-6.73362
11
214.705
21
-3.82285
0
LINE
8
BLACK
6
CONTINUOUS
10
198.045
20
-4.80803
11
216.63
21
-0.857704
0
LINE
8
BLACK
6
CONTINUOUS
10
217.615
20
-17.5169
11
203.921
21
-20.4277
0
LINE
8
BLACK
6
CONTINUOUS
10
214.705
20
-3.82285
11
217.615
21
-17.5169
0
LINE
8
BLACK
6
CONTINUOUS
10
216.63
20
-0.857704
11
220.58
21
-19.4425
0
LINE
8
BLACK
6
CONTINUOUS
10
220.58
20
-19.4425
11
201.996
21
-23.3928
0
LINE
8
BLACK
6
CONTINUOUS
10
204.69
20
-25.4271
11
207.601
21
-39.1212
0
LINE
8
BLACK
6
CONTINUOUS
10
188.031
20
-26.4123
11
206.616
21
-22.462
0
LINE
8
BLACK
6
CONTINUOUS
10
206.616
20
-22.462
11
210.566
21
-41.0468
0
LINE
8
BLACK
6
CONTINUOUS
10
190.996
20
-28.3379
11
204.69
21
-25.4271
0
LINE
8
BLACK
6
CONTINUOUS
10
193.907
20
-42.0319
11
190.996
21
-28.3379
0
LINE
8
BLACK
6
CONTINUOUS
10
210.566
20
-41.0468
11
191.981
21
-44.9971
0
LINE
8
BLACK
6
CONTINUOUS
10
207.601
20
-39.1212
11
193.907
21
-42.0319
0
LINE
8
BLACK
6
CONTINUOUS
10
191.981
20
-44.9971
11
188.031
21
-26.4123
0
LINE
8
BLACK
6
CONTINUOUS
10
-4.2875
20
-57.625
11
-4.2875
21
-38.575
0
LINE
8
BLACK
6
CONTINUOUS
10
29.05
20
-57.625
11
-4.2875
21
-57.625
0
LINE
8
BLACK
6
CONTINUOUS
10
-4.2875
20
-38.575
11
29.05
21
-38.575
0
LINE
8
BLACK
6
CONTINUOUS
10
29.05
20
-38.575
11
29.05
21
-57.625
0
LINE
8
BLACK
6
CONTINUOUS
10
80.9144
20
-28.6026
11
78.0036
21
-42.2967
0
LINE
8
BLACK
6
CONTINUOUS
10
79.9292
20
-45.2618
11
61.3444
21
-41.3115
0
LINE
8
BLACK
6
CONTINUOUS
10
67.2203
20
-25.6918
11
80.9144
21
-28.6026
0
LINE
8
BLACK
6
CONTINUOUS
10
78.0036
20
-42.2967
11
64.3096
21
-39.3859
0
LINE
8
BLACK
6
CONTINUOUS
10
64.3096
20
-39.3859
11
67.2203
21
-25.6918
0
LINE
8
BLACK
6
CONTINUOUS
10
65.2947
20
-22.7267
11
83.8795
21
-26.677
0
LINE
8
BLACK
6
CONTINUOUS
10
83.8795
20
-26.677
11
79.9292
21
-45.2618
0
LINE
8
BLACK
6
CONTINUOUS
10
61.3444
20
-41.3115
11
65.2947
21
-22.7267
0
LINE
8
BLACK
6
CONTINUOUS
10
61.2955
20
-41.3011
11
42.7107
21
-37.3508
0
LINE
8
BLACK
6
CONTINUOUS
10
59.3699
20
-38.3359
11
45.6758
21
-35.4252
0
LINE
8
BLACK
6
CONTINUOUS
10
45.6758
20
-35.4252
11
48.5866
21
-21.7311
0
LINE
8
BLACK
6
CONTINUOUS
10
65.2458
20
-22.7163
11
61.2955
21
-41.3011
0
LINE
8
BLACK
6
CONTINUOUS
10
46.661
20
-18.766
11
65.2458
21
-22.7163
0
LINE
8
BLACK
6
CONTINUOUS
10
62.2807
20
-24.6419
11
59.3699
21
-38.3359
0
LINE
8
BLACK
6
CONTINUOUS
10
42.7107
20
-37.3508
11
46.661
21
-18.766
0
LINE
8
BLACK
6
CONTINUOUS
10
48.5866
20
-21.7311
11
62.2807
21
-24.6419
0
LINE
8
BLACK
6
CONTINUOUS
10
240.33
20
-15.73
11
226.33
21
-15.73
0
LINE
8
BLACK
6
CONTINUOUS
10
242.83
20
-18.23
11
223.83
21
-18.23
0
LINE
8
BLACK
6
CONTINUOUS
10
223.83
20
-18.23
11
223.83
21
0.77
0
LINE
8
BLACK
6
CONTINUOUS
10
223.83
20
0.77
11
242.83
21
0.77
0
LINE
8
BLACK
6
CONTINUOUS
10
226.33
20
-15.73
11
226.33
21
-1.73
0
LINE
8
BLACK
6
CONTINUOUS
10
242.83
20
0.77
11
242.83
21
-18.23
0
LINE
8
BLACK
6
CONTINUOUS
10
240.33
20
-1.73
11
240.33
21
-15.73
0
LINE
8
BLACK
6
CONTINUOUS
10
226.33
20
-1.73
11
240.33
21
-1.73
0
LINE
8
BLACK
6
CONTINUOUS
10
48.075
20
-57.6
11
29.075
21
-57.6
0
LINE
8
BLACK
6
CONTINUOUS
10
31.575
20
-55.1
11
31.575
21
-41.1
0
LINE
8
BLACK
6
CONTINUOUS
10
31.575
20
-41.1
11
45.575
21
-41.1
0
LINE
8
BLACK
6
CONTINUOUS
10
45.575
20
-41.1
11
45.575
21
-55.1
0
LINE
8
BLACK
6
CONTINUOUS
10
29.075
20
-38.6
11
48.075
21
-38.6
0
LINE
8
BLACK
6
CONTINUOUS
10
48.075
20
-38.6
11
48.075
21
-57.6
0
LINE
8
BLACK
6
CONTINUOUS
10
45.575
20
-55.1
11
31.575
21
-55.1
0
LINE
8
BLACK
6
CONTINUOUS
10
29.075
20
-57.6
11
29.075
21
-38.6
0
LINE
8
BLACK
6
CONTINUOUS
10
177.437
20
-11.7443
11
180.348
21
-25.4384
0
LINE
8
BLACK
6
CONTINUOUS
10
183.313
20
-27.3639
11
164.728
21
-31.3143
0
LINE
8
BLACK
6
CONTINUOUS
10
179.363
20
-8.77914
11
183.313
21
-27.3639
0
LINE
8
BLACK
6
CONTINUOUS
10
180.348
20
-25.4384
11
166.654
21
-28.3491
0
LINE
8
BLACK
6
CONTINUOUS
10
163.743
20
-14.6551
11
177.437
21
-11.7443
0
LINE
8
BLACK
6
CONTINUOUS
10
166.654
20
-28.3491
11
163.743
21
-14.6551
0
LINE
8
BLACK
6
CONTINUOUS
10
160.778
20
-12.7295
11
179.363
21
-8.77914
0
LINE
8
BLACK
6
CONTINUOUS
10
164.728
20
-31.3143
11
160.778
21
-12.7295
0
LINE
8
BLACK
6
CONTINUOUS
10
223.83
20
-57.6
11
223.83
21
-38.6
0
LINE
8
BLACK
6
CONTINUOUS
10
226.33
20
-55.1
11
226.33
21
-41.1
0
LINE
8
BLACK
6
CONTINUOUS
10
242.83
20
-38.6
11
242.83
21
-57.6
0
LINE
8
BLACK
6
CONTINUOUS
10
226.33
20
-41.1
11
240.33
21
-41.1
0
LINE
8
BLACK
6
CONTINUOUS
10
242.83
20
-57.6
11
223.83
21
-57.6
0
LINE
8
BLACK
6
CONTINUOUS
10
223.83
20
-38.6
11
242.83
21
-38.6
0
LINE
8
BLACK
6
CONTINUOUS
10
240.33
20
-41.1
11
240.33
21
-55.1
0
LINE
8
BLACK
6
CONTINUOUS
10
240.33
20
-55.1
11
226.33
21
-55.1
0
LINE
8
BLACK
6
CONTINUOUS
10
148.372
20
-56.8734
11
162.066
21
-53.9626
0
LINE
8
BLACK
6
CONTINUOUS
10
167.942
20
-69.5823
11
149.357
21
-73.5326
0
LINE
8
BLACK
6
CONTINUOUS
10
151.283
20
-70.5674
11
148.372
21
-56.8734
0
LINE
8
BLACK
6
CONTINUOUS
10
164.977
20
-67.6567
11
151.283
21
-70.5674
0
LINE
8
BLACK
6
CONTINUOUS
10
163.992
20
-50.9975
11
167.942
21
-69.5823
0
LINE
8
BLACK
6
CONTINUOUS
10
145.407
20
-54.9478
11
163.992
21
-50.9975
0
LINE
8
BLACK
6
CONTINUOUS
10
149.357
20
-73.5326
11
145.407
21
-54.9478
0
LINE
8
BLACK
6
CONTINUOUS
10
162.066
20
-53.9626
11
164.977
21
-67.6567
0
LINE
8
BLACK
6
CONTINUOUS
10
207.184
20
-58.6853
11
204.273
21
-44.9912
0
LINE
8
BLACK
6
CONTINUOUS
10
223.843
20
-57.7001
11
205.259
21
-61.6504
0
LINE
8
BLACK
6
CONTINUOUS
10
217.968
20
-42.0805
11
220.878
21
-55.7745
0
LINE
8
BLACK
6
CONTINUOUS
10
204.273
20
-44.9912
11
217.968
21
-42.0805
0
LINE
8
BLACK
6
CONTINUOUS
10
201.308
20
-43.0656
11
219.893
21
-39.1153
0
LINE
8
BLACK
6
CONTINUOUS
10
219.893
20
-39.1153
11
223.843
21
-57.7001
0
LINE
8
BLACK
6
CONTINUOUS
10
205.259
20
-61.6504
11
201.308
21
-43.0656
0
LINE
8
BLACK
6
CONTINUOUS
10
220.878
20
-55.7745
11
207.184
21
-58.6853
0
LINE
8
BLACK
6
CONTINUOUS
10
225.249
20
-18.5012
11
229.2
21
-37.086
0
LINE
8
BLACK
6
CONTINUOUS
10
209.63
20
-24.3771
11
223.324
21
-21.4664
0
LINE
8
BLACK
6
CONTINUOUS
10
223.324
20
-21.4664
11
226.234
21
-35.1605
0
LINE
8
BLACK
6
CONTINUOUS
10
229.2
20
-37.086
11
210.615
21
-41.0364
0
LINE
8
BLACK
6
CONTINUOUS
10
212.54
20
-38.0712
11
209.63
21
-24.3771
0
LINE
8
BLACK
6
CONTINUOUS
10
210.615
20
-41.0364
11
206.664
21
-22.4516
0
LINE
8
BLACK
6
CONTINUOUS
10
206.664
20
-22.4516
11
225.249
21
-18.5012
0
LINE
8
BLACK
6
CONTINUOUS
10
226.234
20
-35.1605
11
212.54
21
-38.0712
0
LINE
8
BLACK
6
CONTINUOUS
10
261.88
20
-0.5
11
261.88
21
-19.5
0
LINE
8
BLACK
6
CONTINUOUS
10
259.38
20
-17
11
245.38
21
-17
0
LINE
8
BLACK
6
CONTINUOUS
10
259.38
20
-3
11
259.38
21
-17
0
LINE
8
BLACK
6
CONTINUOUS
10
245.38
20
-17
11
245.38
21
-3
0
LINE
8
BLACK
6
CONTINUOUS
10
242.88
20
-0.5
11
261.88
21
-0.5
0
LINE
8
BLACK
6
CONTINUOUS
10
245.38
20
-3
11
259.38
21
-3
0
LINE
8
BLACK
6
CONTINUOUS
10
242.88
20
-19.5
11
242.88
21
-0.5
0
LINE
8
BLACK
6
CONTINUOUS
10
261.88
20
-19.5
11
242.88
21
-19.5
0
LINE
8
BLACK
6
CONTINUOUS
10
115.271
20
-50.2181
11
101.577
21
-47.3073
0
LINE
8
BLACK
6
CONTINUOUS
10
102.562
20
-30.6481
11
121.147
21
-34.5984
0
LINE
8
BLACK
6
CONTINUOUS
10
121.147
20
-34.5984
11
117.197
21
-53.1832
0
LINE
8
BLACK
6
CONTINUOUS
10
118.182
20
-36.524
11
115.271
21
-50.2181
0
LINE
8
BLACK
6
CONTINUOUS
10
98.6118
20
-49.2329
11
102.562
21
-30.6481
0
LINE
8
BLACK
6
CONTINUOUS
10
117.197
20
-53.1832
11
98.6118
21
-49.2329
0
LINE
8
BLACK
6
CONTINUOUS
10
104.488
20
-33.6133
11
118.182
21
-36.524
0
LINE
8
BLACK
6
CONTINUOUS
10
101.577
20
-47.3073
11
104.488
21
-33.6133
0
LINE
8
BLACK
6
CONTINUOUS
10
233.33
20
-76.675
11
233.33
21
-57.625
0
LINE
8
BLACK
6
CONTINUOUS
10
261.905
20
-76.675
11
233.33
21
-76.675
0
LINE
8
BLACK
6
CONTINUOUS
10
233.33
20
-57.625
11
261.905
21
-57.625
0
LINE
8
BLACK
6
CONTINUOUS
10
261.905
20
-57.625
11
261.905
21
-76.675
0
LINE
8
BLACK
6
CONTINUOUS
10
144.68
20
-74.5524
11
172.63
21
-68.6113
0
LINE
8
BLACK
6
CONTINUOUS
10
172.63
20
-68.6113
11
176.591
21
-87.2451
0
LINE
8
BLACK
6
CONTINUOUS
10
176.591
20
-87.2451
11
148.641
21
-93.1861
0
LINE
8
BLACK
6
CONTINUOUS
10
148.641
20
-93.1861
11
144.68
21
-74.5524
0
LINE
8
BLACK
6
CONTINUOUS
10
54.6405
20
-61.9691
11
68.3345
21
-64.8798
0
LINE
8
BLACK
6
CONTINUOUS
10
67.3494
20
-81.5391
11
48.7645
21
-77.5887
0
LINE
8
BLACK
6
CONTINUOUS
10
48.7645
20
-77.5887
11
52.7149
21
-59.0039
0
LINE
8
BLACK
6
CONTINUOUS
10
52.7149
20
-59.0039
11
71.2997
21
-62.9543
0
LINE
8
BLACK
6
CONTINUOUS
10
71.2997
20
-62.9543
11
67.3494
21
-81.5391
0
LINE
8
BLACK
6
CONTINUOUS
10
68.3345
20
-64.8798
11
65.4238
21
-78.5739
0
LINE
8
BLACK
6
CONTINUOUS
10
65.4238
20
-78.5739
11
51.7297
21
-75.6631
0
LINE
8
BLACK
6
CONTINUOUS
10
51.7297
20
-75.6631
11
54.6405
21
-61.9691
0
LINE
8
BLACK
6
CONTINUOUS
10
172.362
20
-32.2986
11
186.056
21
-29.3878
0
LINE
8
BLACK
6
CONTINUOUS
10
175.273
20
-45.9927
11
172.362
21
-32.2986
0
LINE
8
BLACK
6
CONTINUOUS
10
188.967
20
-43.0819
11
175.273
21
-45.9927
0
LINE
8
BLACK
6
CONTINUOUS
10
186.056
20
-29.3878
11
188.967
21
-43.0819
0
LINE
8
BLACK
6
CONTINUOUS
10
169.397
20
-30.373
11
187.982
21
-26.4227
0
LINE
8
BLACK
6
CONTINUOUS
10
187.982
20
-26.4227
11
191.932
21
-45.0075
0
LINE
8
BLACK
6
CONTINUOUS
10
173.347
20
-48.9578
11
169.397
21
-30.373
0
LINE
8
BLACK
6
CONTINUOUS
10
191.932
20
-45.0075
11
173.347
21
-48.9578
0
LINE
8
BLACK
6
CONTINUOUS
10
242.855
20
-38.575
11
266.667
21
-38.575
0
LINE
8
BLACK
6
CONTINUOUS
10
266.667
20
-57.625
11
242.855
21
-57.625
0
LINE
8
BLACK
6
CONTINUOUS
10
266.667
20
-38.575
11
266.667
21
-57.625
0
LINE
8
BLACK
6
CONTINUOUS
10
242.855
20
-57.625
11
242.855
21
-38.575
0
LINE
8
BLACK
6
CONTINUOUS
10
83.2307
20
-7.06351
11
101.816
21
-11.0138
0
LINE
8
BLACK
6
CONTINUOUS
10
82.2456
20
-23.7227
11
85.1563
21
-10.0287
0
LINE
8
BLACK
6
CONTINUOUS
10
79.2804
20
-25.6483
11
83.2307
21
-7.06351
0
LINE
8
BLACK
6
CONTINUOUS
10
101.816
20
-11.0138
11
97.8652
21
-29.5986
0
LINE
8
BLACK
6
CONTINUOUS
10
85.1563
20
-10.0287
11
98.8504
21
-12.9394
0
LINE
8
BLACK
6
CONTINUOUS
10
98.8504
20
-12.9394
11
95.9396
21
-26.6335
0
LINE
8
BLACK
6
CONTINUOUS
10
97.8652
20
-29.5986
11
79.2804
21
-25.6483
0
LINE
8
BLACK
6
CONTINUOUS
10
95.9396
20
-26.6335
11
82.2456
21
-23.7227
0
LINE
8
BLACK
6
CONTINUOUS
10
84.0575
20
-82.5346
11
70.3634
21
-79.6239
0
LINE
8
BLACK
6
CONTINUOUS
10
71.3486
20
-62.9646
11
89.9334
21
-66.915
0
LINE
8
BLACK
6
CONTINUOUS
10
73.2742
20
-65.9298
11
86.9682
21
-68.8406
0
LINE
8
BLACK
6
CONTINUOUS
10
85.9831
20
-85.4998
11
67.3983
21
-81.5495
0
LINE
8
BLACK
6
CONTINUOUS
10
67.3983
20
-81.5495
11
71.3486
21
-62.9646
0
LINE
8
BLACK
6
CONTINUOUS
10
86.9682
20
-68.8406
11
84.0575
21
-82.5346
0
LINE
8
BLACK
6
CONTINUOUS
10
89.9334
20
-66.915
11
85.9831
21
-85.4998
0
LINE
8
BLACK
6
CONTINUOUS
10
70.3634
20
-79.6239
11
73.2742
21
-65.9298
0
LINE
8
BLACK
6
CONTINUOUS
10
264.286
20
-38.575
11
230.949
21
-38.575
0
LINE
8
BLACK
6
CONTINUOUS
10
230.949
20
-38.575
11
230.949
21
-19.525
0
LINE
8
BLACK
6
CONTINUOUS
10
264.286
20
-19.525
11
264.286
21
-38.575
0
LINE
8
BLACK
6
CONTINUOUS
10
230.949
20
-19.525
11
264.286
21
-19.525
0
LINE
8
BLACK
6
CONTINUOUS
10
105.602
20
-72.8013
11
102.691
21
-86.4953
0
LINE
8
BLACK
6
CONTINUOUS
10
91.9079
20
-69.8905
11
105.602
21
-72.8013
0
LINE
8
BLACK
6
CONTINUOUS
10
88.9971
20
-83.5846
11
91.9079
21
-69.8905
0
LINE
8
BLACK
6
CONTINUOUS
10
86.032
20
-85.5102
11
89.9823
21
-66.9254
0
LINE
8
BLACK
6
CONTINUOUS
10
89.9823
20
-66.9254
11
108.567
21
-70.8757
0
LINE
8
BLACK
6
CONTINUOUS
10
108.567
20
-70.8757
11
104.617
21
-89.4605
0
LINE
8
BLACK
6
CONTINUOUS
10
102.691
20
-86.4953
11
88.9971
21
-83.5846
0
LINE
8
BLACK
6
CONTINUOUS
10
104.617
20
-89.4605
11
86.032
21
-85.5102
0
LINE
8
BLACK
6
CONTINUOUS
10
169.917
20
-66.6067
11
167.006
21
-52.9127
0
LINE
8
BLACK
6
CONTINUOUS
10
180.7
20
-50.0019
11
183.611
21
-63.696
0
LINE
8
BLACK
6
CONTINUOUS
10
164.041
20
-50.9871
11
182.626
21
-47.0367
0
LINE
8
BLACK
6
CONTINUOUS
10
186.576
20
-65.6215
11
167.991
21
-69.5719
0
LINE
8
BLACK
6
CONTINUOUS
10
183.611
20
-63.696
11
169.917
21
-66.6067
0
LINE
8
BLACK
6
CONTINUOUS
10
182.626
20
-47.0367
11
186.576
21
-65.6215
0
LINE
8
BLACK
6
CONTINUOUS
10
167.991
20
-69.5719
11
164.041
21
-50.9871
0
LINE
8
BLACK
6
CONTINUOUS
10
167.006
20
-52.9127
11
180.7
21
-50.0019
0
LINE
8
BLACK
6
CONTINUOUS
10
3
20
-17
11
3
21
-3
0
LINE
8
BLACK
6
CONTINUOUS
10
19.5
20
-19.5
11
0.5
21
-19.5
0
LINE
8
BLACK
6
CONTINUOUS
10
19.5
20
-0.5
11
19.5
21
-19.5
0
LINE
8
BLACK
6
CONTINUOUS
10
17
20
-3
11
17
21
-17
0
LINE
8
BLACK
6
CONTINUOUS
10
0.5
20
-19.5
11
0.5
21
-0.5
0
LINE
8
BLACK
6
CONTINUOUS
10
17
20
-17
11
3
21
-17
0
LINE
8
BLACK
6
CONTINUOUS
10
3
20
-3
11
17
21
-3
0
LINE
8
BLACK
6
CONTINUOUS
10
0.5
20
-0.5
11
19.5
21
-0.5
0
LINE
8
BLACK
6
CONTINUOUS
10
124.236
20
-76.762
11
121.325
21
-90.4561
0
LINE
8
BLACK
6
CONTINUOUS
10
127.201
20
-74.8364
11
123.25
21
-93.4212
0
LINE
8
BLACK
6
CONTINUOUS
10
104.666
20
-89.4709
11
108.616
21
-70.8861
0
LINE
8
BLACK
6
CONTINUOUS
10
107.631
20
-87.5453
11
110.542
21
-73.8512
0
LINE
8
BLACK
6
CONTINUOUS
10
108.616
20
-70.8861
11
127.201
21
-74.8364
0
LINE
8
BLACK
6
CONTINUOUS
10
123.25
20
-93.4212
11
104.666
21
-89.4709
0
LINE
8
BLACK
6
CONTINUOUS
10
121.325
20
-90.4561
11
107.631
21
-87.5453
0
LINE
8
BLACK
6
CONTINUOUS
10
110.542
20
-73.8512
11
124.236
21
-76.762
0
LINE
8
BLACK
6
CONTINUOUS
10
21.9062
20
-19.525
11
21.9062
21
-38.575
0
LINE
8
BLACK
6
CONTINUOUS
10
21.9062
20
-38.575
11
-1.90625
21
-38.575
0
LINE
8
BLACK
6
CONTINUOUS
10
-1.90625
20
-38.575
11
-1.90625
21
-19.525
0
LINE
8
BLACK
6
CONTINUOUS
10
-1.90625
20
-19.525
11
21.9062
21
-19.525
0
LINE
8
BLACK
6
CONTINUOUS
10
67.3686
20
-81.5687
11
71.3293
21
-62.935
0
LINE
8
BLACK
6
CONTINUOUS
10
108.597
20
-70.8564
11
104.636
21
-89.4901
0
LINE
8
BLACK
6
CONTINUOUS
10
71.3293
20
-62.935
11
108.597
21
-70.8564
0
LINE
8
BLACK
6
CONTINUOUS
10
104.636
20
-89.4901
11
67.3686
21
-81.5687
  0
ENDSEC
  0
EOF
