  0
SECTION
  2
HEADER
  9
$ANGBASE
  50
0.0
  9
$ANGDIR
  70
1
  9
$MEASUREMENT
  70
1
  0
ENDSEC
  0
SECTION
  2
TABLES
  0
TABLE
  2
LTYPE
  70
4
  0
LTYPE
  5
40F
  2
CONTINUOUS
  70
0
  3
Solid line
  72
65
  73
0
  40
0.0
  0
LTYPE
  5
410
  2
DASHDOT
 70
0
  3
Dash Dot ____ _ ____ _
 72
65
 73
4
 40
2.0
 49
1.25
 49
-0.25
 49
0.25
 49
-0.25
  0
LTYPE
  5
411
  2
DASHED
 70
0
  3
Dashed __ __ __ __ __
 72
65
 73
2
 40
0.75
 49
0.5
 49
-0.25
  0
LTYPE
  5
43B
  2
DOTTED
 70
0
  3
Dotted .  .  .  .
 72
65
 73
2
 40
0.2
 49
0.0
 49
-0.2
  0
ENDTAB
  0
TABLE
  2
STYLE
  70
4
  0
STYLE
  2
KICAD
  70
0
  40
0
  41
1
  42
1
  50
0
  71
0
  3
isocp.shx
  0
STYLE
  2
KICADB
  70
0
  40
0
  41
1
  42
1
  50
0
  71
0
  3
isocp.shx
  0
STYLE
  2
KICADI
  70
0
  40
0
  41
1
  42
1
  50
15
  71
0
  3
isocp.shx
  0
STYLE
  2
KICADBI
  70
0
  40
0
  41
1
  42
1
  50
15
  71
0
  3
isocp.shx
  0
ENDTAB
  0
TABLE
  2
LAYER
  70
1
  0
LAYER
  2
BLACK
  70
0
  62
7
  6
CONTINUOUS
  0
ENDTAB
  0
ENDSEC
  0
SECTION
  2
ENTITIES
0
LINE
8
BLACK
6
CONTINUOUS
10
5.48125
20
-55
11
5.48125
21
-41.2
0
LINE
8
BLACK
6
CONTINUOUS
10
19.2812
20
-55
11
5.48125
21
-55
0
LINE
8
BLACK
6
CONTINUOUS
10
19.2812
20
-41.2
11
19.2812
21
-55
0
LINE
8
BLACK
6
CONTINUOUS
10
5.48125
20
-41.2
11
19.2812
21
-41.2
0
LINE
8
BLACK
6
CONTINUOUS
10
240.718
20
-35.95
11
240.718
21
-22.15
0
LINE
8
BLACK
6
CONTINUOUS
10
254.517
20
-35.95
11
240.718
21
-35.95
0
LINE
8
BLACK
6
CONTINUOUS
10
254.517
20
-22.15
11
254.517
21
-35.95
0
LINE
8
BLACK
6
CONTINUOUS
10
240.718
20
-22.15
11
254.517
21
-22.15
0
LINE
8
BLACK
6
CONTINUOUS
10
9.45
20
-74.05
11
9.45
21
-60.25
0
LINE
8
BLACK
6
CONTINUOUS
10
23.25
20
-74.05
11
9.45
21
-74.05
0
LINE
8
BLACK
6
CONTINUOUS
10
23.25
20
-60.25
11
23.25
21
-74.05
0
LINE
8
BLACK
6
CONTINUOUS
10
9.45
20
-60.25
11
23.25
21
-60.25
0
LINE
8
BLACK
6
CONTINUOUS
10
240.718
20
-74.05
11
240.718
21
-60.25
0
LINE
8
BLACK
6
CONTINUOUS
10
254.517
20
-74.05
11
240.718
21
-74.05
0
LINE
8
BLACK
6
CONTINUOUS
10
254.517
20
-60.25
11
254.517
21
-74.05
0
LINE
8
BLACK
6
CONTINUOUS
10
240.718
20
-60.25
11
254.517
21
-60.25
0
LINE
8
BLACK
6
CONTINUOUS
10
155.321
20
-89.0825
11
152.452
21
-75.5841
0
LINE
8
BLACK
6
CONTINUOUS
10
168.819
20
-86.2134
11
155.321
21
-89.0825
0
LINE
8
BLACK
6
CONTINUOUS
10
165.95
20
-72.7149
11
168.819
21
-86.2134
0
LINE
8
BLACK
6
CONTINUOUS
10
152.452
20
-75.5841
11
165.95
21
-72.7149
0
LINE
8
BLACK
6
CONTINUOUS
10
180.942
20
-83.6366
11
178.073
21
-70.1381
0
LINE
8
BLACK
6
CONTINUOUS
10
194.441
20
-80.7674
11
180.942
21
-83.6366
0
LINE
8
BLACK
6
CONTINUOUS
10
191.571
20
-67.2689
11
194.441
21
-80.7674
0
LINE
8
BLACK
6
CONTINUOUS
10
178.073
20
-70.1381
11
191.571
21
-67.2689
0
LINE
8
BLACK
6
CONTINUOUS
10
247.861
20
-55
11
247.861
21
-41.2
0
LINE
8
BLACK
6
CONTINUOUS
10
261.661
20
-55
11
247.861
21
-55
0
LINE
8
BLACK
6
CONTINUOUS
10
261.661
20
-41.2
11
261.661
21
-55
0
LINE
8
BLACK
6
CONTINUOUS
10
247.861
20
-41.2
11
261.661
21
-41.2
0
LINE
8
BLACK
6
CONTINUOUS
10
3.1
20
-35.95
11
3.1
21
-22.15
0
LINE
8
BLACK
6
CONTINUOUS
10
16.9
20
-35.95
11
3.1
21
-35.95
0
LINE
8
BLACK
6
CONTINUOUS
10
16.9
20
-22.15
11
16.9
21
-35.95
0
LINE
8
BLACK
6
CONTINUOUS
10
3.1
20
-22.15
11
16.9
21
-22.15
0
LINE
8
BLACK
6
CONTINUOUS
10
201.905
20
-79.1808
11
199.036
21
-65.6823
0
LINE
8
BLACK
6
CONTINUOUS
10
215.404
20
-76.3116
11
201.905
21
-79.1808
0
LINE
8
BLACK
6
CONTINUOUS
10
212.534
20
-62.8131
11
215.404
21
-76.3116
0
LINE
8
BLACK
6
CONTINUOUS
10
199.036
20
-65.6823
11
212.534
21
-62.8131
0
LINE
8
BLACK
6
CONTINUOUS
10
100.998
20
-27.6064
11
103.867
21
-14.108
0
LINE
8
BLACK
6
CONTINUOUS
10
114.496
20
-30.4756
11
100.998
21
-27.6064
0
LINE
8
BLACK
6
CONTINUOUS
10
117.365
20
-16.9772
11
114.496
21
-30.4756
0
LINE
8
BLACK
6
CONTINUOUS
10
103.867
20
-14.108
11
117.365
21
-16.9772
0
LINE
8
BLACK
6
CONTINUOUS
10
156.716
20
-49.8348
11
153.847
21
-36.3363
0
LINE
8
BLACK
6
CONTINUOUS
10
170.215
20
-46.9656
11
156.716
21
-49.8348
0
LINE
8
BLACK
6
CONTINUOUS
10
167.345
20
-33.4671
11
170.215
21
-46.9656
0
LINE
8
BLACK
6
CONTINUOUS
10
153.847
20
-36.3363
11
167.345
21
-33.4671
0
LINE
8
BLACK
6
CONTINUOUS
10
185.365
20
-24.2698
11
182.495
21
-10.7714
0
LINE
8
BLACK
6
CONTINUOUS
10
198.863
20
-21.4006
11
185.365
21
-24.2698
0
LINE
8
BLACK
6
CONTINUOUS
10
195.994
20
-7.90218
11
198.863
21
-21.4006
0
LINE
8
BLACK
6
CONTINUOUS
10
182.495
20
-10.7714
11
195.994
21
-7.90218
0
LINE
8
BLACK
6
CONTINUOUS
10
69.7843
20
-59.9229
11
72.6535
21
-46.4245
0
LINE
8
BLACK
6
CONTINUOUS
10
83.2827
20
-62.7921
11
69.7843
21
-59.9229
0
LINE
8
BLACK
6
CONTINUOUS
10
86.1519
20
-49.2937
11
83.2827
21
-62.7921
0
LINE
8
BLACK
6
CONTINUOUS
10
72.6535
20
-46.4245
11
86.1519
21
-49.2937
0
LINE
8
BLACK
6
CONTINUOUS
10
83.0619
20
-43.2696
11
85.9311
21
-29.7712
0
LINE
8
BLACK
6
CONTINUOUS
10
96.5603
20
-46.1388
11
83.0619
21
-43.2696
0
LINE
8
BLACK
6
CONTINUOUS
10
99.4295
20
-32.6403
11
96.5603
21
-46.1388
0
LINE
8
BLACK
6
CONTINUOUS
10
85.9311
20
-29.7712
11
99.4295
21
-32.6403
0
LINE
8
BLACK
6
CONTINUOUS
10
88.418
20
-63.8837
11
91.2872
21
-50.3852
0
LINE
8
BLACK
6
CONTINUOUS
10
101.916
20
-66.7528
11
88.418
21
-63.8837
0
LINE
8
BLACK
6
CONTINUOUS
10
104.786
20
-53.2544
11
101.916
21
-66.7528
0
LINE
8
BLACK
6
CONTINUOUS
10
91.2872
20
-50.3852
11
104.786
21
-53.2544
0
LINE
8
BLACK
6
CONTINUOUS
10
22.15
20
-16.9
11
22.15
21
-3.1
0
LINE
8
BLACK
6
CONTINUOUS
10
35.95
20
-16.9
11
22.15
21
-16.9
0
LINE
8
BLACK
6
CONTINUOUS
10
35.95
20
-3.1
11
35.95
21
-16.9
0
LINE
8
BLACK
6
CONTINUOUS
10
22.15
20
-3.1
11
35.95
21
-3.1
0
LINE
8
BLACK
6
CONTINUOUS
10
63.7305
20
-19.685
11
66.5996
21
-6.18655
0
LINE
8
BLACK
6
CONTINUOUS
10
77.2289
20
-22.5542
11
63.7305
21
-19.685
0
LINE
8
BLACK
6
CONTINUOUS
10
80.0981
20
-9.05573
11
77.2289
21
-22.5542
0
LINE
8
BLACK
6
CONTINUOUS
10
66.5996
20
-6.18655
11
80.0981
21
-9.05573
0
LINE
8
BLACK
6
CONTINUOUS
10
107.052
20
-67.8444
11
109.921
21
-54.3459
0
LINE
8
BLACK
6
CONTINUOUS
10
120.55
20
-70.7136
11
107.052
21
-67.8444
0
LINE
8
BLACK
6
CONTINUOUS
10
123.419
20
-57.2151
11
120.55
21
-70.7136
0
LINE
8
BLACK
6
CONTINUOUS
10
109.921
20
-54.3459
11
123.419
21
-57.2151
0
LINE
8
BLACK
6
CONTINUOUS
10
148.097
20
-32.1912
11
145.228
21
-18.6928
0
LINE
8
BLACK
6
CONTINUOUS
10
161.596
20
-29.322
11
148.097
21
-32.1912
0
LINE
8
BLACK
6
CONTINUOUS
10
158.726
20
-15.8236
11
161.596
21
-29.322
0
LINE
8
BLACK
6
CONTINUOUS
10
145.228
20
-18.6928
11
158.726
21
-15.8236
0
LINE
8
BLACK
6
CONTINUOUS
10
24.5312
20
-35.95
11
24.5312
21
-22.15
0
LINE
8
BLACK
6
CONTINUOUS
10
38.3312
20
-35.95
11
24.5312
21
-35.95
0
LINE
8
BLACK
6
CONTINUOUS
10
38.3312
20
-22.15
11
38.3312
21
-35.95
0
LINE
8
BLACK
6
CONTINUOUS
10
24.5312
20
-22.15
11
38.3312
21
-22.15
0
LINE
8
BLACK
6
CONTINUOUS
10
45.0967
20
-15.7243
11
47.9659
21
-2.22583
0
LINE
8
BLACK
6
CONTINUOUS
10
58.5952
20
-18.5934
11
45.0967
21
-15.7243
0
LINE
8
BLACK
6
CONTINUOUS
10
61.4644
20
-5.09501
11
58.5952
21
-18.5934
0
LINE
8
BLACK
6
CONTINUOUS
10
47.9659
20
-2.22583
11
61.4644
21
-5.09501
0
LINE
8
BLACK
6
CONTINUOUS
10
188.628
20
-62.5274
11
185.758
21
-49.029
0
LINE
8
BLACK
6
CONTINUOUS
10
202.126
20
-59.6582
11
188.628
21
-62.5274
0
LINE
8
BLACK
6
CONTINUOUS
10
199.257
20
-46.1598
11
202.126
21
-59.6582
0
LINE
8
BLACK
6
CONTINUOUS
10
185.758
20
-49.029
11
199.257
21
-46.1598
0
LINE
8
BLACK
6
CONTINUOUS
10
51.1506
20
-55.9622
11
54.0198
21
-42.4638
0
LINE
8
BLACK
6
CONTINUOUS
10
64.649
20
-58.8314
11
51.1506
21
-55.9622
0
LINE
8
BLACK
6
CONTINUOUS
10
67.5182
20
-45.333
11
64.649
21
-58.8314
0
LINE
8
BLACK
6
CONTINUOUS
10
54.0198
20
-42.4638
11
67.5182
21
-45.333
0
LINE
8
BLACK
6
CONTINUOUS
10
203.998
20
-20.3091
11
201.129
21
-6.81064
0
LINE
8
BLACK
6
CONTINUOUS
10
217.497
20
-17.4399
11
203.998
21
-20.3091
0
LINE
8
BLACK
6
CONTINUOUS
10
214.627
20
-3.94146
11
217.497
21
-17.4399
0
LINE
8
BLACK
6
CONTINUOUS
10
201.129
20
-6.81064
11
214.627
21
-3.94146
0
LINE
8
BLACK
6
CONTINUOUS
10
193.984
20
-41.9133
11
191.114
21
-28.4149
0
LINE
8
BLACK
6
CONTINUOUS
10
207.482
20
-39.0441
11
193.984
21
-41.9133
0
LINE
8
BLACK
6
CONTINUOUS
10
204.613
20
-25.5457
11
207.482
21
-39.0441
0
LINE
8
BLACK
6
CONTINUOUS
10
191.114
20
-28.4149
11
204.613
21
-25.5457
0
LINE
8
BLACK
6
CONTINUOUS
10
64.4282
20
-39.3089
11
67.2973
21
-25.8104
0
LINE
8
BLACK
6
CONTINUOUS
10
77.9266
20
-42.1781
11
64.4282
21
-39.3089
0
LINE
8
BLACK
6
CONTINUOUS
10
80.7958
20
-28.6796
11
77.9266
21
-42.1781
0
LINE
8
BLACK
6
CONTINUOUS
10
67.2973
20
-25.8104
11
80.7958
21
-28.6796
0
LINE
8
BLACK
6
CONTINUOUS
10
45.7945
20
-35.3482
11
48.6636
21
-21.8497
0
LINE
8
BLACK
6
CONTINUOUS
10
59.2929
20
-38.2173
11
45.7945
21
-35.3482
0
LINE
8
BLACK
6
CONTINUOUS
10
62.1621
20
-24.7189
11
59.2929
21
-38.2173
0
LINE
8
BLACK
6
CONTINUOUS
10
48.6636
20
-21.8497
11
62.1621
21
-24.7189
0
LINE
8
BLACK
6
CONTINUOUS
10
226.43
20
-15.63
11
226.43
21
-1.83
0
LINE
8
BLACK
6
CONTINUOUS
10
240.23
20
-15.63
11
226.43
21
-15.63
0
LINE
8
BLACK
6
CONTINUOUS
10
240.23
20
-1.83
11
240.23
21
-15.63
0
LINE
8
BLACK
6
CONTINUOUS
10
226.43
20
-1.83
11
240.23
21
-1.83
0
LINE
8
BLACK
6
CONTINUOUS
10
31.675
20
-55
11
31.675
21
-41.2
0
LINE
8
BLACK
6
CONTINUOUS
10
45.475
20
-55
11
31.675
21
-55
0
LINE
8
BLACK
6
CONTINUOUS
10
45.475
20
-41.2
11
45.475
21
-55
0
LINE
8
BLACK
6
CONTINUOUS
10
31.675
20
-41.2
11
45.475
21
-41.2
0
LINE
8
BLACK
6
CONTINUOUS
10
166.731
20
-28.2305
11
163.862
21
-14.7321
0
LINE
8
BLACK
6
CONTINUOUS
10
180.229
20
-25.3613
11
166.731
21
-28.2305
0
LINE
8
BLACK
6
CONTINUOUS
10
177.36
20
-11.8629
11
180.229
21
-25.3613
0
LINE
8
BLACK
6
CONTINUOUS
10
163.862
20
-14.7321
11
177.36
21
-11.8629
0
LINE
8
BLACK
6
CONTINUOUS
10
226.43
20
-55
11
226.43
21
-41.2
0
LINE
8
BLACK
6
CONTINUOUS
10
240.23
20
-55
11
226.43
21
-55
0
LINE
8
BLACK
6
CONTINUOUS
10
240.23
20
-41.2
11
240.23
21
-55
0
LINE
8
BLACK
6
CONTINUOUS
10
226.43
20
-41.2
11
240.23
21
-41.2
0
LINE
8
BLACK
6
CONTINUOUS
10
151.36
20
-70.4488
11
148.491
21
-56.9504
0
LINE
8
BLACK
6
CONTINUOUS
10
164.859
20
-67.5797
11
151.36
21
-70.4488
0
LINE
8
BLACK
6
CONTINUOUS
10
161.989
20
-54.0812
11
164.859
21
-67.5797
0
LINE
8
BLACK
6
CONTINUOUS
10
148.491
20
-56.9504
11
161.989
21
-54.0812
0
LINE
8
BLACK
6
CONTINUOUS
10
207.261
20
-58.5667
11
204.392
21
-45.0682
0
LINE
8
BLACK
6
CONTINUOUS
10
220.76
20
-55.6975
11
207.261
21
-58.5667
0
LINE
8
BLACK
6
CONTINUOUS
10
217.89
20
-42.1991
11
220.76
21
-55.6975
0
LINE
8
BLACK
6
CONTINUOUS
10
204.392
20
-45.0682
11
217.89
21
-42.1991
0
LINE
8
BLACK
6
CONTINUOUS
10
212.617
20
-37.9526
11
209.748
21
-24.4542
0
LINE
8
BLACK
6
CONTINUOUS
10
226.116
20
-35.0834
11
212.617
21
-37.9526
0
LINE
8
BLACK
6
CONTINUOUS
10
223.247
20
-21.585
11
226.116
21
-35.0834
0
LINE
8
BLACK
6
CONTINUOUS
10
209.748
20
-24.4542
11
223.247
21
-21.585
0
LINE
8
BLACK
6
CONTINUOUS
10
245.48
20
-16.9
11
245.48
21
-3.1
0
LINE
8
BLACK
6
CONTINUOUS
10
259.28
20
-16.9
11
245.48
21
-16.9
0
LINE
8
BLACK
6
CONTINUOUS
10
259.28
20
-3.1
11
259.28
21
-16.9
0
LINE
8
BLACK
6
CONTINUOUS
10
245.48
20
-3.1
11
259.28
21
-3.1
0
LINE
8
BLACK
6
CONTINUOUS
10
101.696
20
-47.2303
11
104.565
21
-33.7319
0
LINE
8
BLACK
6
CONTINUOUS
10
115.194
20
-50.0995
11
101.696
21
-47.2303
0
LINE
8
BLACK
6
CONTINUOUS
10
118.063
20
-36.6011
11
115.194
21
-50.0995
0
LINE
8
BLACK
6
CONTINUOUS
10
104.565
20
-33.7319
11
118.063
21
-36.6011
0
LINE
8
BLACK
6
CONTINUOUS
10
51.8483
20
-75.5861
11
54.7175
21
-62.0877
0
LINE
8
BLACK
6
CONTINUOUS
10
65.3467
20
-78.4553
11
51.8483
21
-75.5861
0
LINE
8
BLACK
6
CONTINUOUS
10
68.2159
20
-64.9569
11
65.3467
21
-78.4553
0
LINE
8
BLACK
6
CONTINUOUS
10
54.7175
20
-62.0877
11
68.2159
21
-64.9569
0
LINE
8
BLACK
6
CONTINUOUS
10
175.35
20
-45.874
11
172.481
21
-32.3756
0
LINE
8
BLACK
6
CONTINUOUS
10
188.848
20
-43.0049
11
175.35
21
-45.874
0
LINE
8
BLACK
6
CONTINUOUS
10
185.979
20
-29.5064
11
188.848
21
-43.0049
0
LINE
8
BLACK
6
CONTINUOUS
10
172.481
20
-32.3756
11
185.979
21
-29.5064
0
LINE
8
BLACK
6
CONTINUOUS
10
82.3642
20
-23.6457
11
85.2333
21
-10.1473
0
LINE
8
BLACK
6
CONTINUOUS
10
95.8626
20
-26.5149
11
82.3642
21
-23.6457
0
LINE
8
BLACK
6
CONTINUOUS
10
98.7318
20
-13.0164
11
95.8626
21
-26.5149
0
LINE
8
BLACK
6
CONTINUOUS
10
85.2333
20
-10.1473
11
98.7318
21
-13.0164
0
LINE
8
BLACK
6
CONTINUOUS
10
70.482
20
-79.5468
11
73.3512
21
-66.0484
0
LINE
8
BLACK
6
CONTINUOUS
10
83.9804
20
-82.416
11
70.482
21
-79.5468
0
LINE
8
BLACK
6
CONTINUOUS
10
86.8496
20
-68.9176
11
83.9804
21
-82.416
0
LINE
8
BLACK
6
CONTINUOUS
10
73.3512
20
-66.0484
11
86.8496
21
-68.9176
0
LINE
8
BLACK
6
CONTINUOUS
10
89.1157
20
-83.5076
11
91.9849
21
-70.0091
0
LINE
8
BLACK
6
CONTINUOUS
10
102.614
20
-86.3767
11
89.1157
21
-83.5076
0
LINE
8
BLACK
6
CONTINUOUS
10
105.483
20
-72.8783
11
102.614
21
-86.3767
0
LINE
8
BLACK
6
CONTINUOUS
10
91.9849
20
-70.0091
11
105.483
21
-72.8783
0
LINE
8
BLACK
6
CONTINUOUS
10
169.994
20
-66.4881
11
167.125
21
-52.9897
0
LINE
8
BLACK
6
CONTINUOUS
10
183.492
20
-63.6189
11
169.994
21
-66.4881
0
LINE
8
BLACK
6
CONTINUOUS
10
180.623
20
-50.1205
11
183.492
21
-63.6189
0
LINE
8
BLACK
6
CONTINUOUS
10
167.125
20
-52.9897
11
180.623
21
-50.1205
0
LINE
8
BLACK
6
CONTINUOUS
10
3.1
20
-16.9
11
3.1
21
-3.1
0
LINE
8
BLACK
6
CONTINUOUS
10
16.9
20
-16.9
11
3.1
21
-16.9
0
LINE
8
BLACK
6
CONTINUOUS
10
16.9
20
-3.1
11
16.9
21
-16.9
0
LINE
8
BLACK
6
CONTINUOUS
10
3.1
20
-3.1
11
16.9
21
-3.1
0
LINE
8
BLACK
6
CONTINUOUS
10
107.749
20
-87.4683
11
110.619
21
-73.9698
0
LINE
8
BLACK
6
CONTINUOUS
10
121.248
20
-90.3375
11
107.749
21
-87.4683
0
LINE
8
BLACK
6
CONTINUOUS
10
124.117
20
-76.839
11
121.248
21
-90.3375
0
LINE
8
BLACK
6
CONTINUOUS
10
110.619
20
-73.9698
11
124.117
21
-76.839
  0
ENDSEC
  0
EOF
