  0
SECTION
  2
BLOCKS
  0
ENDSEC
  0
SECTION
  2
ENTITIES
  0
LINE
  8
0
 10
151.138
 20
-104.955
 11
227.728
 21
-88.6572
  0
LINE
  8
0
 10
227.728
 20
-88.6572
 11
262.89
 21
-88.6572
  0
LINE
  8
0
 10
262.89
 20
-88.6572
 11
265.385
 21
-88.395
  0
LINE
  8
0
 10
265.385
 20
-88.395
 11
267.77
 21
-87.6198
  0
LINE
  8
0
 10
267.77
 20
-87.6198
 11
269.943
 21
-86.3654
  0
LINE
  8
0
 10
269.943
 20
-86.3654
 11
271.807
 21
-84.6868
  0
LINE
  8
0
 10
271.807
 20
-84.6868
 11
273.282
 21
-82.6572
  0
LINE
  8
0
 10
273.282
 20
-82.6572
 11
274.302
 21
-80.3654
  0
LINE
  8
0
 10
274.302
 20
-80.3654
 11
274.89
 21
-76.6572
  0
LINE
  8
0
 10
274.89
 20
-76.6572
 11
274.89
 21
-0.457031
  0
LINE
  8
0
 10
274.89
 20
-0.457031
 11
274.627
 21
2.0379
  0
LINE
  8
0
 10
274.627
 20
2.0379
 11
273.852
 21
4.42381
  0
LINE
  8
0
 10
273.852
 20
4.42381
 11
272.598
 21
6.59639
  0
LINE
  8
0
 10
272.598
 20
6.59639
 11
270.919
 21
8.46071
  0
LINE
  8
0
 10
270.919
 20
8.46071
 11
268.89
 21
9.93527
  0
LINE
  8
0
 10
268.89
 20
9.93527
 11
266.598
 21
10.9556
  0
LINE
  8
0
 10
266.598
 20
10.9556
 11
262.89
 21
11.543
  0
LINE
  8
0
 10
262.89
 20
11.543
 11
148
 21
11.543
  0
LINE
  8
0
 10
148
 20
11.543
 11
148
 21
-12
  0
LINE
  8
0
 10
148
 20
-12
 11
142
 21
-12
  0
LINE
  8
0
 10
142
 20
-12
 11
142
 21
-32
  0
LINE
  8
0
 10
142
 20
-32
 11
120
 21
-32
  0
LINE
  8
0
 10
120
 20
-32
 11
120
 21
11.543
  0
LINE
  8
0
 10
120
 20
11.543
 11
-4.36914
 21
11.543
  0
LINE
  8
0
 10
-4.36914
 20
11.543
 11
-6.86407
 21
11.2807
  0
LINE
  8
0
 10
-6.86407
 20
11.2807
 11
-9.24998
 21
10.5055
  0
LINE
  8
0
 10
-9.24998
 20
10.5055
 11
-11.4226
 21
9.25117
  0
LINE
  8
0
 10
-11.4226
 20
9.25117
 11
-13.2869
 21
7.57254
  0
LINE
  8
0
 10
-13.2869
 20
7.57254
 11
-14.7614
 21
5.54297
  0
LINE
  8
0
 10
-14.7614
 20
5.54297
 11
-15.7818
 21
3.25117
  0
LINE
  8
0
 10
-15.7818
 20
3.25117
 11
-16.3691
 21
-0.457031
  0
LINE
  8
0
 10
-16.3691
 20
-0.457031
 11
-16.3691
 21
-76.6572
  0
LINE
  8
0
 10
-16.3691
 20
-76.6572
 11
-16.1069
 21
-79.1522
  0
LINE
  8
0
 10
-16.1069
 20
-79.1522
 11
-15.3317
 21
-81.5381
  0
LINE
  8
0
 10
-15.3317
 20
-81.5381
 11
-14.0773
 21
-83.7106
  0
LINE
  8
0
 10
-14.0773
 20
-83.7106
 11
-12.3987
 21
-85.575
  0
LINE
  8
0
 10
-12.3987
 20
-85.575
 11
-10.3691
 21
-87.0495
  0
LINE
  8
0
 10
-10.3691
 20
-87.0495
 11
-8.07735
 21
-88.0699
  0
LINE
  8
0
 10
-8.07735
 20
-88.0699
 11
-4.36914
 21
-88.6572
  0
LINE
  8
0
 10
-4.36914
 20
-88.6572
 11
43.2335
 21
-88.6572
  0
LINE
  8
0
 10
43.2335
 20
-88.6572
 11
119.516
 21
-104.953
  0
LINE
  8
0
 10
119.516
 20
-104.953
 11
122.022
 21
-105.218
  0
LINE
  8
0
 10
122.022
 20
-105.218
 11
148.641
 21
-105.218
  0
LINE
  8
0
 10
148.641
 20
-105.218
 11
151.138
 21
-104.955
  0
LINE
  8
0
 10
-8.2446
 20
5.23639
 11
-8.55124
 21
5.39264
  0
LINE
  8
0
 10
-8.55124
 20
5.39264
 11
-8.79459
 21
5.63599
  0
LINE
  8
0
 10
-8.79459
 20
5.63599
 11
-8.95084
 21
5.94263
  0
LINE
  8
0
 10
-8.95084
 20
5.94263
 11
-9.00467
 21
6.28255
  0
LINE
  8
0
 10
-9.00467
 20
6.28255
 11
-8.95084
 21
6.62247
  0
LINE
  8
0
 10
-8.95084
 20
6.62247
 11
-8.79459
 21
6.92912
  0
LINE
  8
0
 10
-8.79459
 20
6.92912
 11
-8.55124
 21
7.17247
  0
LINE
  8
0
 10
-8.55124
 20
7.17247
 11
-8.2446
 21
7.32872
  0
LINE
  8
0
 10
-8.2446
 20
7.32872
 11
-7.90468
 21
7.38255
  0
LINE
  8
0
 10
-7.90468
 20
7.38255
 11
-7.56476
 21
7.32872
  0
LINE
  8
0
 10
-7.56476
 20
7.32872
 11
-7.2581
 21
7.17247
  0
LINE
  8
0
 10
-7.2581
 20
7.17247
 11
-7.01476
 21
6.92912
  0
LINE
  8
0
 10
-7.01476
 20
6.92912
 11
-6.85851
 21
6.62247
  0
LINE
  8
0
 10
-6.85851
 20
6.62247
 11
-6.80467
 21
6.28255
  0
LINE
  8
0
 10
-6.80467
 20
6.28255
 11
-6.85851
 21
5.94263
  0
LINE
  8
0
 10
-6.85851
 20
5.94263
 11
-7.01476
 21
5.63599
  0
LINE
  8
0
 10
-7.01476
 20
5.63599
 11
-7.2581
 21
5.39264
  0
LINE
  8
0
 10
-7.2581
 20
5.39264
 11
-7.56476
 21
5.23639
  0
LINE
  8
0
 10
-7.56476
 20
5.23639
 11
-7.90468
 21
5.18256
  0
LINE
  8
0
 10
-7.90468
 20
5.18256
 11
-8.2446
 21
5.23639
  0
LINE
  8
0
 10
73.5648
 20
5.23639
 11
73.2581
 21
5.39264
  0
LINE
  8
0
 10
73.2581
 20
5.39264
 11
73.0148
 21
5.63599
  0
LINE
  8
0
 10
73.0148
 20
5.63599
 11
72.8585
 21
5.94263
  0
LINE
  8
0
 10
72.8585
 20
5.94263
 11
72.8047
 21
6.28255
  0
LINE
  8
0
 10
72.8047
 20
6.28255
 11
72.8585
 21
6.62247
  0
LINE
  8
0
 10
72.8585
 20
6.62247
 11
73.0148
 21
6.92912
  0
LINE
  8
0
 10
73.0148
 20
6.92912
 11
73.2581
 21
7.17247
  0
LINE
  8
0
 10
73.2581
 20
7.17247
 11
73.5648
 21
7.32872
  0
LINE
  8
0
 10
73.5648
 20
7.32872
 11
73.9047
 21
7.38255
  0
LINE
  8
0
 10
73.9047
 20
7.38255
 11
74.2446
 21
7.32872
  0
LINE
  8
0
 10
74.2446
 20
7.32872
 11
74.5512
 21
7.17247
  0
LINE
  8
0
 10
74.5512
 20
7.17247
 11
74.7946
 21
6.92912
  0
LINE
  8
0
 10
74.7946
 20
6.92912
 11
74.9508
 21
6.62247
  0
LINE
  8
0
 10
74.9508
 20
6.62247
 11
75.0047
 21
6.28255
  0
LINE
  8
0
 10
75.0047
 20
6.28255
 11
74.9508
 21
5.94263
  0
LINE
  8
0
 10
74.9508
 20
5.94263
 11
74.7946
 21
5.63599
  0
LINE
  8
0
 10
74.7946
 20
5.63599
 11
74.5512
 21
5.39264
  0
LINE
  8
0
 10
74.5512
 20
5.39264
 11
74.2446
 21
5.23639
  0
LINE
  8
0
 10
74.2446
 20
5.23639
 11
73.9047
 21
5.18256
  0
LINE
  8
0
 10
73.9047
 20
5.18256
 11
73.5648
 21
5.23639
  0
LINE
  8
0
 10
186.085
 20
5.23639
 11
185.778
 21
5.39264
  0
LINE
  8
0
 10
185.778
 20
5.39264
 11
185.535
 21
5.63599
  0
LINE
  8
0
 10
185.535
 20
5.63599
 11
185.379
 21
5.94263
  0
LINE
  8
0
 10
185.379
 20
5.94263
 11
185.325
 21
6.28255
  0
LINE
  8
0
 10
185.325
 20
6.28255
 11
185.379
 21
6.62247
  0
LINE
  8
0
 10
185.379
 20
6.62247
 11
185.535
 21
6.92912
  0
LINE
  8
0
 10
185.535
 20
6.92912
 11
185.778
 21
7.17247
  0
LINE
  8
0
 10
185.778
 20
7.17247
 11
186.085
 21
7.32872
  0
LINE
  8
0
 10
186.085
 20
7.32872
 11
186.425
 21
7.38255
  0
LINE
  8
0
 10
186.425
 20
7.38255
 11
186.765
 21
7.32872
  0
LINE
  8
0
 10
186.765
 20
7.32872
 11
187.072
 21
7.17247
  0
LINE
  8
0
 10
187.072
 20
7.17247
 11
187.315
 21
6.92912
  0
LINE
  8
0
 10
187.315
 20
6.92912
 11
187.471
 21
6.62247
  0
LINE
  8
0
 10
187.471
 20
6.62247
 11
187.525
 21
6.28255
  0
LINE
  8
0
 10
187.525
 20
6.28255
 11
187.471
 21
5.94263
  0
LINE
  8
0
 10
187.471
 20
5.94263
 11
187.315
 21
5.63599
  0
LINE
  8
0
 10
187.315
 20
5.63599
 11
187.072
 21
5.39264
  0
LINE
  8
0
 10
187.072
 20
5.39264
 11
186.765
 21
5.23639
  0
LINE
  8
0
 10
186.765
 20
5.23639
 11
186.425
 21
5.18256
  0
LINE
  8
0
 10
186.425
 20
5.18256
 11
186.085
 21
5.23639
  0
LINE
  8
0
 10
266.085
 20
5.23639
 11
265.778
 21
5.39264
  0
LINE
  8
0
 10
265.778
 20
5.39264
 11
265.535
 21
5.63599
  0
LINE
  8
0
 10
265.535
 20
5.63599
 11
265.379
 21
5.94263
  0
LINE
  8
0
 10
265.379
 20
5.94263
 11
265.325
 21
6.28255
  0
LINE
  8
0
 10
265.325
 20
6.28255
 11
265.379
 21
6.62247
  0
LINE
  8
0
 10
265.379
 20
6.62247
 11
265.535
 21
6.92912
  0
LINE
  8
0
 10
265.535
 20
6.92912
 11
265.778
 21
7.17247
  0
LINE
  8
0
 10
265.778
 20
7.17247
 11
266.085
 21
7.32872
  0
LINE
  8
0
 10
266.085
 20
7.32872
 11
266.425
 21
7.38255
  0
LINE
  8
0
 10
266.425
 20
7.38255
 11
266.765
 21
7.32872
  0
LINE
  8
0
 10
266.765
 20
7.32872
 11
267.072
 21
7.17247
  0
LINE
  8
0
 10
267.072
 20
7.17247
 11
267.315
 21
6.92912
  0
LINE
  8
0
 10
267.315
 20
6.92912
 11
267.471
 21
6.62247
  0
LINE
  8
0
 10
267.471
 20
6.62247
 11
267.525
 21
6.28255
  0
LINE
  8
0
 10
267.525
 20
6.28255
 11
267.471
 21
5.94263
  0
LINE
  8
0
 10
267.471
 20
5.94263
 11
267.315
 21
5.63599
  0
LINE
  8
0
 10
267.315
 20
5.63599
 11
267.072
 21
5.39264
  0
LINE
  8
0
 10
267.072
 20
5.39264
 11
266.765
 21
5.23639
  0
LINE
  8
0
 10
266.765
 20
5.23639
 11
266.425
 21
5.18256
  0
LINE
  8
0
 10
266.425
 20
5.18256
 11
266.085
 21
5.23639
  0
LINE
  8
0
 10
-12.2446
 20
-39.3287
 11
-12.5512
 21
-39.1725
  0
LINE
  8
0
 10
-12.5512
 20
-39.1725
 11
-12.7946
 21
-38.9291
  0
LINE
  8
0
 10
-12.7946
 20
-38.9291
 11
-12.9508
 21
-38.6225
  0
LINE
  8
0
 10
-12.9508
 20
-38.6225
 11
-13.0047
 21
-38.2825
  0
LINE
  8
0
 10
-13.0047
 20
-38.2825
 11
-12.9508
 21
-37.9426
  0
LINE
  8
0
 10
-12.9508
 20
-37.9426
 11
-12.7946
 21
-37.636
  0
LINE
  8
0
 10
-12.7946
 20
-37.636
 11
-12.5512
 21
-37.3926
  0
LINE
  8
0
 10
-12.5512
 20
-37.3926
 11
-12.2446
 21
-37.2364
  0
LINE
  8
0
 10
-12.2446
 20
-37.2364
 11
-11.9047
 21
-37.1826
  0
LINE
  8
0
 10
-11.9047
 20
-37.1826
 11
-11.5648
 21
-37.2364
  0
LINE
  8
0
 10
-11.5648
 20
-37.2364
 11
-11.2581
 21
-37.3926
  0
LINE
  8
0
 10
-11.2581
 20
-37.3926
 11
-11.0148
 21
-37.636
  0
LINE
  8
0
 10
-11.0148
 20
-37.636
 11
-10.8585
 21
-37.9426
  0
LINE
  8
0
 10
-10.8585
 20
-37.9426
 11
-10.8047
 21
-38.2825
  0
LINE
  8
0
 10
-10.8047
 20
-38.2825
 11
-10.8585
 21
-38.6225
  0
LINE
  8
0
 10
-10.8585
 20
-38.6225
 11
-11.0148
 21
-38.9291
  0
LINE
  8
0
 10
-11.0148
 20
-38.9291
 11
-11.2581
 21
-39.1725
  0
LINE
  8
0
 10
-11.2581
 20
-39.1725
 11
-11.5648
 21
-39.3287
  0
LINE
  8
0
 10
-11.5648
 20
-39.3287
 11
-11.9047
 21
-39.3826
  0
LINE
  8
0
 10
-11.9047
 20
-39.3826
 11
-12.2446
 21
-39.3287
  0
LINE
  8
0
 10
270.085
 20
-39.3287
 11
269.778
 21
-39.1725
  0
LINE
  8
0
 10
269.778
 20
-39.1725
 11
269.535
 21
-38.9291
  0
LINE
  8
0
 10
269.535
 20
-38.9291
 11
269.379
 21
-38.6225
  0
LINE
  8
0
 10
269.379
 20
-38.6225
 11
269.325
 21
-38.2825
  0
LINE
  8
0
 10
269.325
 20
-38.2825
 11
269.379
 21
-37.9426
  0
LINE
  8
0
 10
269.379
 20
-37.9426
 11
269.535
 21
-37.636
  0
LINE
  8
0
 10
269.535
 20
-37.636
 11
269.778
 21
-37.3926
  0
LINE
  8
0
 10
269.778
 20
-37.3926
 11
270.085
 21
-37.2364
  0
LINE
  8
0
 10
270.085
 20
-37.2364
 11
270.425
 21
-37.1826
  0
LINE
  8
0
 10
270.425
 20
-37.1826
 11
270.765
 21
-37.2364
  0
LINE
  8
0
 10
270.765
 20
-37.2364
 11
271.072
 21
-37.3926
  0
LINE
  8
0
 10
271.072
 20
-37.3926
 11
271.315
 21
-37.636
  0
LINE
  8
0
 10
271.315
 20
-37.636
 11
271.471
 21
-37.9426
  0
LINE
  8
0
 10
271.471
 20
-37.9426
 11
271.525
 21
-38.2825
  0
LINE
  8
0
 10
271.525
 20
-38.2825
 11
271.471
 21
-38.6225
  0
LINE
  8
0
 10
271.471
 20
-38.6225
 11
271.315
 21
-38.9291
  0
LINE
  8
0
 10
271.315
 20
-38.9291
 11
271.072
 21
-39.1725
  0
LINE
  8
0
 10
271.072
 20
-39.1725
 11
270.765
 21
-39.3287
  0
LINE
  8
0
 10
270.765
 20
-39.3287
 11
270.425
 21
-39.3826
  0
LINE
  8
0
 10
270.425
 20
-39.3826
 11
270.085
 21
-39.3287
  0
LINE
  8
0
 10
-8.2446
 20
-82.3287
 11
-8.55124
 21
-82.1725
  0
LINE
  8
0
 10
-8.55124
 20
-82.1725
 11
-8.79459
 21
-81.9291
  0
LINE
  8
0
 10
-8.79459
 20
-81.9291
 11
-8.95084
 21
-81.6225
  0
LINE
  8
0
 10
-8.95084
 20
-81.6225
 11
-9.00467
 21
-81.2825
  0
LINE
  8
0
 10
-9.00467
 20
-81.2825
 11
-8.95084
 21
-80.9426
  0
LINE
  8
0
 10
-8.95084
 20
-80.9426
 11
-8.79459
 21
-80.636
  0
LINE
  8
0
 10
-8.79459
 20
-80.636
 11
-8.55124
 21
-80.3926
  0
LINE
  8
0
 10
-8.55124
 20
-80.3926
 11
-8.2446
 21
-80.2364
  0
LINE
  8
0
 10
-8.2446
 20
-80.2364
 11
-7.90468
 21
-80.1826
  0
LINE
  8
0
 10
-7.90468
 20
-80.1826
 11
-7.56476
 21
-80.2364
  0
LINE
  8
0
 10
-7.56476
 20
-80.2364
 11
-7.2581
 21
-80.3926
  0
LINE
  8
0
 10
-7.2581
 20
-80.3926
 11
-7.01476
 21
-80.636
  0
LINE
  8
0
 10
-7.01476
 20
-80.636
 11
-6.85851
 21
-80.9426
  0
LINE
  8
0
 10
-6.85851
 20
-80.9426
 11
-6.80467
 21
-81.2825
  0
LINE
  8
0
 10
-6.80467
 20
-81.2825
 11
-6.85851
 21
-81.6225
  0
LINE
  8
0
 10
-6.85851
 20
-81.6225
 11
-7.01476
 21
-81.9291
  0
LINE
  8
0
 10
-7.01476
 20
-81.9291
 11
-7.2581
 21
-82.1725
  0
LINE
  8
0
 10
-7.2581
 20
-82.1725
 11
-7.56476
 21
-82.3287
  0
LINE
  8
0
 10
-7.56476
 20
-82.3287
 11
-7.90468
 21
-82.3826
  0
LINE
  8
0
 10
-7.90468
 20
-82.3826
 11
-8.2446
 21
-82.3287
  0
LINE
  8
0
 10
266.085
 20
-82.3287
 11
265.778
 21
-82.1725
  0
LINE
  8
0
 10
265.778
 20
-82.1725
 11
265.535
 21
-81.9291
  0
LINE
  8
0
 10
265.535
 20
-81.9291
 11
265.379
 21
-81.6225
  0
LINE
  8
0
 10
265.379
 20
-81.6225
 11
265.325
 21
-81.2825
  0
LINE
  8
0
 10
265.325
 20
-81.2825
 11
265.379
 21
-80.9426
  0
LINE
  8
0
 10
265.379
 20
-80.9426
 11
265.535
 21
-80.636
  0
LINE
  8
0
 10
265.535
 20
-80.636
 11
265.778
 21
-80.3926
  0
LINE
  8
0
 10
265.778
 20
-80.3926
 11
266.085
 21
-80.2364
  0
LINE
  8
0
 10
266.085
 20
-80.2364
 11
266.425
 21
-80.1826
  0
LINE
  8
0
 10
266.425
 20
-80.1826
 11
266.765
 21
-80.2364
  0
LINE
  8
0
 10
266.765
 20
-80.2364
 11
267.072
 21
-80.3926
  0
LINE
  8
0
 10
267.072
 20
-80.3926
 11
267.315
 21
-80.636
  0
LINE
  8
0
 10
267.315
 20
-80.636
 11
267.471
 21
-80.9426
  0
LINE
  8
0
 10
267.471
 20
-80.9426
 11
267.525
 21
-81.2825
  0
LINE
  8
0
 10
267.525
 20
-81.2825
 11
267.471
 21
-81.6225
  0
LINE
  8
0
 10
267.471
 20
-81.6225
 11
267.315
 21
-81.9291
  0
LINE
  8
0
 10
267.315
 20
-81.9291
 11
267.072
 21
-82.1725
  0
LINE
  8
0
 10
267.072
 20
-82.1725
 11
266.765
 21
-82.3287
  0
LINE
  8
0
 10
266.765
 20
-82.3287
 11
266.425
 21
-82.3826
  0
LINE
  8
0
 10
266.425
 20
-82.3826
 11
266.085
 21
-82.3287
  0
LINE
  8
0
 10
43.5648
 20
-82.3287
 11
43.2581
 21
-82.1725
  0
LINE
  8
0
 10
43.2581
 20
-82.1725
 11
43.0148
 21
-81.9291
  0
LINE
  8
0
 10
43.0148
 20
-81.9291
 11
42.8585
 21
-81.6225
  0
LINE
  8
0
 10
42.8585
 20
-81.6225
 11
42.8047
 21
-81.2825
  0
LINE
  8
0
 10
42.8047
 20
-81.2825
 11
42.8585
 21
-80.9426
  0
LINE
  8
0
 10
42.8585
 20
-80.9426
 11
43.0148
 21
-80.636
  0
LINE
  8
0
 10
43.0148
 20
-80.636
 11
43.2581
 21
-80.3926
  0
LINE
  8
0
 10
43.2581
 20
-80.3926
 11
43.5648
 21
-80.2364
  0
LINE
  8
0
 10
43.5648
 20
-80.2364
 11
43.9047
 21
-80.1826
  0
LINE
  8
0
 10
43.9047
 20
-80.1826
 11
44.2446
 21
-80.2364
  0
LINE
  8
0
 10
44.2446
 20
-80.2364
 11
44.5512
 21
-80.3926
  0
LINE
  8
0
 10
44.5512
 20
-80.3926
 11
44.7946
 21
-80.636
  0
LINE
  8
0
 10
44.7946
 20
-80.636
 11
44.9508
 21
-80.9426
  0
LINE
  8
0
 10
44.9508
 20
-80.9426
 11
45.0047
 21
-81.2825
  0
LINE
  8
0
 10
45.0047
 20
-81.2825
 11
44.9508
 21
-81.6225
  0
LINE
  8
0
 10
44.9508
 20
-81.6225
 11
44.7946
 21
-81.9291
  0
LINE
  8
0
 10
44.7946
 20
-81.9291
 11
44.5512
 21
-82.1725
  0
LINE
  8
0
 10
44.5512
 20
-82.1725
 11
44.2446
 21
-82.3287
  0
LINE
  8
0
 10
44.2446
 20
-82.3287
 11
43.9047
 21
-82.3826
  0
LINE
  8
0
 10
43.9047
 20
-82.3826
 11
43.5648
 21
-82.3287
  0
LINE
  8
0
 10
228.085
 20
-82.3287
 11
227.778
 21
-82.1725
  0
LINE
  8
0
 10
227.778
 20
-82.1725
 11
227.535
 21
-81.9291
  0
LINE
  8
0
 10
227.535
 20
-81.9291
 11
227.379
 21
-81.6225
  0
LINE
  8
0
 10
227.379
 20
-81.6225
 11
227.325
 21
-81.2825
  0
LINE
  8
0
 10
227.325
 20
-81.2825
 11
227.379
 21
-80.9426
  0
LINE
  8
0
 10
227.379
 20
-80.9426
 11
227.535
 21
-80.636
  0
LINE
  8
0
 10
227.535
 20
-80.636
 11
227.778
 21
-80.3926
  0
LINE
  8
0
 10
227.778
 20
-80.3926
 11
228.085
 21
-80.2364
  0
LINE
  8
0
 10
228.085
 20
-80.2364
 11
228.425
 21
-80.1826
  0
LINE
  8
0
 10
228.425
 20
-80.1826
 11
228.765
 21
-80.2364
  0
LINE
  8
0
 10
228.765
 20
-80.2364
 11
229.072
 21
-80.3926
  0
LINE
  8
0
 10
229.072
 20
-80.3926
 11
229.315
 21
-80.636
  0
LINE
  8
0
 10
229.315
 20
-80.636
 11
229.471
 21
-80.9426
  0
LINE
  8
0
 10
229.471
 20
-80.9426
 11
229.525
 21
-81.2825
  0
LINE
  8
0
 10
229.525
 20
-81.2825
 11
229.471
 21
-81.6225
  0
LINE
  8
0
 10
229.471
 20
-81.6225
 11
229.315
 21
-81.9291
  0
LINE
  8
0
 10
229.315
 20
-81.9291
 11
229.072
 21
-82.1725
  0
LINE
  8
0
 10
229.072
 20
-82.1725
 11
228.765
 21
-82.3287
  0
LINE
  8
0
 10
228.765
 20
-82.3287
 11
228.425
 21
-82.3826
  0
LINE
  8
0
 10
228.425
 20
-82.3826
 11
228.085
 21
-82.3287
  0
ENDSEC
  0
SECTION
  2
OBJECTS
  0
DICTIONARY
  0
ENDSEC
  0
EOF
