  0
SECTION
  2
BLOCKS
  0
ENDSEC
  0
SECTION
  2
ENTITIES
  0
LINE
  8
0
 10
151.346
 20
-105.933
 11
227.834
 21
-89.6572
  0
LINE
  8
0
 10
227.834
 20
-89.6572
 11
262.89
 21
-89.6572
  0
LINE
  8
0
 10
262.89
 20
-89.6572
 11
265.592
 21
-89.3731
  0
LINE
  8
0
 10
265.592
 20
-89.3731
 11
268.177
 21
-88.5333
  0
LINE
  8
0
 10
268.177
 20
-88.5333
 11
270.531
 21
-87.1745
  0
LINE
  8
0
 10
270.531
 20
-87.1745
 11
272.551
 21
-85.3559
  0
LINE
  8
0
 10
272.551
 20
-85.3559
 11
274.148
 21
-83.1572
  0
LINE
  8
0
 10
274.148
 20
-83.1572
 11
275.253
 21
-80.6745
  0
LINE
  8
0
 10
275.253
 20
-80.6745
 11
275.89
 21
-76.6572
  0
LINE
  8
0
 10
275.89
 20
-76.6572
 11
275.89
 21
-0.457031
  0
LINE
  8
0
 10
275.89
 20
-0.457031
 11
275.606
 21
2.24582
  0
LINE
  8
0
 10
275.606
 20
2.24582
 11
274.766
 21
4.83055
  0
LINE
  8
0
 10
274.766
 20
4.83055
 11
273.407
 21
7.18417
  0
LINE
  8
0
 10
273.407
 20
7.18417
 11
271.588
 21
9.20386
  0
LINE
  8
0
 10
271.588
 20
9.20386
 11
269.39
 21
10.8013
  0
LINE
  8
0
 10
269.39
 20
10.8013
 11
266.907
 21
11.9067
  0
LINE
  8
0
 10
266.907
 20
11.9067
 11
262.89
 21
12.543
  0
LINE
  8
0
 10
262.89
 20
12.543
 11
148
 21
12.543
  0
LINE
  8
0
 10
148
 20
12.543
 11
148
 21
0.0429688
  0
LINE
  8
0
 10
148
 20
0.0429688
 11
262.89
 21
0.0429688
  0
LINE
  8
0
 10
262.89
 20
0.0429688
 11
263.39
 21
-0.457031
  0
LINE
  8
0
 10
263.39
 20
-0.457031
 11
263.39
 21
-76.6572
  0
LINE
  8
0
 10
263.39
 20
-76.6572
 11
262.89
 21
-77.1572
  0
LINE
  8
0
 10
262.89
 20
-77.1572
 11
226.518
 21
-77.1572
  0
LINE
  8
0
 10
226.518
 20
-77.1572
 11
148.745
 21
-93.7068
  0
LINE
  8
0
 10
148.745
 20
-93.7068
 11
148.641
 21
-93.7178
  0
LINE
  8
0
 10
148.641
 20
-93.7178
 11
122.022
 21
-93.7178
  0
LINE
  8
0
 10
122.022
 20
-93.7178
 11
121.918
 21
-93.7067
  0
LINE
  8
0
 10
121.918
 20
-93.7067
 11
44.4482
 21
-77.1572
  0
LINE
  8
0
 10
44.4482
 20
-77.1572
 11
-4.36914
 21
-77.1572
  0
LINE
  8
0
 10
-4.36914
 20
-77.1572
 11
-4.86914
 21
-76.6572
  0
LINE
  8
0
 10
-4.86914
 20
-76.6572
 11
-4.86914
 21
-0.457031
  0
LINE
  8
0
 10
-4.86914
 20
-0.457031
 11
-4.36914
 21
0.0429688
  0
LINE
  8
0
 10
-4.36914
 20
0.0429688
 11
120
 21
0.0429688
  0
LINE
  8
0
 10
120
 20
0.0429688
 11
120
 21
12.543
  0
LINE
  8
0
 10
120
 20
12.543
 11
-4.36914
 21
12.543
  0
LINE
  8
0
 10
-4.36914
 20
12.543
 11
-7.07199
 21
12.2589
  0
LINE
  8
0
 10
-7.07199
 20
12.2589
 11
-9.65672
 21
11.4191
  0
LINE
  8
0
 10
-9.65672
 20
11.4191
 11
-12.0103
 21
10.0602
  0
LINE
  8
0
 10
-12.0103
 20
10.0602
 11
-14.03
 21
8.24167
  0
LINE
  8
0
 10
-14.03
 20
8.24167
 11
-15.6275
 21
6.04297
  0
LINE
  8
0
 10
-15.6275
 20
6.04297
 11
-16.7329
 21
3.5602
  0
LINE
  8
0
 10
-16.7329
 20
3.5602
 11
-17.3691
 21
-0.457031
  0
LINE
  8
0
 10
-17.3691
 20
-0.457031
 11
-17.3691
 21
-76.6572
  0
LINE
  8
0
 10
-17.3691
 20
-76.6572
 11
-17.0851
 21
-79.3601
  0
LINE
  8
0
 10
-17.0851
 20
-79.3601
 11
-16.2452
 21
-81.9448
  0
LINE
  8
0
 10
-16.2452
 20
-81.9448
 11
-14.8864
 21
-84.2984
  0
LINE
  8
0
 10
-14.8864
 20
-84.2984
 11
-13.0678
 21
-86.3181
  0
LINE
  8
0
 10
-13.0678
 20
-86.3181
 11
-10.8691
 21
-87.9156
  0
LINE
  8
0
 10
-10.8691
 20
-87.9156
 11
-8.38637
 21
-89.021
  0
LINE
  8
0
 10
-8.38637
 20
-89.021
 11
-4.36914
 21
-89.6572
  0
LINE
  8
0
 10
-4.36914
 20
-89.6572
 11
43.1279
 21
-89.6572
  0
LINE
  8
0
 10
43.1279
 20
-89.6572
 11
119.307
 21
-105.931
  0
LINE
  8
0
 10
119.307
 20
-105.931
 11
122.022
 21
-106.218
  0
LINE
  8
0
 10
122.022
 20
-106.218
 11
148.641
 21
-106.218
  0
LINE
  8
0
 10
148.641
 20
-106.218
 11
151.346
 21
-105.933
  0
LINE
  8
0
 10
-8.2446
 20
5.23639
 11
-8.55124
 21
5.39264
  0
LINE
  8
0
 10
-8.55124
 20
5.39264
 11
-8.79459
 21
5.63599
  0
LINE
  8
0
 10
-8.79459
 20
5.63599
 11
-8.95084
 21
5.94263
  0
LINE
  8
0
 10
-8.95084
 20
5.94263
 11
-9.00467
 21
6.28255
  0
LINE
  8
0
 10
-9.00467
 20
6.28255
 11
-8.95084
 21
6.62247
  0
LINE
  8
0
 10
-8.95084
 20
6.62247
 11
-8.79459
 21
6.92912
  0
LINE
  8
0
 10
-8.79459
 20
6.92912
 11
-8.55124
 21
7.17247
  0
LINE
  8
0
 10
-8.55124
 20
7.17247
 11
-8.2446
 21
7.32872
  0
LINE
  8
0
 10
-8.2446
 20
7.32872
 11
-7.90468
 21
7.38255
  0
LINE
  8
0
 10
-7.90468
 20
7.38255
 11
-7.56476
 21
7.32872
  0
LINE
  8
0
 10
-7.56476
 20
7.32872
 11
-7.2581
 21
7.17247
  0
LINE
  8
0
 10
-7.2581
 20
7.17247
 11
-7.01476
 21
6.92912
  0
LINE
  8
0
 10
-7.01476
 20
6.92912
 11
-6.85851
 21
6.62247
  0
LINE
  8
0
 10
-6.85851
 20
6.62247
 11
-6.80467
 21
6.28255
  0
LINE
  8
0
 10
-6.80467
 20
6.28255
 11
-6.85851
 21
5.94263
  0
LINE
  8
0
 10
-6.85851
 20
5.94263
 11
-7.01476
 21
5.63599
  0
LINE
  8
0
 10
-7.01476
 20
5.63599
 11
-7.2581
 21
5.39264
  0
LINE
  8
0
 10
-7.2581
 20
5.39264
 11
-7.56476
 21
5.23639
  0
LINE
  8
0
 10
-7.56476
 20
5.23639
 11
-7.90468
 21
5.18256
  0
LINE
  8
0
 10
-7.90468
 20
5.18256
 11
-8.2446
 21
5.23639
  0
LINE
  8
0
 10
73.5648
 20
5.23639
 11
73.2581
 21
5.39264
  0
LINE
  8
0
 10
73.2581
 20
5.39264
 11
73.0148
 21
5.63599
  0
LINE
  8
0
 10
73.0148
 20
5.63599
 11
72.8585
 21
5.94263
  0
LINE
  8
0
 10
72.8585
 20
5.94263
 11
72.8047
 21
6.28255
  0
LINE
  8
0
 10
72.8047
 20
6.28255
 11
72.8585
 21
6.62247
  0
LINE
  8
0
 10
72.8585
 20
6.62247
 11
73.0148
 21
6.92912
  0
LINE
  8
0
 10
73.0148
 20
6.92912
 11
73.2581
 21
7.17247
  0
LINE
  8
0
 10
73.2581
 20
7.17247
 11
73.5648
 21
7.32872
  0
LINE
  8
0
 10
73.5648
 20
7.32872
 11
73.9047
 21
7.38255
  0
LINE
  8
0
 10
73.9047
 20
7.38255
 11
74.2446
 21
7.32872
  0
LINE
  8
0
 10
74.2446
 20
7.32872
 11
74.5512
 21
7.17247
  0
LINE
  8
0
 10
74.5512
 20
7.17247
 11
74.7946
 21
6.92912
  0
LINE
  8
0
 10
74.7946
 20
6.92912
 11
74.9508
 21
6.62247
  0
LINE
  8
0
 10
74.9508
 20
6.62247
 11
75.0047
 21
6.28255
  0
LINE
  8
0
 10
75.0047
 20
6.28255
 11
74.9508
 21
5.94263
  0
LINE
  8
0
 10
74.9508
 20
5.94263
 11
74.7946
 21
5.63599
  0
LINE
  8
0
 10
74.7946
 20
5.63599
 11
74.5512
 21
5.39264
  0
LINE
  8
0
 10
74.5512
 20
5.39264
 11
74.2446
 21
5.23639
  0
LINE
  8
0
 10
74.2446
 20
5.23639
 11
73.9047
 21
5.18256
  0
LINE
  8
0
 10
73.9047
 20
5.18256
 11
73.5648
 21
5.23639
  0
LINE
  8
0
 10
186.085
 20
5.23639
 11
185.778
 21
5.39264
  0
LINE
  8
0
 10
185.778
 20
5.39264
 11
185.535
 21
5.63599
  0
LINE
  8
0
 10
185.535
 20
5.63599
 11
185.379
 21
5.94263
  0
LINE
  8
0
 10
185.379
 20
5.94263
 11
185.325
 21
6.28255
  0
LINE
  8
0
 10
185.325
 20
6.28255
 11
185.379
 21
6.62247
  0
LINE
  8
0
 10
185.379
 20
6.62247
 11
185.535
 21
6.92912
  0
LINE
  8
0
 10
185.535
 20
6.92912
 11
185.778
 21
7.17247
  0
LINE
  8
0
 10
185.778
 20
7.17247
 11
186.085
 21
7.32872
  0
LINE
  8
0
 10
186.085
 20
7.32872
 11
186.425
 21
7.38255
  0
LINE
  8
0
 10
186.425
 20
7.38255
 11
186.765
 21
7.32872
  0
LINE
  8
0
 10
186.765
 20
7.32872
 11
187.072
 21
7.17247
  0
LINE
  8
0
 10
187.072
 20
7.17247
 11
187.315
 21
6.92912
  0
LINE
  8
0
 10
187.315
 20
6.92912
 11
187.471
 21
6.62247
  0
LINE
  8
0
 10
187.471
 20
6.62247
 11
187.525
 21
6.28255
  0
LINE
  8
0
 10
187.525
 20
6.28255
 11
187.471
 21
5.94263
  0
LINE
  8
0
 10
187.471
 20
5.94263
 11
187.315
 21
5.63599
  0
LINE
  8
0
 10
187.315
 20
5.63599
 11
187.072
 21
5.39264
  0
LINE
  8
0
 10
187.072
 20
5.39264
 11
186.765
 21
5.23639
  0
LINE
  8
0
 10
186.765
 20
5.23639
 11
186.425
 21
5.18256
  0
LINE
  8
0
 10
186.425
 20
5.18256
 11
186.085
 21
5.23639
  0
LINE
  8
0
 10
266.085
 20
5.23639
 11
265.778
 21
5.39264
  0
LINE
  8
0
 10
265.778
 20
5.39264
 11
265.535
 21
5.63599
  0
LINE
  8
0
 10
265.535
 20
5.63599
 11
265.379
 21
5.94263
  0
LINE
  8
0
 10
265.379
 20
5.94263
 11
265.325
 21
6.28255
  0
LINE
  8
0
 10
265.325
 20
6.28255
 11
265.379
 21
6.62247
  0
LINE
  8
0
 10
265.379
 20
6.62247
 11
265.535
 21
6.92912
  0
LINE
  8
0
 10
265.535
 20
6.92912
 11
265.778
 21
7.17247
  0
LINE
  8
0
 10
265.778
 20
7.17247
 11
266.085
 21
7.32872
  0
LINE
  8
0
 10
266.085
 20
7.32872
 11
266.425
 21
7.38255
  0
LINE
  8
0
 10
266.425
 20
7.38255
 11
266.765
 21
7.32872
  0
LINE
  8
0
 10
266.765
 20
7.32872
 11
267.072
 21
7.17247
  0
LINE
  8
0
 10
267.072
 20
7.17247
 11
267.315
 21
6.92912
  0
LINE
  8
0
 10
267.315
 20
6.92912
 11
267.471
 21
6.62247
  0
LINE
  8
0
 10
267.471
 20
6.62247
 11
267.525
 21
6.28255
  0
LINE
  8
0
 10
267.525
 20
6.28255
 11
267.471
 21
5.94263
  0
LINE
  8
0
 10
267.471
 20
5.94263
 11
267.315
 21
5.63599
  0
LINE
  8
0
 10
267.315
 20
5.63599
 11
267.072
 21
5.39264
  0
LINE
  8
0
 10
267.072
 20
5.39264
 11
266.765
 21
5.23639
  0
LINE
  8
0
 10
266.765
 20
5.23639
 11
266.425
 21
5.18256
  0
LINE
  8
0
 10
266.425
 20
5.18256
 11
266.085
 21
5.23639
  0
LINE
  8
0
 10
-12.2446
 20
-39.3287
 11
-12.5512
 21
-39.1725
  0
LINE
  8
0
 10
-12.5512
 20
-39.1725
 11
-12.7946
 21
-38.9291
  0
LINE
  8
0
 10
-12.7946
 20
-38.9291
 11
-12.9508
 21
-38.6225
  0
LINE
  8
0
 10
-12.9508
 20
-38.6225
 11
-13.0047
 21
-38.2825
  0
LINE
  8
0
 10
-13.0047
 20
-38.2825
 11
-12.9508
 21
-37.9426
  0
LINE
  8
0
 10
-12.9508
 20
-37.9426
 11
-12.7946
 21
-37.636
  0
LINE
  8
0
 10
-12.7946
 20
-37.636
 11
-12.5512
 21
-37.3926
  0
LINE
  8
0
 10
-12.5512
 20
-37.3926
 11
-12.2446
 21
-37.2364
  0
LINE
  8
0
 10
-12.2446
 20
-37.2364
 11
-11.9047
 21
-37.1826
  0
LINE
  8
0
 10
-11.9047
 20
-37.1826
 11
-11.5648
 21
-37.2364
  0
LINE
  8
0
 10
-11.5648
 20
-37.2364
 11
-11.2581
 21
-37.3926
  0
LINE
  8
0
 10
-11.2581
 20
-37.3926
 11
-11.0148
 21
-37.636
  0
LINE
  8
0
 10
-11.0148
 20
-37.636
 11
-10.8585
 21
-37.9426
  0
LINE
  8
0
 10
-10.8585
 20
-37.9426
 11
-10.8047
 21
-38.2825
  0
LINE
  8
0
 10
-10.8047
 20
-38.2825
 11
-10.8585
 21
-38.6225
  0
LINE
  8
0
 10
-10.8585
 20
-38.6225
 11
-11.0148
 21
-38.9291
  0
LINE
  8
0
 10
-11.0148
 20
-38.9291
 11
-11.2581
 21
-39.1725
  0
LINE
  8
0
 10
-11.2581
 20
-39.1725
 11
-11.5648
 21
-39.3287
  0
LINE
  8
0
 10
-11.5648
 20
-39.3287
 11
-11.9047
 21
-39.3826
  0
LINE
  8
0
 10
-11.9047
 20
-39.3826
 11
-12.2446
 21
-39.3287
  0
LINE
  8
0
 10
270.085
 20
-39.3287
 11
269.778
 21
-39.1725
  0
LINE
  8
0
 10
269.778
 20
-39.1725
 11
269.535
 21
-38.9291
  0
LINE
  8
0
 10
269.535
 20
-38.9291
 11
269.379
 21
-38.6225
  0
LINE
  8
0
 10
269.379
 20
-38.6225
 11
269.325
 21
-38.2825
  0
LINE
  8
0
 10
269.325
 20
-38.2825
 11
269.379
 21
-37.9426
  0
LINE
  8
0
 10
269.379
 20
-37.9426
 11
269.535
 21
-37.636
  0
LINE
  8
0
 10
269.535
 20
-37.636
 11
269.778
 21
-37.3926
  0
LINE
  8
0
 10
269.778
 20
-37.3926
 11
270.085
 21
-37.2364
  0
LINE
  8
0
 10
270.085
 20
-37.2364
 11
270.425
 21
-37.1826
  0
LINE
  8
0
 10
270.425
 20
-37.1826
 11
270.765
 21
-37.2364
  0
LINE
  8
0
 10
270.765
 20
-37.2364
 11
271.072
 21
-37.3926
  0
LINE
  8
0
 10
271.072
 20
-37.3926
 11
271.315
 21
-37.636
  0
LINE
  8
0
 10
271.315
 20
-37.636
 11
271.471
 21
-37.9426
  0
LINE
  8
0
 10
271.471
 20
-37.9426
 11
271.525
 21
-38.2825
  0
LINE
  8
0
 10
271.525
 20
-38.2825
 11
271.471
 21
-38.6225
  0
LINE
  8
0
 10
271.471
 20
-38.6225
 11
271.315
 21
-38.9291
  0
LINE
  8
0
 10
271.315
 20
-38.9291
 11
271.072
 21
-39.1725
  0
LINE
  8
0
 10
271.072
 20
-39.1725
 11
270.765
 21
-39.3287
  0
LINE
  8
0
 10
270.765
 20
-39.3287
 11
270.425
 21
-39.3826
  0
LINE
  8
0
 10
270.425
 20
-39.3826
 11
270.085
 21
-39.3287
  0
LINE
  8
0
 10
-8.2446
 20
-82.3287
 11
-8.55124
 21
-82.1725
  0
LINE
  8
0
 10
-8.55124
 20
-82.1725
 11
-8.79459
 21
-81.9291
  0
LINE
  8
0
 10
-8.79459
 20
-81.9291
 11
-8.95084
 21
-81.6225
  0
LINE
  8
0
 10
-8.95084
 20
-81.6225
 11
-9.00467
 21
-81.2825
  0
LINE
  8
0
 10
-9.00467
 20
-81.2825
 11
-8.95084
 21
-80.9426
  0
LINE
  8
0
 10
-8.95084
 20
-80.9426
 11
-8.79459
 21
-80.636
  0
LINE
  8
0
 10
-8.79459
 20
-80.636
 11
-8.55124
 21
-80.3926
  0
LINE
  8
0
 10
-8.55124
 20
-80.3926
 11
-8.2446
 21
-80.2364
  0
LINE
  8
0
 10
-8.2446
 20
-80.2364
 11
-7.90468
 21
-80.1826
  0
LINE
  8
0
 10
-7.90468
 20
-80.1826
 11
-7.56476
 21
-80.2364
  0
LINE
  8
0
 10
-7.56476
 20
-80.2364
 11
-7.2581
 21
-80.3926
  0
LINE
  8
0
 10
-7.2581
 20
-80.3926
 11
-7.01476
 21
-80.636
  0
LINE
  8
0
 10
-7.01476
 20
-80.636
 11
-6.85851
 21
-80.9426
  0
LINE
  8
0
 10
-6.85851
 20
-80.9426
 11
-6.80467
 21
-81.2825
  0
LINE
  8
0
 10
-6.80467
 20
-81.2825
 11
-6.85851
 21
-81.6225
  0
LINE
  8
0
 10
-6.85851
 20
-81.6225
 11
-7.01476
 21
-81.9291
  0
LINE
  8
0
 10
-7.01476
 20
-81.9291
 11
-7.2581
 21
-82.1725
  0
LINE
  8
0
 10
-7.2581
 20
-82.1725
 11
-7.56476
 21
-82.3287
  0
LINE
  8
0
 10
-7.56476
 20
-82.3287
 11
-7.90468
 21
-82.3826
  0
LINE
  8
0
 10
-7.90468
 20
-82.3826
 11
-8.2446
 21
-82.3287
  0
LINE
  8
0
 10
266.085
 20
-82.3287
 11
265.778
 21
-82.1725
  0
LINE
  8
0
 10
265.778
 20
-82.1725
 11
265.535
 21
-81.9291
  0
LINE
  8
0
 10
265.535
 20
-81.9291
 11
265.379
 21
-81.6225
  0
LINE
  8
0
 10
265.379
 20
-81.6225
 11
265.325
 21
-81.2825
  0
LINE
  8
0
 10
265.325
 20
-81.2825
 11
265.379
 21
-80.9426
  0
LINE
  8
0
 10
265.379
 20
-80.9426
 11
265.535
 21
-80.636
  0
LINE
  8
0
 10
265.535
 20
-80.636
 11
265.778
 21
-80.3926
  0
LINE
  8
0
 10
265.778
 20
-80.3926
 11
266.085
 21
-80.2364
  0
LINE
  8
0
 10
266.085
 20
-80.2364
 11
266.425
 21
-80.1826
  0
LINE
  8
0
 10
266.425
 20
-80.1826
 11
266.765
 21
-80.2364
  0
LINE
  8
0
 10
266.765
 20
-80.2364
 11
267.072
 21
-80.3926
  0
LINE
  8
0
 10
267.072
 20
-80.3926
 11
267.315
 21
-80.636
  0
LINE
  8
0
 10
267.315
 20
-80.636
 11
267.471
 21
-80.9426
  0
LINE
  8
0
 10
267.471
 20
-80.9426
 11
267.525
 21
-81.2825
  0
LINE
  8
0
 10
267.525
 20
-81.2825
 11
267.471
 21
-81.6225
  0
LINE
  8
0
 10
267.471
 20
-81.6225
 11
267.315
 21
-81.9291
  0
LINE
  8
0
 10
267.315
 20
-81.9291
 11
267.072
 21
-82.1725
  0
LINE
  8
0
 10
267.072
 20
-82.1725
 11
266.765
 21
-82.3287
  0
LINE
  8
0
 10
266.765
 20
-82.3287
 11
266.425
 21
-82.3826
  0
LINE
  8
0
 10
266.425
 20
-82.3826
 11
266.085
 21
-82.3287
  0
LINE
  8
0
 10
43.5648
 20
-82.3287
 11
43.2581
 21
-82.1725
  0
LINE
  8
0
 10
43.2581
 20
-82.1725
 11
43.0148
 21
-81.9291
  0
LINE
  8
0
 10
43.0148
 20
-81.9291
 11
42.8585
 21
-81.6225
  0
LINE
  8
0
 10
42.8585
 20
-81.6225
 11
42.8047
 21
-81.2825
  0
LINE
  8
0
 10
42.8047
 20
-81.2825
 11
42.8585
 21
-80.9426
  0
LINE
  8
0
 10
42.8585
 20
-80.9426
 11
43.0148
 21
-80.636
  0
LINE
  8
0
 10
43.0148
 20
-80.636
 11
43.2581
 21
-80.3926
  0
LINE
  8
0
 10
43.2581
 20
-80.3926
 11
43.5648
 21
-80.2364
  0
LINE
  8
0
 10
43.5648
 20
-80.2364
 11
43.9047
 21
-80.1826
  0
LINE
  8
0
 10
43.9047
 20
-80.1826
 11
44.2446
 21
-80.2364
  0
LINE
  8
0
 10
44.2446
 20
-80.2364
 11
44.5512
 21
-80.3926
  0
LINE
  8
0
 10
44.5512
 20
-80.3926
 11
44.7946
 21
-80.636
  0
LINE
  8
0
 10
44.7946
 20
-80.636
 11
44.9508
 21
-80.9426
  0
LINE
  8
0
 10
44.9508
 20
-80.9426
 11
45.0047
 21
-81.2825
  0
LINE
  8
0
 10
45.0047
 20
-81.2825
 11
44.9508
 21
-81.6225
  0
LINE
  8
0
 10
44.9508
 20
-81.6225
 11
44.7946
 21
-81.9291
  0
LINE
  8
0
 10
44.7946
 20
-81.9291
 11
44.5512
 21
-82.1725
  0
LINE
  8
0
 10
44.5512
 20
-82.1725
 11
44.2446
 21
-82.3287
  0
LINE
  8
0
 10
44.2446
 20
-82.3287
 11
43.9047
 21
-82.3826
  0
LINE
  8
0
 10
43.9047
 20
-82.3826
 11
43.5648
 21
-82.3287
  0
LINE
  8
0
 10
228.085
 20
-82.3287
 11
227.778
 21
-82.1725
  0
LINE
  8
0
 10
227.778
 20
-82.1725
 11
227.535
 21
-81.9291
  0
LINE
  8
0
 10
227.535
 20
-81.9291
 11
227.379
 21
-81.6225
  0
LINE
  8
0
 10
227.379
 20
-81.6225
 11
227.325
 21
-81.2825
  0
LINE
  8
0
 10
227.325
 20
-81.2825
 11
227.379
 21
-80.9426
  0
LINE
  8
0
 10
227.379
 20
-80.9426
 11
227.535
 21
-80.636
  0
LINE
  8
0
 10
227.535
 20
-80.636
 11
227.778
 21
-80.3926
  0
LINE
  8
0
 10
227.778
 20
-80.3926
 11
228.085
 21
-80.2364
  0
LINE
  8
0
 10
228.085
 20
-80.2364
 11
228.425
 21
-80.1826
  0
LINE
  8
0
 10
228.425
 20
-80.1826
 11
228.765
 21
-80.2364
  0
LINE
  8
0
 10
228.765
 20
-80.2364
 11
229.072
 21
-80.3926
  0
LINE
  8
0
 10
229.072
 20
-80.3926
 11
229.315
 21
-80.636
  0
LINE
  8
0
 10
229.315
 20
-80.636
 11
229.471
 21
-80.9426
  0
LINE
  8
0
 10
229.471
 20
-80.9426
 11
229.525
 21
-81.2825
  0
LINE
  8
0
 10
229.525
 20
-81.2825
 11
229.471
 21
-81.6225
  0
LINE
  8
0
 10
229.471
 20
-81.6225
 11
229.315
 21
-81.9291
  0
LINE
  8
0
 10
229.315
 20
-81.9291
 11
229.072
 21
-82.1725
  0
LINE
  8
0
 10
229.072
 20
-82.1725
 11
228.765
 21
-82.3287
  0
LINE
  8
0
 10
228.765
 20
-82.3287
 11
228.425
 21
-82.3826
  0
LINE
  8
0
 10
228.425
 20
-82.3826
 11
228.085
 21
-82.3287
  0
ENDSEC
  0
SECTION
  2
OBJECTS
  0
DICTIONARY
  0
ENDSEC
  0
EOF
