  0
SECTION
  2
BLOCKS
  0
ENDSEC
  0
SECTION
  2
ENTITIES
  0
LINE
  8
0
 10
151.554
 20
-106.911
 11
227.939
 21
-90.6572
  0
LINE
  8
0
 10
227.939
 20
-90.6572
 11
262.89
 21
-90.6572
  0
LINE
  8
0
 10
262.89
 20
-90.6572
 11
265.8
 21
-90.3513
  0
LINE
  8
0
 10
265.8
 20
-90.3513
 11
268.584
 21
-89.4469
  0
LINE
  8
0
 10
268.584
 20
-89.4469
 11
271.119
 21
-87.9835
  0
LINE
  8
0
 10
271.119
 20
-87.9835
 11
273.294
 21
-86.0251
  0
LINE
  8
0
 10
273.294
 20
-86.0251
 11
275.014
 21
-83.6572
  0
LINE
  8
0
 10
275.014
 20
-83.6572
 11
276.204
 21
-80.9835
  0
LINE
  8
0
 10
276.204
 20
-80.9835
 11
276.89
 21
-76.6572
  0
LINE
  8
0
 10
276.89
 20
-76.6572
 11
276.89
 21
-0.457031
  0
LINE
  8
0
 10
276.89
 20
-0.457031
 11
276.584
 21
2.45374
  0
LINE
  8
0
 10
276.584
 20
2.45374
 11
275.679
 21
5.23727
  0
LINE
  8
0
 10
275.679
 20
5.23727
 11
274.216
 21
7.77196
  0
LINE
  8
0
 10
274.216
 20
7.77196
 11
272.257
 21
9.94699
  0
LINE
  8
0
 10
272.257
 20
9.94699
 11
269.89
 21
11.6673
  0
LINE
  8
0
 10
269.89
 20
11.6673
 11
267.216
 21
12.8578
  0
LINE
  8
0
 10
267.216
 20
12.8578
 11
262.89
 21
13.543
  0
LINE
  8
0
 10
262.89
 20
13.543
 11
148
 21
13.543
  0
LINE
  8
0
 10
148
 20
13.543
 11
148
 21
-12
  0
LINE
  8
0
 10
148
 20
-12
 11
142
 21
-12
  0
LINE
  8
0
 10
142
 20
-12
 11
142
 21
-16.1335
  0
LINE
  8
0
 10
142
 20
-16.1335
 11
223.505
 21
1.14502
  0
LINE
  8
0
 10
223.505
 20
1.14502
 11
223.749
 21
1.38867
  0
LINE
  8
0
 10
223.749
 20
1.38867
 11
242.926
 21
1.38867
  0
LINE
  8
0
 10
242.926
 20
1.38867
 11
243.426
 21
0.888672
  0
LINE
  8
0
 10
243.426
 20
0.888672
 11
243.426
 21
0.09375
  0
LINE
  8
0
 10
243.426
 20
0.09375
 11
261.976
 21
0.09375
  0
LINE
  8
0
 10
261.976
 20
0.09375
 11
262.476
 21
-0.40625
  0
LINE
  8
0
 10
262.476
 20
-0.40625
 11
262.476
 21
-18.9307
  0
LINE
  8
0
 10
262.476
 20
-18.9307
 11
264.363
 21
-18.9307
  0
LINE
  8
0
 10
264.363
 20
-18.9307
 11
264.863
 21
-19.4307
  0
LINE
  8
0
 10
264.863
 20
-19.4307
 11
264.863
 21
-37.9814
  0
LINE
  8
0
 10
264.863
 20
-37.9814
 11
266.751
 21
-37.9814
  0
LINE
  8
0
 10
266.751
 20
-37.9814
 11
267.251
 21
-38.4814
  0
LINE
  8
0
 10
267.251
 20
-38.4814
 11
267.251
 21
-57.709
  0
LINE
  8
0
 10
267.251
 20
-57.709
 11
266.751
 21
-58.209
  0
LINE
  8
0
 10
266.751
 20
-58.209
 11
262.5
 21
-58.209
  0
LINE
  8
0
 10
262.5
 20
-58.209
 11
262.476
 21
-76.7595
  0
LINE
  8
0
 10
262.476
 20
-76.7595
 11
261.976
 21
-77.2588
  0
LINE
  8
0
 10
261.976
 20
-77.2588
 11
233.248
 21
-77.2588
  0
LINE
  8
0
 10
233.248
 20
-77.2588
 11
232.748
 21
-76.7581
  0
LINE
  8
0
 10
232.748
 20
-76.7581
 11
232.774
 21
-58.1836
  0
LINE
  8
0
 10
232.774
 20
-58.1836
 11
224.209
 21
-58.1836
  0
LINE
  8
0
 10
224.209
 20
-58.1836
 11
215.223
 21
-60.1247
  0
LINE
  8
0
 10
215.223
 20
-60.1247
 11
219.081
 21
-78.2553
  0
LINE
  8
0
 10
219.081
 20
-78.2553
 11
218.696
 21
-78.8484
  0
LINE
  8
0
 10
218.696
 20
-78.8484
 11
148.694
 21
-93.7576
  0
LINE
  8
0
 10
148.694
 20
-93.7576
 11
148.101
 21
-93.3727
  0
LINE
  8
0
 10
148.101
 20
-93.3727
 11
144.111
 21
-74.6295
  0
LINE
  8
0
 10
144.111
 20
-74.6295
 11
144.495
 21
-74.0365
  0
LINE
  8
0
 10
144.495
 20
-74.0365
 11
148.682
 21
-73.1409
  0
LINE
  8
0
 10
148.682
 20
-73.1409
 11
144.811
 21
-54.9792
  0
LINE
  8
0
 10
144.811
 20
-54.9792
 11
145.196
 21
-54.3858
  0
LINE
  8
0
 10
145.196
 20
-54.3858
 11
154.032
 21
-52.5148
  0
LINE
  8
0
 10
154.032
 20
-52.5148
 11
150.315
 21
-34.9687
  0
LINE
  8
0
 10
150.315
 20
-34.9687
 11
146.13
 21
-35.8639
  0
LINE
  8
0
 10
146.13
 20
-35.8639
 11
145.536
 21
-35.4791
  0
LINE
  8
0
 10
145.536
 20
-35.4791
 11
142
 21
-18.8642
  0
LINE
  8
0
 10
142
 20
-18.8642
 11
142
 21
-32
  0
LINE
  8
0
 10
142
 20
-32
 11
120
 21
-32
  0
LINE
  8
0
 10
120
 20
-32
 11
120
 21
-20.3653
  0
LINE
  8
0
 10
120
 20
-20.3653
 11
117.281
 21
-33.1932
  0
LINE
  8
0
 10
117.281
 20
-33.1932
 11
121.363
 21
-34.0547
  0
LINE
  8
0
 10
121.363
 20
-34.0547
 11
121.749
 21
-34.6479
  0
LINE
  8
0
 10
121.749
 20
-34.6479
 11
117.89
 21
-52.8027
  0
LINE
  8
0
 10
117.89
 20
-52.8027
 11
126.698
 21
-54.6799
  0
LINE
  8
0
 10
126.698
 20
-54.6799
 11
127.083
 21
-55.2732
  0
LINE
  8
0
 10
127.083
 20
-55.2732
 11
123.224
 21
-73.3778
  0
LINE
  8
0
 10
123.224
 20
-73.3778
 11
127.462
 21
-74.2885
  0
LINE
  8
0
 10
127.462
 20
-74.2885
 11
127.845
 21
-74.882
  0
LINE
  8
0
 10
127.845
 20
-74.882
 11
123.831
 21
-93.6272
  0
LINE
  8
0
 10
123.831
 20
-93.6272
 11
123.238
 21
-94.0115
  0
LINE
  8
0
 10
123.238
 20
-94.0115
 11
48.5619
 21
-78.1111
  0
LINE
  8
0
 10
48.5619
 20
-78.1111
 11
48.1773
 21
-77.5166
  0
LINE
  8
0
 10
48.1773
 20
-77.5166
 11
52.0851
 21
-59.4141
  0
LINE
  8
0
 10
52.0851
 20
-59.4141
 11
46.175
 21
-58.1582
  0
LINE
  8
0
 10
46.175
 20
-58.1582
 11
31.2344
 21
-58.1582
  0
LINE
  8
0
 10
31.2344
 20
-58.1582
 11
31.2344
 21
-76.7588
  0
LINE
  8
0
 10
31.2344
 20
-76.7588
 11
30.7344
 21
-77.2588
  0
LINE
  8
0
 10
30.7344
 20
-77.2588
 11
1.98145
 21
-77.2588
  0
LINE
  8
0
 10
1.98145
 20
-77.2588
 11
1.48145
 21
-76.7588
  0
LINE
  8
0
 10
1.48145
 20
-76.7588
 11
1.48145
 21
-58.209
  0
LINE
  8
0
 10
1.48145
 20
-58.209
 11
-4.36914
 21
-58.209
  0
LINE
  8
0
 10
-4.36914
 20
-58.209
 11
-4.86914
 21
-57.709
  0
LINE
  8
0
 10
-4.86914
 20
-57.709
 11
-4.86914
 21
-38.4814
  0
LINE
  8
0
 10
-4.86914
 20
-38.4814
 11
-4.36914
 21
-37.9814
  0
LINE
  8
0
 10
-4.36914
 20
-37.9814
 11
-2.48145
 21
-37.9814
  0
LINE
  8
0
 10
-2.48145
 20
-37.9814
 11
-2.48145
 21
-19.4561
  0
LINE
  8
0
 10
-2.48145
 20
-19.4561
 11
-1.98145
 21
-18.9561
  0
LINE
  8
0
 10
-1.98145
 20
-18.9561
 11
-0.0930786
 21
-18.9561
  0
LINE
  8
0
 10
-0.0930786
 20
-18.9561
 11
-0.0683594
 21
-0.405579
  0
LINE
  8
0
 10
-0.0683594
 20
-0.405579
 11
0.431641
 21
0.09375
  0
LINE
  8
0
 10
0.431641
 20
0.09375
 11
45.1632
 21
0.09375
  0
LINE
  8
0
 10
45.1632
 20
0.09375
 11
45.3832
 21
1.12039
  0
LINE
  8
0
 10
45.3832
 20
1.12039
 11
45.9761
 21
1.50468
  0
LINE
  8
0
 10
45.9761
 20
1.50468
 11
120
 21
-14.2353
  0
LINE
  8
0
 10
120
 20
-14.2353
 11
120
 21
13.543
  0
LINE
  8
0
 10
120
 20
13.543
 11
-4.36914
 21
13.543
  0
LINE
  8
0
 10
-4.36914
 20
13.543
 11
-7.27991
 21
13.237
  0
LINE
  8
0
 10
-7.27991
 20
13.237
 11
-10.0634
 21
12.3326
  0
LINE
  8
0
 10
-10.0634
 20
12.3326
 11
-12.5981
 21
10.8692
  0
LINE
  8
0
 10
-12.5981
 20
10.8692
 11
-14.7732
 21
8.9108
  0
LINE
  8
0
 10
-14.7732
 20
8.9108
 11
-16.4935
 21
6.54297
  0
LINE
  8
0
 10
-16.4935
 20
6.54297
 11
-17.6839
 21
3.8692
  0
LINE
  8
0
 10
-17.6839
 20
3.8692
 11
-18.3691
 21
-0.457031
  0
LINE
  8
0
 10
-18.3691
 20
-0.457031
 11
-18.3691
 21
-76.6572
  0
LINE
  8
0
 10
-18.3691
 20
-76.6572
 11
-18.0632
 21
-79.568
  0
LINE
  8
0
 10
-18.0632
 20
-79.568
 11
-17.1588
 21
-82.3515
  0
LINE
  8
0
 10
-17.1588
 20
-82.3515
 11
-15.6954
 21
-84.8862
  0
LINE
  8
0
 10
-15.6954
 20
-84.8862
 11
-13.737
 21
-87.0612
  0
LINE
  8
0
 10
-13.737
 20
-87.0612
 11
-11.3691
 21
-88.7816
  0
LINE
  8
0
 10
-11.3691
 20
-88.7816
 11
-8.69537
 21
-89.972
  0
LINE
  8
0
 10
-8.69537
 20
-89.972
 11
-4.36914
 21
-90.6572
  0
LINE
  8
0
 10
-4.36914
 20
-90.6572
 11
43.0223
 21
-90.6572
  0
LINE
  8
0
 10
43.0223
 20
-90.6572
 11
119.098
 21
-106.909
  0
LINE
  8
0
 10
119.098
 20
-106.909
 11
122.022
 21
-107.218
  0
LINE
  8
0
 10
122.022
 20
-107.218
 11
148.641
 21
-107.218
  0
LINE
  8
0
 10
148.641
 20
-107.218
 11
151.554
 21
-106.911
  0
LINE
  8
0
 10
-8.2446
 20
5.23639
 11
-8.55124
 21
5.39264
  0
LINE
  8
0
 10
-8.55124
 20
5.39264
 11
-8.79459
 21
5.63599
  0
LINE
  8
0
 10
-8.79459
 20
5.63599
 11
-8.95084
 21
5.94263
  0
LINE
  8
0
 10
-8.95084
 20
5.94263
 11
-9.00467
 21
6.28255
  0
LINE
  8
0
 10
-9.00467
 20
6.28255
 11
-8.95084
 21
6.62247
  0
LINE
  8
0
 10
-8.95084
 20
6.62247
 11
-8.79459
 21
6.92912
  0
LINE
  8
0
 10
-8.79459
 20
6.92912
 11
-8.55124
 21
7.17247
  0
LINE
  8
0
 10
-8.55124
 20
7.17247
 11
-8.2446
 21
7.32872
  0
LINE
  8
0
 10
-8.2446
 20
7.32872
 11
-7.90468
 21
7.38255
  0
LINE
  8
0
 10
-7.90468
 20
7.38255
 11
-7.56476
 21
7.32872
  0
LINE
  8
0
 10
-7.56476
 20
7.32872
 11
-7.2581
 21
7.17247
  0
LINE
  8
0
 10
-7.2581
 20
7.17247
 11
-7.01476
 21
6.92912
  0
LINE
  8
0
 10
-7.01476
 20
6.92912
 11
-6.85851
 21
6.62247
  0
LINE
  8
0
 10
-6.85851
 20
6.62247
 11
-6.80467
 21
6.28255
  0
LINE
  8
0
 10
-6.80467
 20
6.28255
 11
-6.85851
 21
5.94263
  0
LINE
  8
0
 10
-6.85851
 20
5.94263
 11
-7.01476
 21
5.63599
  0
LINE
  8
0
 10
-7.01476
 20
5.63599
 11
-7.2581
 21
5.39264
  0
LINE
  8
0
 10
-7.2581
 20
5.39264
 11
-7.56476
 21
5.23639
  0
LINE
  8
0
 10
-7.56476
 20
5.23639
 11
-7.90468
 21
5.18256
  0
LINE
  8
0
 10
-7.90468
 20
5.18256
 11
-8.2446
 21
5.23639
  0
LINE
  8
0
 10
266.085
 20
5.23639
 11
265.778
 21
5.39264
  0
LINE
  8
0
 10
265.778
 20
5.39264
 11
265.535
 21
5.63599
  0
LINE
  8
0
 10
265.535
 20
5.63599
 11
265.379
 21
5.94263
  0
LINE
  8
0
 10
265.379
 20
5.94263
 11
265.325
 21
6.28255
  0
LINE
  8
0
 10
265.325
 20
6.28255
 11
265.379
 21
6.62247
  0
LINE
  8
0
 10
265.379
 20
6.62247
 11
265.535
 21
6.92912
  0
LINE
  8
0
 10
265.535
 20
6.92912
 11
265.778
 21
7.17247
  0
LINE
  8
0
 10
265.778
 20
7.17247
 11
266.085
 21
7.32872
  0
LINE
  8
0
 10
266.085
 20
7.32872
 11
266.425
 21
7.38255
  0
LINE
  8
0
 10
266.425
 20
7.38255
 11
266.765
 21
7.32872
  0
LINE
  8
0
 10
266.765
 20
7.32872
 11
267.072
 21
7.17247
  0
LINE
  8
0
 10
267.072
 20
7.17247
 11
267.315
 21
6.92912
  0
LINE
  8
0
 10
267.315
 20
6.92912
 11
267.471
 21
6.62247
  0
LINE
  8
0
 10
267.471
 20
6.62247
 11
267.525
 21
6.28255
  0
LINE
  8
0
 10
267.525
 20
6.28255
 11
267.471
 21
5.94263
  0
LINE
  8
0
 10
267.471
 20
5.94263
 11
267.315
 21
5.63599
  0
LINE
  8
0
 10
267.315
 20
5.63599
 11
267.072
 21
5.39264
  0
LINE
  8
0
 10
267.072
 20
5.39264
 11
266.765
 21
5.23639
  0
LINE
  8
0
 10
266.765
 20
5.23639
 11
266.425
 21
5.18256
  0
LINE
  8
0
 10
266.425
 20
5.18256
 11
266.085
 21
5.23639
  0
LINE
  8
0
 10
186.085
 20
5.23639
 11
185.778
 21
5.39264
  0
LINE
  8
0
 10
185.778
 20
5.39264
 11
185.535
 21
5.63599
  0
LINE
  8
0
 10
185.535
 20
5.63599
 11
185.379
 21
5.94263
  0
LINE
  8
0
 10
185.379
 20
5.94263
 11
185.325
 21
6.28255
  0
LINE
  8
0
 10
185.325
 20
6.28255
 11
185.379
 21
6.62247
  0
LINE
  8
0
 10
185.379
 20
6.62247
 11
185.535
 21
6.92912
  0
LINE
  8
0
 10
185.535
 20
6.92912
 11
185.778
 21
7.17247
  0
LINE
  8
0
 10
185.778
 20
7.17247
 11
186.085
 21
7.32872
  0
LINE
  8
0
 10
186.085
 20
7.32872
 11
186.425
 21
7.38255
  0
LINE
  8
0
 10
186.425
 20
7.38255
 11
186.765
 21
7.32872
  0
LINE
  8
0
 10
186.765
 20
7.32872
 11
187.072
 21
7.17247
  0
LINE
  8
0
 10
187.072
 20
7.17247
 11
187.315
 21
6.92912
  0
LINE
  8
0
 10
187.315
 20
6.92912
 11
187.471
 21
6.62247
  0
LINE
  8
0
 10
187.471
 20
6.62247
 11
187.525
 21
6.28255
  0
LINE
  8
0
 10
187.525
 20
6.28255
 11
187.471
 21
5.94263
  0
LINE
  8
0
 10
187.471
 20
5.94263
 11
187.315
 21
5.63599
  0
LINE
  8
0
 10
187.315
 20
5.63599
 11
187.072
 21
5.39264
  0
LINE
  8
0
 10
187.072
 20
5.39264
 11
186.765
 21
5.23639
  0
LINE
  8
0
 10
186.765
 20
5.23639
 11
186.425
 21
5.18256
  0
LINE
  8
0
 10
186.425
 20
5.18256
 11
186.085
 21
5.23639
  0
LINE
  8
0
 10
73.5648
 20
5.23639
 11
73.2581
 21
5.39264
  0
LINE
  8
0
 10
73.2581
 20
5.39264
 11
73.0148
 21
5.63599
  0
LINE
  8
0
 10
73.0148
 20
5.63599
 11
72.8585
 21
5.94263
  0
LINE
  8
0
 10
72.8585
 20
5.94263
 11
72.8047
 21
6.28255
  0
LINE
  8
0
 10
72.8047
 20
6.28255
 11
72.8585
 21
6.62247
  0
LINE
  8
0
 10
72.8585
 20
6.62247
 11
73.0148
 21
6.92912
  0
LINE
  8
0
 10
73.0148
 20
6.92912
 11
73.2581
 21
7.17247
  0
LINE
  8
0
 10
73.2581
 20
7.17247
 11
73.5648
 21
7.32872
  0
LINE
  8
0
 10
73.5648
 20
7.32872
 11
73.9047
 21
7.38255
  0
LINE
  8
0
 10
73.9047
 20
7.38255
 11
74.2446
 21
7.32872
  0
LINE
  8
0
 10
74.2446
 20
7.32872
 11
74.5512
 21
7.17247
  0
LINE
  8
0
 10
74.5512
 20
7.17247
 11
74.7946
 21
6.92912
  0
LINE
  8
0
 10
74.7946
 20
6.92912
 11
74.9508
 21
6.62247
  0
LINE
  8
0
 10
74.9508
 20
6.62247
 11
75.0047
 21
6.28255
  0
LINE
  8
0
 10
75.0047
 20
6.28255
 11
74.9508
 21
5.94263
  0
LINE
  8
0
 10
74.9508
 20
5.94263
 11
74.7946
 21
5.63599
  0
LINE
  8
0
 10
74.7946
 20
5.63599
 11
74.5512
 21
5.39264
  0
LINE
  8
0
 10
74.5512
 20
5.39264
 11
74.2446
 21
5.23639
  0
LINE
  8
0
 10
74.2446
 20
5.23639
 11
73.9047
 21
5.18256
  0
LINE
  8
0
 10
73.9047
 20
5.18256
 11
73.5648
 21
5.23639
  0
LINE
  8
0
 10
-12.2446
 20
-39.3287
 11
-12.5512
 21
-39.1725
  0
LINE
  8
0
 10
-12.5512
 20
-39.1725
 11
-12.7946
 21
-38.9291
  0
LINE
  8
0
 10
-12.7946
 20
-38.9291
 11
-12.9508
 21
-38.6225
  0
LINE
  8
0
 10
-12.9508
 20
-38.6225
 11
-13.0047
 21
-38.2825
  0
LINE
  8
0
 10
-13.0047
 20
-38.2825
 11
-12.9508
 21
-37.9426
  0
LINE
  8
0
 10
-12.9508
 20
-37.9426
 11
-12.7946
 21
-37.636
  0
LINE
  8
0
 10
-12.7946
 20
-37.636
 11
-12.5512
 21
-37.3926
  0
LINE
  8
0
 10
-12.5512
 20
-37.3926
 11
-12.2446
 21
-37.2364
  0
LINE
  8
0
 10
-12.2446
 20
-37.2364
 11
-11.9047
 21
-37.1826
  0
LINE
  8
0
 10
-11.9047
 20
-37.1826
 11
-11.5648
 21
-37.2364
  0
LINE
  8
0
 10
-11.5648
 20
-37.2364
 11
-11.2581
 21
-37.3926
  0
LINE
  8
0
 10
-11.2581
 20
-37.3926
 11
-11.0148
 21
-37.636
  0
LINE
  8
0
 10
-11.0148
 20
-37.636
 11
-10.8585
 21
-37.9426
  0
LINE
  8
0
 10
-10.8585
 20
-37.9426
 11
-10.8047
 21
-38.2825
  0
LINE
  8
0
 10
-10.8047
 20
-38.2825
 11
-10.8585
 21
-38.6225
  0
LINE
  8
0
 10
-10.8585
 20
-38.6225
 11
-11.0148
 21
-38.9291
  0
LINE
  8
0
 10
-11.0148
 20
-38.9291
 11
-11.2581
 21
-39.1725
  0
LINE
  8
0
 10
-11.2581
 20
-39.1725
 11
-11.5648
 21
-39.3287
  0
LINE
  8
0
 10
-11.5648
 20
-39.3287
 11
-11.9047
 21
-39.3826
  0
LINE
  8
0
 10
-11.9047
 20
-39.3826
 11
-12.2446
 21
-39.3287
  0
LINE
  8
0
 10
270.085
 20
-39.3287
 11
269.778
 21
-39.1725
  0
LINE
  8
0
 10
269.778
 20
-39.1725
 11
269.535
 21
-38.9291
  0
LINE
  8
0
 10
269.535
 20
-38.9291
 11
269.379
 21
-38.6225
  0
LINE
  8
0
 10
269.379
 20
-38.6225
 11
269.325
 21
-38.2825
  0
LINE
  8
0
 10
269.325
 20
-38.2825
 11
269.379
 21
-37.9426
  0
LINE
  8
0
 10
269.379
 20
-37.9426
 11
269.535
 21
-37.636
  0
LINE
  8
0
 10
269.535
 20
-37.636
 11
269.778
 21
-37.3926
  0
LINE
  8
0
 10
269.778
 20
-37.3926
 11
270.085
 21
-37.2364
  0
LINE
  8
0
 10
270.085
 20
-37.2364
 11
270.425
 21
-37.1826
  0
LINE
  8
0
 10
270.425
 20
-37.1826
 11
270.765
 21
-37.2364
  0
LINE
  8
0
 10
270.765
 20
-37.2364
 11
271.072
 21
-37.3926
  0
LINE
  8
0
 10
271.072
 20
-37.3926
 11
271.315
 21
-37.636
  0
LINE
  8
0
 10
271.315
 20
-37.636
 11
271.471
 21
-37.9426
  0
LINE
  8
0
 10
271.471
 20
-37.9426
 11
271.525
 21
-38.2825
  0
LINE
  8
0
 10
271.525
 20
-38.2825
 11
271.471
 21
-38.6225
  0
LINE
  8
0
 10
271.471
 20
-38.6225
 11
271.315
 21
-38.9291
  0
LINE
  8
0
 10
271.315
 20
-38.9291
 11
271.072
 21
-39.1725
  0
LINE
  8
0
 10
271.072
 20
-39.1725
 11
270.765
 21
-39.3287
  0
LINE
  8
0
 10
270.765
 20
-39.3287
 11
270.425
 21
-39.3826
  0
LINE
  8
0
 10
270.425
 20
-39.3826
 11
270.085
 21
-39.3287
  0
LINE
  8
0
 10
-8.2446
 20
-82.3287
 11
-8.55124
 21
-82.1725
  0
LINE
  8
0
 10
-8.55124
 20
-82.1725
 11
-8.79459
 21
-81.9291
  0
LINE
  8
0
 10
-8.79459
 20
-81.9291
 11
-8.95084
 21
-81.6225
  0
LINE
  8
0
 10
-8.95084
 20
-81.6225
 11
-9.00467
 21
-81.2825
  0
LINE
  8
0
 10
-9.00467
 20
-81.2825
 11
-8.95084
 21
-80.9426
  0
LINE
  8
0
 10
-8.95084
 20
-80.9426
 11
-8.79459
 21
-80.636
  0
LINE
  8
0
 10
-8.79459
 20
-80.636
 11
-8.55124
 21
-80.3926
  0
LINE
  8
0
 10
-8.55124
 20
-80.3926
 11
-8.2446
 21
-80.2364
  0
LINE
  8
0
 10
-8.2446
 20
-80.2364
 11
-7.90468
 21
-80.1826
  0
LINE
  8
0
 10
-7.90468
 20
-80.1826
 11
-7.56476
 21
-80.2364
  0
LINE
  8
0
 10
-7.56476
 20
-80.2364
 11
-7.2581
 21
-80.3926
  0
LINE
  8
0
 10
-7.2581
 20
-80.3926
 11
-7.01476
 21
-80.636
  0
LINE
  8
0
 10
-7.01476
 20
-80.636
 11
-6.85851
 21
-80.9426
  0
LINE
  8
0
 10
-6.85851
 20
-80.9426
 11
-6.80467
 21
-81.2825
  0
LINE
  8
0
 10
-6.80467
 20
-81.2825
 11
-6.85851
 21
-81.6225
  0
LINE
  8
0
 10
-6.85851
 20
-81.6225
 11
-7.01476
 21
-81.9291
  0
LINE
  8
0
 10
-7.01476
 20
-81.9291
 11
-7.2581
 21
-82.1725
  0
LINE
  8
0
 10
-7.2581
 20
-82.1725
 11
-7.56476
 21
-82.3287
  0
LINE
  8
0
 10
-7.56476
 20
-82.3287
 11
-7.90468
 21
-82.3826
  0
LINE
  8
0
 10
-7.90468
 20
-82.3826
 11
-8.2446
 21
-82.3287
  0
LINE
  8
0
 10
266.085
 20
-82.3287
 11
265.778
 21
-82.1725
  0
LINE
  8
0
 10
265.778
 20
-82.1725
 11
265.535
 21
-81.9291
  0
LINE
  8
0
 10
265.535
 20
-81.9291
 11
265.379
 21
-81.6225
  0
LINE
  8
0
 10
265.379
 20
-81.6225
 11
265.325
 21
-81.2825
  0
LINE
  8
0
 10
265.325
 20
-81.2825
 11
265.379
 21
-80.9426
  0
LINE
  8
0
 10
265.379
 20
-80.9426
 11
265.535
 21
-80.636
  0
LINE
  8
0
 10
265.535
 20
-80.636
 11
265.778
 21
-80.3926
  0
LINE
  8
0
 10
265.778
 20
-80.3926
 11
266.085
 21
-80.2364
  0
LINE
  8
0
 10
266.085
 20
-80.2364
 11
266.425
 21
-80.1826
  0
LINE
  8
0
 10
266.425
 20
-80.1826
 11
266.765
 21
-80.2364
  0
LINE
  8
0
 10
266.765
 20
-80.2364
 11
267.072
 21
-80.3926
  0
LINE
  8
0
 10
267.072
 20
-80.3926
 11
267.315
 21
-80.636
  0
LINE
  8
0
 10
267.315
 20
-80.636
 11
267.471
 21
-80.9426
  0
LINE
  8
0
 10
267.471
 20
-80.9426
 11
267.525
 21
-81.2825
  0
LINE
  8
0
 10
267.525
 20
-81.2825
 11
267.471
 21
-81.6225
  0
LINE
  8
0
 10
267.471
 20
-81.6225
 11
267.315
 21
-81.9291
  0
LINE
  8
0
 10
267.315
 20
-81.9291
 11
267.072
 21
-82.1725
  0
LINE
  8
0
 10
267.072
 20
-82.1725
 11
266.765
 21
-82.3287
  0
LINE
  8
0
 10
266.765
 20
-82.3287
 11
266.425
 21
-82.3826
  0
LINE
  8
0
 10
266.425
 20
-82.3826
 11
266.085
 21
-82.3287
  0
LINE
  8
0
 10
43.5648
 20
-82.3287
 11
43.2581
 21
-82.1725
  0
LINE
  8
0
 10
43.2581
 20
-82.1725
 11
43.0148
 21
-81.9291
  0
LINE
  8
0
 10
43.0148
 20
-81.9291
 11
42.8585
 21
-81.6225
  0
LINE
  8
0
 10
42.8585
 20
-81.6225
 11
42.8047
 21
-81.2825
  0
LINE
  8
0
 10
42.8047
 20
-81.2825
 11
42.8585
 21
-80.9426
  0
LINE
  8
0
 10
42.8585
 20
-80.9426
 11
43.0148
 21
-80.636
  0
LINE
  8
0
 10
43.0148
 20
-80.636
 11
43.2581
 21
-80.3926
  0
LINE
  8
0
 10
43.2581
 20
-80.3926
 11
43.5648
 21
-80.2364
  0
LINE
  8
0
 10
43.5648
 20
-80.2364
 11
43.9047
 21
-80.1826
  0
LINE
  8
0
 10
43.9047
 20
-80.1826
 11
44.2446
 21
-80.2364
  0
LINE
  8
0
 10
44.2446
 20
-80.2364
 11
44.5512
 21
-80.3926
  0
LINE
  8
0
 10
44.5512
 20
-80.3926
 11
44.7946
 21
-80.636
  0
LINE
  8
0
 10
44.7946
 20
-80.636
 11
44.9508
 21
-80.9426
  0
LINE
  8
0
 10
44.9508
 20
-80.9426
 11
45.0047
 21
-81.2825
  0
LINE
  8
0
 10
45.0047
 20
-81.2825
 11
44.9508
 21
-81.6225
  0
LINE
  8
0
 10
44.9508
 20
-81.6225
 11
44.7946
 21
-81.9291
  0
LINE
  8
0
 10
44.7946
 20
-81.9291
 11
44.5512
 21
-82.1725
  0
LINE
  8
0
 10
44.5512
 20
-82.1725
 11
44.2446
 21
-82.3287
  0
LINE
  8
0
 10
44.2446
 20
-82.3287
 11
43.9047
 21
-82.3826
  0
LINE
  8
0
 10
43.9047
 20
-82.3826
 11
43.5648
 21
-82.3287
  0
LINE
  8
0
 10
228.085
 20
-82.3287
 11
227.778
 21
-82.1725
  0
LINE
  8
0
 10
227.778
 20
-82.1725
 11
227.535
 21
-81.9291
  0
LINE
  8
0
 10
227.535
 20
-81.9291
 11
227.379
 21
-81.6225
  0
LINE
  8
0
 10
227.379
 20
-81.6225
 11
227.325
 21
-81.2825
  0
LINE
  8
0
 10
227.325
 20
-81.2825
 11
227.379
 21
-80.9426
  0
LINE
  8
0
 10
227.379
 20
-80.9426
 11
227.535
 21
-80.636
  0
LINE
  8
0
 10
227.535
 20
-80.636
 11
227.778
 21
-80.3926
  0
LINE
  8
0
 10
227.778
 20
-80.3926
 11
228.085
 21
-80.2364
  0
LINE
  8
0
 10
228.085
 20
-80.2364
 11
228.425
 21
-80.1826
  0
LINE
  8
0
 10
228.425
 20
-80.1826
 11
228.765
 21
-80.2364
  0
LINE
  8
0
 10
228.765
 20
-80.2364
 11
229.072
 21
-80.3926
  0
LINE
  8
0
 10
229.072
 20
-80.3926
 11
229.315
 21
-80.636
  0
LINE
  8
0
 10
229.315
 20
-80.636
 11
229.471
 21
-80.9426
  0
LINE
  8
0
 10
229.471
 20
-80.9426
 11
229.525
 21
-81.2825
  0
LINE
  8
0
 10
229.525
 20
-81.2825
 11
229.471
 21
-81.6225
  0
LINE
  8
0
 10
229.471
 20
-81.6225
 11
229.315
 21
-81.9291
  0
LINE
  8
0
 10
229.315
 20
-81.9291
 11
229.072
 21
-82.1725
  0
LINE
  8
0
 10
229.072
 20
-82.1725
 11
228.765
 21
-82.3287
  0
LINE
  8
0
 10
228.765
 20
-82.3287
 11
228.425
 21
-82.3826
  0
LINE
  8
0
 10
228.425
 20
-82.3826
 11
228.085
 21
-82.3287
  0
ENDSEC
  0
SECTION
  2
OBJECTS
  0
DICTIONARY
  0
ENDSEC
  0
EOF
