  0
SECTION
  2
BLOCKS
  0
ENDSEC
  0
SECTION
  2
ENTITIES
  0
LINE
  8
0
 10
151.763
 20
-107.889
 11
228.044
 21
-91.6572
  0
LINE
  8
0
 10
228.044
 20
-91.6572
 11
262.89
 21
-91.6572
  0
LINE
  8
0
 10
262.89
 20
-91.6572
 11
266.008
 21
-91.3294
  0
LINE
  8
0
 10
266.008
 20
-91.3294
 11
268.991
 21
-90.3604
  0
LINE
  8
0
 10
268.991
 20
-90.3604
 11
271.706
 21
-88.7925
  0
LINE
  8
0
 10
271.706
 20
-88.7925
 11
274.037
 21
-86.6942
  0
LINE
  8
0
 10
274.037
 20
-86.6942
 11
275.88
 21
-84.1572
  0
LINE
  8
0
 10
275.88
 20
-84.1572
 11
277.156
 21
-81.2925
  0
LINE
  8
0
 10
277.156
 20
-81.2925
 11
277.89
 21
-76.6572
  0
LINE
  8
0
 10
277.89
 20
-76.6572
 11
277.89
 21
-0.457031
  0
LINE
  8
0
 10
277.89
 20
-0.457031
 11
277.562
 21
2.66165
  0
LINE
  8
0
 10
277.562
 20
2.66165
 11
276.593
 21
5.64401
  0
LINE
  8
0
 10
276.593
 20
5.64401
 11
275.025
 21
8.35974
  0
LINE
  8
0
 10
275.025
 20
8.35974
 11
272.927
 21
10.6901
  0
LINE
  8
0
 10
272.927
 20
10.6901
 11
270.39
 21
12.5334
  0
LINE
  8
0
 10
270.39
 20
12.5334
 11
267.525
 21
13.8088
  0
LINE
  8
0
 10
267.525
 20
13.8088
 11
262.89
 21
14.543
  0
LINE
  8
0
 10
262.89
 20
14.543
 11
148
 21
14.543
  0
LINE
  8
0
 10
148
 20
14.543
 11
148
 21
-12
  0
LINE
  8
0
 10
148
 20
-12
 11
142
 21
-12
  0
LINE
  8
0
 10
142
 20
-12
 11
142
 21
-32
  0
LINE
  8
0
 10
142
 20
-32
 11
120
 21
-32
  0
LINE
  8
0
 10
120
 20
-32
 11
120
 21
14.543
  0
LINE
  8
0
 10
120
 20
14.543
 11
-4.36914
 21
14.543
  0
LINE
  8
0
 10
-4.36914
 20
14.543
 11
-7.48782
 21
14.2152
  0
LINE
  8
0
 10
-7.48782
 20
14.2152
 11
-10.4702
 21
13.2462
  0
LINE
  8
0
 10
-10.4702
 20
13.2462
 11
-13.1859
 21
11.6782
  0
LINE
  8
0
 10
-13.1859
 20
11.6782
 11
-15.5163
 21
9.57993
  0
LINE
  8
0
 10
-15.5163
 20
9.57993
 11
-17.3595
 21
7.04297
  0
LINE
  8
0
 10
-17.3595
 20
7.04297
 11
-18.635
 21
4.17822
  0
LINE
  8
0
 10
-18.635
 20
4.17822
 11
-19.3691
 21
-0.457031
  0
LINE
  8
0
 10
-19.3691
 20
-0.457031
 11
-19.3691
 21
-76.6572
  0
LINE
  8
0
 10
-19.3691
 20
-76.6572
 11
-19.0414
 21
-79.7759
  0
LINE
  8
0
 10
-19.0414
 20
-79.7759
 11
-18.0723
 21
-82.7583
  0
LINE
  8
0
 10
-18.0723
 20
-82.7583
 11
-16.5044
 21
-85.474
  0
LINE
  8
0
 10
-16.5044
 20
-85.474
 11
-14.4061
 21
-87.8044
  0
LINE
  8
0
 10
-14.4061
 20
-87.8044
 11
-11.8691
 21
-89.6476
  0
LINE
  8
0
 10
-11.8691
 20
-89.6476
 11
-9.00439
 21
-90.9231
  0
LINE
  8
0
 10
-9.00439
 20
-90.9231
 11
-4.36914
 21
-91.6572
  0
LINE
  8
0
 10
-4.36914
 20
-91.6572
 11
42.9167
 21
-91.6572
  0
LINE
  8
0
 10
42.9167
 20
-91.6572
 11
118.889
 21
-107.887
  0
LINE
  8
0
 10
118.889
 20
-107.887
 11
122.022
 21
-108.218
  0
LINE
  8
0
 10
122.022
 20
-108.218
 11
148.641
 21
-108.218
  0
LINE
  8
0
 10
148.641
 20
-108.218
 11
151.763
 21
-107.889
  0
LINE
  8
0
 10
-8.2446
 20
5.23639
 11
-8.55124
 21
5.39264
  0
LINE
  8
0
 10
-8.55124
 20
5.39264
 11
-8.79459
 21
5.63599
  0
LINE
  8
0
 10
-8.79459
 20
5.63599
 11
-8.95084
 21
5.94263
  0
LINE
  8
0
 10
-8.95084
 20
5.94263
 11
-9.00467
 21
6.28255
  0
LINE
  8
0
 10
-9.00467
 20
6.28255
 11
-8.95084
 21
6.62247
  0
LINE
  8
0
 10
-8.95084
 20
6.62247
 11
-8.79459
 21
6.92912
  0
LINE
  8
0
 10
-8.79459
 20
6.92912
 11
-8.55124
 21
7.17247
  0
LINE
  8
0
 10
-8.55124
 20
7.17247
 11
-8.2446
 21
7.32872
  0
LINE
  8
0
 10
-8.2446
 20
7.32872
 11
-7.90468
 21
7.38255
  0
LINE
  8
0
 10
-7.90468
 20
7.38255
 11
-7.56476
 21
7.32872
  0
LINE
  8
0
 10
-7.56476
 20
7.32872
 11
-7.2581
 21
7.17247
  0
LINE
  8
0
 10
-7.2581
 20
7.17247
 11
-7.01476
 21
6.92912
  0
LINE
  8
0
 10
-7.01476
 20
6.92912
 11
-6.85851
 21
6.62247
  0
LINE
  8
0
 10
-6.85851
 20
6.62247
 11
-6.80467
 21
6.28255
  0
LINE
  8
0
 10
-6.80467
 20
6.28255
 11
-6.85851
 21
5.94263
  0
LINE
  8
0
 10
-6.85851
 20
5.94263
 11
-7.01476
 21
5.63599
  0
LINE
  8
0
 10
-7.01476
 20
5.63599
 11
-7.2581
 21
5.39264
  0
LINE
  8
0
 10
-7.2581
 20
5.39264
 11
-7.56476
 21
5.23639
  0
LINE
  8
0
 10
-7.56476
 20
5.23639
 11
-7.90468
 21
5.18256
  0
LINE
  8
0
 10
-7.90468
 20
5.18256
 11
-8.2446
 21
5.23639
  0
LINE
  8
0
 10
73.5648
 20
5.23639
 11
73.2581
 21
5.39264
  0
LINE
  8
0
 10
73.2581
 20
5.39264
 11
73.0148
 21
5.63599
  0
LINE
  8
0
 10
73.0148
 20
5.63599
 11
72.8585
 21
5.94263
  0
LINE
  8
0
 10
72.8585
 20
5.94263
 11
72.8047
 21
6.28255
  0
LINE
  8
0
 10
72.8047
 20
6.28255
 11
72.8585
 21
6.62247
  0
LINE
  8
0
 10
72.8585
 20
6.62247
 11
73.0148
 21
6.92912
  0
LINE
  8
0
 10
73.0148
 20
6.92912
 11
73.2581
 21
7.17247
  0
LINE
  8
0
 10
73.2581
 20
7.17247
 11
73.5648
 21
7.32872
  0
LINE
  8
0
 10
73.5648
 20
7.32872
 11
73.9047
 21
7.38255
  0
LINE
  8
0
 10
73.9047
 20
7.38255
 11
74.2446
 21
7.32872
  0
LINE
  8
0
 10
74.2446
 20
7.32872
 11
74.5512
 21
7.17247
  0
LINE
  8
0
 10
74.5512
 20
7.17247
 11
74.7946
 21
6.92912
  0
LINE
  8
0
 10
74.7946
 20
6.92912
 11
74.9508
 21
6.62247
  0
LINE
  8
0
 10
74.9508
 20
6.62247
 11
75.0047
 21
6.28255
  0
LINE
  8
0
 10
75.0047
 20
6.28255
 11
74.9508
 21
5.94263
  0
LINE
  8
0
 10
74.9508
 20
5.94263
 11
74.7946
 21
5.63599
  0
LINE
  8
0
 10
74.7946
 20
5.63599
 11
74.5512
 21
5.39264
  0
LINE
  8
0
 10
74.5512
 20
5.39264
 11
74.2446
 21
5.23639
  0
LINE
  8
0
 10
74.2446
 20
5.23639
 11
73.9047
 21
5.18256
  0
LINE
  8
0
 10
73.9047
 20
5.18256
 11
73.5648
 21
5.23639
  0
LINE
  8
0
 10
186.085
 20
5.23639
 11
185.778
 21
5.39264
  0
LINE
  8
0
 10
185.778
 20
5.39264
 11
185.535
 21
5.63599
  0
LINE
  8
0
 10
185.535
 20
5.63599
 11
185.379
 21
5.94263
  0
LINE
  8
0
 10
185.379
 20
5.94263
 11
185.325
 21
6.28255
  0
LINE
  8
0
 10
185.325
 20
6.28255
 11
185.379
 21
6.62247
  0
LINE
  8
0
 10
185.379
 20
6.62247
 11
185.535
 21
6.92912
  0
LINE
  8
0
 10
185.535
 20
6.92912
 11
185.778
 21
7.17247
  0
LINE
  8
0
 10
185.778
 20
7.17247
 11
186.085
 21
7.32872
  0
LINE
  8
0
 10
186.085
 20
7.32872
 11
186.425
 21
7.38255
  0
LINE
  8
0
 10
186.425
 20
7.38255
 11
186.765
 21
7.32872
  0
LINE
  8
0
 10
186.765
 20
7.32872
 11
187.072
 21
7.17247
  0
LINE
  8
0
 10
187.072
 20
7.17247
 11
187.315
 21
6.92912
  0
LINE
  8
0
 10
187.315
 20
6.92912
 11
187.471
 21
6.62247
  0
LINE
  8
0
 10
187.471
 20
6.62247
 11
187.525
 21
6.28255
  0
LINE
  8
0
 10
187.525
 20
6.28255
 11
187.471
 21
5.94263
  0
LINE
  8
0
 10
187.471
 20
5.94263
 11
187.315
 21
5.63599
  0
LINE
  8
0
 10
187.315
 20
5.63599
 11
187.072
 21
5.39264
  0
LINE
  8
0
 10
187.072
 20
5.39264
 11
186.765
 21
5.23639
  0
LINE
  8
0
 10
186.765
 20
5.23639
 11
186.425
 21
5.18256
  0
LINE
  8
0
 10
186.425
 20
5.18256
 11
186.085
 21
5.23639
  0
LINE
  8
0
 10
266.085
 20
5.23639
 11
265.778
 21
5.39264
  0
LINE
  8
0
 10
265.778
 20
5.39264
 11
265.535
 21
5.63599
  0
LINE
  8
0
 10
265.535
 20
5.63599
 11
265.379
 21
5.94263
  0
LINE
  8
0
 10
265.379
 20
5.94263
 11
265.325
 21
6.28255
  0
LINE
  8
0
 10
265.325
 20
6.28255
 11
265.379
 21
6.62247
  0
LINE
  8
0
 10
265.379
 20
6.62247
 11
265.535
 21
6.92912
  0
LINE
  8
0
 10
265.535
 20
6.92912
 11
265.778
 21
7.17247
  0
LINE
  8
0
 10
265.778
 20
7.17247
 11
266.085
 21
7.32872
  0
LINE
  8
0
 10
266.085
 20
7.32872
 11
266.425
 21
7.38255
  0
LINE
  8
0
 10
266.425
 20
7.38255
 11
266.765
 21
7.32872
  0
LINE
  8
0
 10
266.765
 20
7.32872
 11
267.072
 21
7.17247
  0
LINE
  8
0
 10
267.072
 20
7.17247
 11
267.315
 21
6.92912
  0
LINE
  8
0
 10
267.315
 20
6.92912
 11
267.471
 21
6.62247
  0
LINE
  8
0
 10
267.471
 20
6.62247
 11
267.525
 21
6.28255
  0
LINE
  8
0
 10
267.525
 20
6.28255
 11
267.471
 21
5.94263
  0
LINE
  8
0
 10
267.471
 20
5.94263
 11
267.315
 21
5.63599
  0
LINE
  8
0
 10
267.315
 20
5.63599
 11
267.072
 21
5.39264
  0
LINE
  8
0
 10
267.072
 20
5.39264
 11
266.765
 21
5.23639
  0
LINE
  8
0
 10
266.765
 20
5.23639
 11
266.425
 21
5.18256
  0
LINE
  8
0
 10
266.425
 20
5.18256
 11
266.085
 21
5.23639
  0
LINE
  8
0
 10
226.43
 20
-15.6299
 11
226.43
 21
-1.83008
  0
LINE
  8
0
 10
226.43
 20
-1.83008
 11
240.23
 21
-1.83008
  0
LINE
  8
0
 10
240.23
 20
-1.83008
 11
240.23
 21
-15.6299
  0
LINE
  8
0
 10
240.23
 20
-15.6299
 11
226.43
 21
-15.6299
  0
LINE
  8
0
 10
45.0967
 20
-15.7246
 11
47.9658
 21
-2.22559
  0
LINE
  8
0
 10
47.9658
 20
-2.22559
 11
61.4648
 21
-5.09473
  0
LINE
  8
0
 10
61.4648
 20
-5.09473
 11
58.5947
 21
-18.5938
  0
LINE
  8
0
 10
58.5947
 20
-18.5938
 11
45.0967
 21
-15.7246
  0
LINE
  8
0
 10
245.48
 20
-16.9004
 11
245.48
 21
-3.09961
  0
LINE
  8
0
 10
245.48
 20
-3.09961
 11
259.28
 21
-3.09961
  0
LINE
  8
0
 10
259.28
 20
-3.09961
 11
259.28
 21
-16.9004
  0
LINE
  8
0
 10
259.28
 20
-16.9004
 11
245.48
 21
-16.9004
  0
LINE
  8
0
 10
22.1504
 20
-16.9004
 11
22.1504
 21
-3.09961
  0
LINE
  8
0
 10
22.1504
 20
-3.09961
 11
35.9502
 21
-3.09961
  0
LINE
  8
0
 10
35.9502
 20
-3.09961
 11
35.9502
 21
-16.9004
  0
LINE
  8
0
 10
35.9502
 20
-16.9004
 11
22.1504
 21
-16.9004
  0
LINE
  8
0
 10
3.09961
 20
-16.9004
 11
3.09961
 21
-3.09961
  0
LINE
  8
0
 10
3.09961
 20
-3.09961
 11
16.9004
 21
-3.09961
  0
LINE
  8
0
 10
16.9004
 20
-3.09961
 11
16.9004
 21
-16.9004
  0
LINE
  8
0
 10
16.9004
 20
-16.9004
 11
3.09961
 21
-16.9004
  0
LINE
  8
0
 10
201.129
 20
-6.81055
 11
214.627
 21
-3.94141
  0
LINE
  8
0
 10
214.627
 20
-3.94141
 11
217.497
 21
-17.4395
  0
LINE
  8
0
 10
217.497
 20
-17.4395
 11
203.998
 21
-20.3096
  0
LINE
  8
0
 10
203.998
 20
-20.3096
 11
201.129
 21
-6.81055
  0
LINE
  8
0
 10
63.7305
 20
-19.6846
 11
66.5996
 21
-6.18652
  0
LINE
  8
0
 10
66.5996
 20
-6.18652
 11
80.0977
 21
-9.05566
  0
LINE
  8
0
 10
80.0977
 20
-9.05566
 11
77.2285
 21
-22.5547
  0
LINE
  8
0
 10
77.2285
 20
-22.5547
 11
63.7305
 21
-19.6846
  0
LINE
  8
0
 10
182.495
 20
-10.7715
 11
195.994
 21
-7.90234
  0
LINE
  8
0
 10
195.994
 20
-7.90234
 11
198.863
 21
-21.4004
  0
LINE
  8
0
 10
198.863
 20
-21.4004
 11
185.365
 21
-24.2695
  0
LINE
  8
0
 10
185.365
 20
-24.2695
 11
182.495
 21
-10.7715
  0
LINE
  8
0
 10
82.3643
 20
-23.6455
 11
85.2334
 21
-10.1475
  0
LINE
  8
0
 10
85.2334
 20
-10.1475
 11
98.7314
 21
-13.0166
  0
LINE
  8
0
 10
98.7314
 20
-13.0166
 11
95.8623
 21
-26.5146
  0
LINE
  8
0
 10
95.8623
 20
-26.5146
 11
82.3643
 21
-23.6455
  0
LINE
  8
0
 10
163.862
 20
-14.7324
 11
177.36
 21
-11.8633
  0
LINE
  8
0
 10
177.36
 20
-11.8633
 11
180.229
 21
-25.3613
  0
LINE
  8
0
 10
180.229
 20
-25.3613
 11
166.731
 21
-28.2305
  0
LINE
  8
0
 10
166.731
 20
-28.2305
 11
163.862
 21
-14.7324
  0
LINE
  8
0
 10
100.998
 20
-27.6064
 11
103.867
 21
-14.1084
  0
LINE
  8
0
 10
103.867
 20
-14.1084
 11
117.365
 21
-16.9775
  0
LINE
  8
0
 10
117.365
 20
-16.9775
 11
114.496
 21
-30.4756
  0
LINE
  8
0
 10
114.496
 20
-30.4756
 11
100.998
 21
-27.6064
  0
LINE
  8
0
 10
145.228
 20
-18.6924
 11
158.726
 21
-15.8232
  0
LINE
  8
0
 10
158.726
 20
-15.8232
 11
161.596
 21
-29.3223
  0
LINE
  8
0
 10
161.596
 20
-29.3223
 11
148.097
 21
-32.1914
  0
LINE
  8
0
 10
148.097
 20
-32.1914
 11
145.228
 21
-18.6924
  0
LINE
  8
0
 10
209.748
 20
-24.4541
 11
223.247
 21
-21.585
  0
LINE
  8
0
 10
223.247
 20
-21.585
 11
226.116
 21
-35.083
  0
LINE
  8
0
 10
226.116
 20
-35.083
 11
212.617
 21
-37.9521
  0
LINE
  8
0
 10
212.617
 20
-37.9521
 11
209.748
 21
-24.4541
  0
LINE
  8
0
 10
45.7949
 20
-35.3486
 11
48.6641
 21
-21.8496
  0
LINE
  8
0
 10
48.6641
 20
-21.8496
 11
62.1621
 21
-24.7188
  0
LINE
  8
0
 10
62.1621
 20
-24.7188
 11
59.293
 21
-38.2178
  0
LINE
  8
0
 10
59.293
 20
-38.2178
 11
45.7949
 21
-35.3486
  0
LINE
  8
0
 10
3.09961
 20
-35.9502
 11
3.09961
 21
-22.1504
  0
LINE
  8
0
 10
3.09961
 20
-22.1504
 11
16.9004
 21
-22.1504
  0
LINE
  8
0
 10
16.9004
 20
-22.1504
 11
16.9004
 21
-35.9502
  0
LINE
  8
0
 10
16.9004
 20
-35.9502
 11
3.09961
 21
-35.9502
  0
LINE
  8
0
 10
24.5312
 20
-35.9502
 11
24.5312
 21
-22.1504
  0
LINE
  8
0
 10
24.5312
 20
-22.1504
 11
38.3311
 21
-22.1504
  0
LINE
  8
0
 10
38.3311
 20
-22.1504
 11
38.3311
 21
-35.9502
  0
LINE
  8
0
 10
38.3311
 20
-35.9502
 11
24.5312
 21
-35.9502
  0
LINE
  8
0
 10
240.718
 20
-35.9502
 11
240.718
 21
-22.1504
  0
LINE
  8
0
 10
240.718
 20
-22.1504
 11
254.517
 21
-22.1504
  0
LINE
  8
0
 10
254.517
 20
-22.1504
 11
254.517
 21
-35.9502
  0
LINE
  8
0
 10
254.517
 20
-35.9502
 11
240.718
 21
-35.9502
  0
LINE
  8
0
 10
191.114
 20
-28.415
 11
204.613
 21
-25.5459
  0
LINE
  8
0
 10
204.613
 20
-25.5459
 11
207.482
 21
-39.0439
  0
LINE
  8
0
 10
207.482
 20
-39.0439
 11
193.984
 21
-41.9131
  0
LINE
  8
0
 10
193.984
 20
-41.9131
 11
191.114
 21
-28.415
  0
LINE
  8
0
 10
64.4277
 20
-39.3086
 11
67.2969
 21
-25.8105
  0
LINE
  8
0
 10
67.2969
 20
-25.8105
 11
80.7959
 21
-28.6797
  0
LINE
  8
0
 10
80.7959
 20
-28.6797
 11
77.9268
 21
-42.1777
  0
LINE
  8
0
 10
77.9268
 20
-42.1777
 11
64.4277
 21
-39.3086
  0
LINE
  8
0
 10
172.481
 20
-32.376
 11
185.979
 21
-29.5068
  0
LINE
  8
0
 10
185.979
 20
-29.5068
 11
188.848
 21
-43.0049
  0
LINE
  8
0
 10
188.848
 20
-43.0049
 11
175.35
 21
-45.874
  0
LINE
  8
0
 10
175.35
 20
-45.874
 11
172.481
 21
-32.376
  0
LINE
  8
0
 10
83.0615
 20
-43.2695
 11
85.9307
 21
-29.7715
  0
LINE
  8
0
 10
85.9307
 20
-29.7715
 11
99.4297
 21
-32.6406
  0
LINE
  8
0
 10
99.4297
 20
-32.6406
 11
96.5605
 21
-46.1387
  0
LINE
  8
0
 10
96.5605
 20
-46.1387
 11
83.0615
 21
-43.2695
  0
LINE
  8
0
 10
153.847
 20
-36.3359
 11
167.345
 21
-33.4668
  0
LINE
  8
0
 10
167.345
 20
-33.4668
 11
170.215
 21
-46.9658
  0
LINE
  8
0
 10
170.215
 20
-46.9658
 11
156.716
 21
-49.835
  0
LINE
  8
0
 10
156.716
 20
-49.835
 11
153.847
 21
-36.3359
  0
LINE
  8
0
 10
101.696
 20
-47.2305
 11
104.565
 21
-33.7314
  0
LINE
  8
0
 10
104.565
 20
-33.7314
 11
118.063
 21
-36.6016
  0
LINE
  8
0
 10
118.063
 20
-36.6016
 11
115.194
 21
-50.0996
  0
LINE
  8
0
 10
115.194
 20
-50.0996
 11
101.696
 21
-47.2305
  0
LINE
  8
0
 10
270.085
 20
-39.3287
 11
269.778
 21
-39.1725
  0
LINE
  8
0
 10
269.778
 20
-39.1725
 11
269.535
 21
-38.9291
  0
LINE
  8
0
 10
269.535
 20
-38.9291
 11
269.379
 21
-38.6225
  0
LINE
  8
0
 10
269.379
 20
-38.6225
 11
269.325
 21
-38.2825
  0
LINE
  8
0
 10
269.325
 20
-38.2825
 11
269.379
 21
-37.9426
  0
LINE
  8
0
 10
269.379
 20
-37.9426
 11
269.535
 21
-37.636
  0
LINE
  8
0
 10
269.535
 20
-37.636
 11
269.778
 21
-37.3926
  0
LINE
  8
0
 10
269.778
 20
-37.3926
 11
270.085
 21
-37.2364
  0
LINE
  8
0
 10
270.085
 20
-37.2364
 11
270.425
 21
-37.1826
  0
LINE
  8
0
 10
270.425
 20
-37.1826
 11
270.765
 21
-37.2364
  0
LINE
  8
0
 10
270.765
 20
-37.2364
 11
271.072
 21
-37.3926
  0
LINE
  8
0
 10
271.072
 20
-37.3926
 11
271.315
 21
-37.636
  0
LINE
  8
0
 10
271.315
 20
-37.636
 11
271.471
 21
-37.9426
  0
LINE
  8
0
 10
271.471
 20
-37.9426
 11
271.525
 21
-38.2825
  0
LINE
  8
0
 10
271.525
 20
-38.2825
 11
271.471
 21
-38.6225
  0
LINE
  8
0
 10
271.471
 20
-38.6225
 11
271.315
 21
-38.9291
  0
LINE
  8
0
 10
271.315
 20
-38.9291
 11
271.072
 21
-39.1725
  0
LINE
  8
0
 10
271.072
 20
-39.1725
 11
270.765
 21
-39.3287
  0
LINE
  8
0
 10
270.765
 20
-39.3287
 11
270.425
 21
-39.3826
  0
LINE
  8
0
 10
270.425
 20
-39.3826
 11
270.085
 21
-39.3287
  0
LINE
  8
0
 10
-12.2446
 20
-39.3287
 11
-12.5512
 21
-39.1725
  0
LINE
  8
0
 10
-12.5512
 20
-39.1725
 11
-12.7946
 21
-38.9291
  0
LINE
  8
0
 10
-12.7946
 20
-38.9291
 11
-12.9508
 21
-38.6225
  0
LINE
  8
0
 10
-12.9508
 20
-38.6225
 11
-13.0047
 21
-38.2825
  0
LINE
  8
0
 10
-13.0047
 20
-38.2825
 11
-12.9508
 21
-37.9426
  0
LINE
  8
0
 10
-12.9508
 20
-37.9426
 11
-12.7946
 21
-37.636
  0
LINE
  8
0
 10
-12.7946
 20
-37.636
 11
-12.5512
 21
-37.3926
  0
LINE
  8
0
 10
-12.5512
 20
-37.3926
 11
-12.2446
 21
-37.2364
  0
LINE
  8
0
 10
-12.2446
 20
-37.2364
 11
-11.9047
 21
-37.1826
  0
LINE
  8
0
 10
-11.9047
 20
-37.1826
 11
-11.5648
 21
-37.2364
  0
LINE
  8
0
 10
-11.5648
 20
-37.2364
 11
-11.2581
 21
-37.3926
  0
LINE
  8
0
 10
-11.2581
 20
-37.3926
 11
-11.0148
 21
-37.636
  0
LINE
  8
0
 10
-11.0148
 20
-37.636
 11
-10.8585
 21
-37.9426
  0
LINE
  8
0
 10
-10.8585
 20
-37.9426
 11
-10.8047
 21
-38.2825
  0
LINE
  8
0
 10
-10.8047
 20
-38.2825
 11
-10.8585
 21
-38.6225
  0
LINE
  8
0
 10
-10.8585
 20
-38.6225
 11
-11.0148
 21
-38.9291
  0
LINE
  8
0
 10
-11.0148
 20
-38.9291
 11
-11.2581
 21
-39.1725
  0
LINE
  8
0
 10
-11.2581
 20
-39.1725
 11
-11.5648
 21
-39.3287
  0
LINE
  8
0
 10
-11.5648
 20
-39.3287
 11
-11.9047
 21
-39.3826
  0
LINE
  8
0
 10
-11.9047
 20
-39.3826
 11
-12.2446
 21
-39.3287
  0
LINE
  8
0
 10
247.861
 20
-55
 11
247.861
 21
-41.2002
  0
LINE
  8
0
 10
247.861
 20
-41.2002
 11
261.661
 21
-41.2002
  0
LINE
  8
0
 10
261.661
 20
-41.2002
 11
261.661
 21
-55
  0
LINE
  8
0
 10
261.661
 20
-55
 11
247.861
 21
-55
  0
LINE
  8
0
 10
226.43
 20
-55
 11
226.43
 21
-41.2002
  0
LINE
  8
0
 10
226.43
 20
-41.2002
 11
240.23
 21
-41.2002
  0
LINE
  8
0
 10
240.23
 20
-41.2002
 11
240.23
 21
-55
  0
LINE
  8
0
 10
240.23
 20
-55
 11
226.43
 21
-55
  0
LINE
  8
0
 10
31.6748
 20
-55
 11
31.6748
 21
-41.2002
  0
LINE
  8
0
 10
31.6748
 20
-41.2002
 11
45.4746
 21
-41.2002
  0
LINE
  8
0
 10
45.4746
 20
-41.2002
 11
45.4746
 21
-55
  0
LINE
  8
0
 10
45.4746
 20
-55
 11
31.6748
 21
-55
  0
LINE
  8
0
 10
5.48145
 20
-55
 11
5.48145
 21
-41.2002
  0
LINE
  8
0
 10
5.48145
 20
-41.2002
 11
19.2812
 21
-41.2002
  0
LINE
  8
0
 10
19.2812
 20
-41.2002
 11
19.2812
 21
-55
  0
LINE
  8
0
 10
19.2812
 20
-55
 11
5.48145
 21
-55
  0
LINE
  8
0
 10
204.392
 20
-45.0684
 11
217.89
 21
-42.1992
  0
LINE
  8
0
 10
217.89
 20
-42.1992
 11
220.76
 21
-55.6973
  0
LINE
  8
0
 10
220.76
 20
-55.6973
 11
207.261
 21
-58.5664
  0
LINE
  8
0
 10
207.261
 20
-58.5664
 11
204.392
 21
-45.0684
  0
LINE
  8
0
 10
51.1504
 20
-55.9619
 11
54.0195
 21
-42.4639
  0
LINE
  8
0
 10
54.0195
 20
-42.4639
 11
67.5186
 21
-45.333
  0
LINE
  8
0
 10
67.5186
 20
-45.333
 11
64.6494
 21
-58.8311
  0
LINE
  8
0
 10
64.6494
 20
-58.8311
 11
51.1504
 21
-55.9619
  0
LINE
  8
0
 10
185.758
 20
-49.0293
 11
199.257
 21
-46.1602
  0
LINE
  8
0
 10
199.257
 20
-46.1602
 11
202.126
 21
-59.6582
  0
LINE
  8
0
 10
202.126
 20
-59.6582
 11
188.628
 21
-62.5273
  0
LINE
  8
0
 10
188.628
 20
-62.5273
 11
185.758
 21
-49.0293
  0
LINE
  8
0
 10
69.7842
 20
-59.9229
 11
72.6533
 21
-46.4248
  0
LINE
  8
0
 10
72.6533
 20
-46.4248
 11
86.1523
 21
-49.2939
  0
LINE
  8
0
 10
86.1523
 20
-49.2939
 11
83.2822
 21
-62.792
  0
LINE
  8
0
 10
83.2822
 20
-62.792
 11
69.7842
 21
-59.9229
  0
LINE
  8
0
 10
167.125
 20
-52.9893
 11
180.623
 21
-50.1201
  0
LINE
  8
0
 10
180.623
 20
-50.1201
 11
183.492
 21
-63.6191
  0
LINE
  8
0
 10
183.492
 20
-63.6191
 11
169.994
 21
-66.4883
  0
LINE
  8
0
 10
169.994
 20
-66.4883
 11
167.125
 21
-52.9893
  0
LINE
  8
0
 10
88.418
 20
-63.8838
 11
91.2871
 21
-50.3848
  0
LINE
  8
0
 10
91.2871
 20
-50.3848
 11
104.786
 21
-53.2549
  0
LINE
  8
0
 10
104.786
 20
-53.2549
 11
101.916
 21
-66.7529
  0
LINE
  8
0
 10
101.916
 20
-66.7529
 11
88.418
 21
-63.8838
  0
LINE
  8
0
 10
148.491
 20
-56.9502
 11
161.989
 21
-54.0811
  0
LINE
  8
0
 10
161.989
 20
-54.0811
 11
164.859
 21
-67.5801
  0
LINE
  8
0
 10
164.859
 20
-67.5801
 11
151.36
 21
-70.4492
  0
LINE
  8
0
 10
151.36
 20
-70.4492
 11
148.491
 21
-56.9502
  0
LINE
  8
0
 10
107.052
 20
-67.8447
 11
109.921
 21
-54.3457
  0
LINE
  8
0
 10
109.921
 20
-54.3457
 11
123.419
 21
-57.2148
  0
LINE
  8
0
 10
123.419
 20
-57.2148
 11
120.55
 21
-70.7139
  0
LINE
  8
0
 10
120.55
 20
-70.7139
 11
107.052
 21
-67.8447
  0
LINE
  8
0
 10
240.718
 20
-74.0498
 11
240.718
 21
-60.25
  0
LINE
  8
0
 10
240.718
 20
-60.25
 11
254.517
 21
-60.25
  0
LINE
  8
0
 10
254.517
 20
-60.25
 11
254.517
 21
-74.0498
  0
LINE
  8
0
 10
254.517
 20
-74.0498
 11
240.718
 21
-74.0498
  0
LINE
  8
0
 10
9.4502
 20
-74.0498
 11
9.4502
 21
-60.25
  0
LINE
  8
0
 10
9.4502
 20
-60.25
 11
23.25
 21
-60.25
  0
LINE
  8
0
 10
23.25
 20
-60.25
 11
23.25
 21
-74.0498
  0
LINE
  8
0
 10
23.25
 20
-74.0498
 11
9.4502
 21
-74.0498
  0
LINE
  8
0
 10
51.8486
 20
-75.5859
 11
54.7178
 21
-62.0879
  0
LINE
  8
0
 10
54.7178
 20
-62.0879
 11
68.2158
 21
-64.957
  0
LINE
  8
0
 10
68.2158
 20
-64.957
 11
65.3467
 21
-78.4551
  0
LINE
  8
0
 10
65.3467
 20
-78.4551
 11
51.8486
 21
-75.5859
  0
LINE
  8
0
 10
199.036
 20
-65.6826
 11
212.534
 21
-62.8135
  0
LINE
  8
0
 10
212.534
 20
-62.8135
 11
215.404
 21
-76.3115
  0
LINE
  8
0
 10
215.404
 20
-76.3115
 11
201.905
 21
-79.1807
  0
LINE
  8
0
 10
201.905
 20
-79.1807
 11
199.036
 21
-65.6826
  0
LINE
  8
0
 10
94.698
 20
-87.6074
 11
94.3827
 21
-87.3906
  0
LINE
  8
0
 10
94.3827
 20
-87.3906
 11
94.3129
 21
-87.0143
  0
LINE
  8
0
 10
94.3129
 20
-87.0143
 11
94.8013
 21
-84.7164
  0
LINE
  8
0
 10
94.8013
 20
-84.7164
 11
93.1406
 21
-84.3634
  0
LINE
  8
0
 10
93.1406
 20
-84.3634
 11
92.8855
 21
-84.4107
  0
LINE
  8
0
 10
92.8855
 20
-84.4107
 11
80.1696
 21
-81.7078
  0
LINE
  8
0
 10
80.1696
 20
-81.7078
 11
79.9551
 21
-81.5604
  0
LINE
  8
0
 10
79.9551
 20
-81.5604
 11
78.2942
 21
-81.2073
  0
LINE
  8
0
 10
78.2942
 20
-81.2073
 11
77.8057
 21
-83.5056
  0
LINE
  8
0
 10
77.8057
 20
-83.5056
 11
77.5889
 21
-83.821
  0
LINE
  8
0
 10
77.5889
 20
-83.821
 11
77.2127
 21
-83.8907
  0
LINE
  8
0
 10
77.2127
 20
-83.8907
 11
71.3438
 21
-82.6433
  0
LINE
  8
0
 10
71.3438
 20
-82.6433
 11
71.0284
 21
-82.4265
  0
LINE
  8
0
 10
71.0284
 20
-82.4265
 11
70.9586
 21
-82.0502
  0
LINE
  8
0
 10
70.9586
 20
-82.0502
 11
71.4472
 21
-79.7519
  0
LINE
  8
0
 10
71.4472
 20
-79.7519
 11
70.4824
 21
-79.5469
  0
LINE
  8
0
 10
70.4824
 20
-79.5469
 11
73.3516
 21
-66.0488
  0
LINE
  8
0
 10
73.3516
 20
-66.0488
 11
74.3163
 21
-66.2539
  0
LINE
  8
0
 10
74.3163
 20
-66.2539
 11
74.94
 21
-63.3193
  0
LINE
  8
0
 10
74.94
 20
-63.3193
 11
75.1568
 21
-63.004
  0
LINE
  8
0
 10
75.1568
 20
-63.004
 11
75.5331
 21
-62.9342
  0
LINE
  8
0
 10
75.5331
 20
-62.9342
 11
104.756
 21
-69.1457
  0
LINE
  8
0
 10
104.756
 20
-69.1457
 11
105.072
 21
-69.3625
  0
LINE
  8
0
 10
105.072
 20
-69.3625
 11
105.141
 21
-69.7388
  0
LINE
  8
0
 10
105.141
 20
-69.7388
 11
104.518
 21
-72.6727
  0
LINE
  8
0
 10
104.518
 20
-72.6727
 11
105.483
 21
-72.8779
  0
LINE
  8
0
 10
105.483
 20
-72.8779
 11
102.614
 21
-86.377
  0
LINE
  8
0
 10
102.614
 20
-86.377
 11
101.648
 21
-86.1717
  0
LINE
  8
0
 10
101.648
 20
-86.1717
 11
101.16
 21
-88.4697
  0
LINE
  8
0
 10
101.16
 20
-88.4697
 11
100.943
 21
-88.785
  0
LINE
  8
0
 10
100.943
 20
-88.785
 11
100.567
 21
-88.8548
  0
LINE
  8
0
 10
100.567
 20
-88.8548
 11
94.698
 21
-87.6074
  0
LINE
  8
0
 10
159.32
 20
-90.9959
 11
159.104
 21
-90.6806
  0
LINE
  8
0
 10
159.104
 20
-90.6806
 11
158.615
 21
-88.3821
  0
LINE
  8
0
 10
158.615
 20
-88.3821
 11
155.321
 21
-89.082
  0
LINE
  8
0
 10
155.321
 20
-89.082
 11
152.452
 21
-75.584
  0
LINE
  8
0
 10
152.452
 20
-75.584
 11
155.746
 21
-74.8839
  0
LINE
  8
0
 10
155.746
 20
-74.8839
 11
155.122
 21
-71.9496
  0
LINE
  8
0
 10
155.122
 20
-71.9496
 11
155.192
 21
-71.5734
  0
LINE
  8
0
 10
155.192
 20
-71.5734
 11
155.507
 21
-71.3566
  0
LINE
  8
0
 10
155.507
 20
-71.3566
 11
184.731
 21
-65.145
  0
LINE
  8
0
 10
184.731
 20
-65.145
 11
185.107
 21
-65.2148
  0
LINE
  8
0
 10
185.107
 20
-65.2148
 11
185.324
 21
-65.5301
  0
LINE
  8
0
 10
185.324
 20
-65.5301
 11
185.947
 21
-68.464
  0
LINE
  8
0
 10
185.947
 20
-68.464
 11
191.571
 21
-67.2686
  0
LINE
  8
0
 10
191.571
 20
-67.2686
 11
194.441
 21
-80.7676
  0
LINE
  8
0
 10
194.441
 20
-80.7676
 11
188.816
 21
-81.9631
  0
LINE
  8
0
 10
188.816
 20
-81.9631
 11
189.305
 21
-84.2611
  0
LINE
  8
0
 10
189.305
 20
-84.2611
 11
189.235
 21
-84.6373
  0
LINE
  8
0
 10
189.235
 20
-84.6373
 11
188.92
 21
-84.8541
  0
LINE
  8
0
 10
188.92
 20
-84.8541
 11
183.051
 21
-86.1016
  0
LINE
  8
0
 10
183.051
 20
-86.1016
 11
182.675
 21
-86.0318
  0
LINE
  8
0
 10
182.675
 20
-86.0318
 11
182.458
 21
-85.7165
  0
LINE
  8
0
 10
182.458
 20
-85.7165
 11
181.969
 21
-83.4184
  0
LINE
  8
0
 10
181.969
 20
-83.4184
 11
180.942
 21
-83.6367
  0
LINE
  8
0
 10
180.942
 20
-83.6367
 11
178.094
 21
-70.2357
  0
LINE
  8
0
 10
178.094
 20
-70.2357
 11
177.617
 21
-70.3372
  0
LINE
  8
0
 10
177.617
 20
-70.3372
 11
177.777
 21
-70.6095
  0
LINE
  8
0
 10
177.777
 20
-70.6095
 11
180.48
 21
-83.3254
  0
LINE
  8
0
 10
180.48
 20
-83.3254
 11
180.41
 21
-83.7017
  0
LINE
  8
0
 10
180.41
 20
-83.7017
 11
180.095
 21
-83.9185
  0
LINE
  8
0
 10
180.095
 20
-83.9185
 11
167.379
 21
-86.6213
  0
LINE
  8
0
 10
167.379
 20
-86.6213
 11
167.124
 21
-86.5741
  0
LINE
  8
0
 10
167.124
 20
-86.5741
 11
165.462
 21
-86.9272
  0
LINE
  8
0
 10
165.462
 20
-86.9272
 11
165.951
 21
-89.2252
  0
LINE
  8
0
 10
165.951
 20
-89.2252
 11
165.881
 21
-89.6014
  0
LINE
  8
0
 10
165.881
 20
-89.6014
 11
165.566
 21
-89.8182
  0
LINE
  8
0
 10
165.566
 20
-89.8182
 11
159.697
 21
-91.0657
  0
LINE
  8
0
 10
159.697
 20
-91.0657
 11
159.32
 21
-90.9959
  0
LINE
  8
0
 10
107.749
 20
-87.4688
 11
110.619
 21
-73.9697
  0
LINE
  8
0
 10
110.619
 20
-73.9697
 11
124.117
 21
-76.8389
  0
LINE
  8
0
 10
124.117
 20
-76.8389
 11
121.248
 21
-90.3379
  0
LINE
  8
0
 10
121.248
 20
-90.3379
 11
107.749
 21
-87.4688
  0
LINE
  8
0
 10
-8.2446
 20
-82.3287
 11
-8.55124
 21
-82.1725
  0
LINE
  8
0
 10
-8.55124
 20
-82.1725
 11
-8.79459
 21
-81.9291
  0
LINE
  8
0
 10
-8.79459
 20
-81.9291
 11
-8.95084
 21
-81.6225
  0
LINE
  8
0
 10
-8.95084
 20
-81.6225
 11
-9.00467
 21
-81.2825
  0
LINE
  8
0
 10
-9.00467
 20
-81.2825
 11
-8.95084
 21
-80.9426
  0
LINE
  8
0
 10
-8.95084
 20
-80.9426
 11
-8.79459
 21
-80.636
  0
LINE
  8
0
 10
-8.79459
 20
-80.636
 11
-8.55124
 21
-80.3926
  0
LINE
  8
0
 10
-8.55124
 20
-80.3926
 11
-8.2446
 21
-80.2364
  0
LINE
  8
0
 10
-8.2446
 20
-80.2364
 11
-7.90468
 21
-80.1826
  0
LINE
  8
0
 10
-7.90468
 20
-80.1826
 11
-7.56476
 21
-80.2364
  0
LINE
  8
0
 10
-7.56476
 20
-80.2364
 11
-7.2581
 21
-80.3926
  0
LINE
  8
0
 10
-7.2581
 20
-80.3926
 11
-7.01476
 21
-80.636
  0
LINE
  8
0
 10
-7.01476
 20
-80.636
 11
-6.85851
 21
-80.9426
  0
LINE
  8
0
 10
-6.85851
 20
-80.9426
 11
-6.80467
 21
-81.2825
  0
LINE
  8
0
 10
-6.80467
 20
-81.2825
 11
-6.85851
 21
-81.6225
  0
LINE
  8
0
 10
-6.85851
 20
-81.6225
 11
-7.01476
 21
-81.9291
  0
LINE
  8
0
 10
-7.01476
 20
-81.9291
 11
-7.2581
 21
-82.1725
  0
LINE
  8
0
 10
-7.2581
 20
-82.1725
 11
-7.56476
 21
-82.3287
  0
LINE
  8
0
 10
-7.56476
 20
-82.3287
 11
-7.90468
 21
-82.3826
  0
LINE
  8
0
 10
-7.90468
 20
-82.3826
 11
-8.2446
 21
-82.3287
  0
LINE
  8
0
 10
266.085
 20
-82.3287
 11
265.778
 21
-82.1725
  0
LINE
  8
0
 10
265.778
 20
-82.1725
 11
265.535
 21
-81.9291
  0
LINE
  8
0
 10
265.535
 20
-81.9291
 11
265.379
 21
-81.6225
  0
LINE
  8
0
 10
265.379
 20
-81.6225
 11
265.325
 21
-81.2825
  0
LINE
  8
0
 10
265.325
 20
-81.2825
 11
265.379
 21
-80.9426
  0
LINE
  8
0
 10
265.379
 20
-80.9426
 11
265.535
 21
-80.636
  0
LINE
  8
0
 10
265.535
 20
-80.636
 11
265.778
 21
-80.3926
  0
LINE
  8
0
 10
265.778
 20
-80.3926
 11
266.085
 21
-80.2364
  0
LINE
  8
0
 10
266.085
 20
-80.2364
 11
266.425
 21
-80.1826
  0
LINE
  8
0
 10
266.425
 20
-80.1826
 11
266.765
 21
-80.2364
  0
LINE
  8
0
 10
266.765
 20
-80.2364
 11
267.072
 21
-80.3926
  0
LINE
  8
0
 10
267.072
 20
-80.3926
 11
267.315
 21
-80.636
  0
LINE
  8
0
 10
267.315
 20
-80.636
 11
267.471
 21
-80.9426
  0
LINE
  8
0
 10
267.471
 20
-80.9426
 11
267.525
 21
-81.2825
  0
LINE
  8
0
 10
267.525
 20
-81.2825
 11
267.471
 21
-81.6225
  0
LINE
  8
0
 10
267.471
 20
-81.6225
 11
267.315
 21
-81.9291
  0
LINE
  8
0
 10
267.315
 20
-81.9291
 11
267.072
 21
-82.1725
  0
LINE
  8
0
 10
267.072
 20
-82.1725
 11
266.765
 21
-82.3287
  0
LINE
  8
0
 10
266.765
 20
-82.3287
 11
266.425
 21
-82.3826
  0
LINE
  8
0
 10
266.425
 20
-82.3826
 11
266.085
 21
-82.3287
  0
LINE
  8
0
 10
43.5648
 20
-82.3287
 11
43.2581
 21
-82.1725
  0
LINE
  8
0
 10
43.2581
 20
-82.1725
 11
43.0148
 21
-81.9291
  0
LINE
  8
0
 10
43.0148
 20
-81.9291
 11
42.8585
 21
-81.6225
  0
LINE
  8
0
 10
42.8585
 20
-81.6225
 11
42.8047
 21
-81.2825
  0
LINE
  8
0
 10
42.8047
 20
-81.2825
 11
42.8585
 21
-80.9426
  0
LINE
  8
0
 10
42.8585
 20
-80.9426
 11
43.0148
 21
-80.636
  0
LINE
  8
0
 10
43.0148
 20
-80.636
 11
43.2581
 21
-80.3926
  0
LINE
  8
0
 10
43.2581
 20
-80.3926
 11
43.5648
 21
-80.2364
  0
LINE
  8
0
 10
43.5648
 20
-80.2364
 11
43.9047
 21
-80.1826
  0
LINE
  8
0
 10
43.9047
 20
-80.1826
 11
44.2446
 21
-80.2364
  0
LINE
  8
0
 10
44.2446
 20
-80.2364
 11
44.5512
 21
-80.3926
  0
LINE
  8
0
 10
44.5512
 20
-80.3926
 11
44.7946
 21
-80.636
  0
LINE
  8
0
 10
44.7946
 20
-80.636
 11
44.9508
 21
-80.9426
  0
LINE
  8
0
 10
44.9508
 20
-80.9426
 11
45.0047
 21
-81.2825
  0
LINE
  8
0
 10
45.0047
 20
-81.2825
 11
44.9508
 21
-81.6225
  0
LINE
  8
0
 10
44.9508
 20
-81.6225
 11
44.7946
 21
-81.9291
  0
LINE
  8
0
 10
44.7946
 20
-81.9291
 11
44.5512
 21
-82.1725
  0
LINE
  8
0
 10
44.5512
 20
-82.1725
 11
44.2446
 21
-82.3287
  0
LINE
  8
0
 10
44.2446
 20
-82.3287
 11
43.9047
 21
-82.3826
  0
LINE
  8
0
 10
43.9047
 20
-82.3826
 11
43.5648
 21
-82.3287
  0
LINE
  8
0
 10
228.085
 20
-82.3287
 11
227.778
 21
-82.1725
  0
LINE
  8
0
 10
227.778
 20
-82.1725
 11
227.535
 21
-81.9291
  0
LINE
  8
0
 10
227.535
 20
-81.9291
 11
227.379
 21
-81.6225
  0
LINE
  8
0
 10
227.379
 20
-81.6225
 11
227.325
 21
-81.2825
  0
LINE
  8
0
 10
227.325
 20
-81.2825
 11
227.379
 21
-80.9426
  0
LINE
  8
0
 10
227.379
 20
-80.9426
 11
227.535
 21
-80.636
  0
LINE
  8
0
 10
227.535
 20
-80.636
 11
227.778
 21
-80.3926
  0
LINE
  8
0
 10
227.778
 20
-80.3926
 11
228.085
 21
-80.2364
  0
LINE
  8
0
 10
228.085
 20
-80.2364
 11
228.425
 21
-80.1826
  0
LINE
  8
0
 10
228.425
 20
-80.1826
 11
228.765
 21
-80.2364
  0
LINE
  8
0
 10
228.765
 20
-80.2364
 11
229.072
 21
-80.3926
  0
LINE
  8
0
 10
229.072
 20
-80.3926
 11
229.315
 21
-80.636
  0
LINE
  8
0
 10
229.315
 20
-80.636
 11
229.471
 21
-80.9426
  0
LINE
  8
0
 10
229.471
 20
-80.9426
 11
229.525
 21
-81.2825
  0
LINE
  8
0
 10
229.525
 20
-81.2825
 11
229.471
 21
-81.6225
  0
LINE
  8
0
 10
229.471
 20
-81.6225
 11
229.315
 21
-81.9291
  0
LINE
  8
0
 10
229.315
 20
-81.9291
 11
229.072
 21
-82.1725
  0
LINE
  8
0
 10
229.072
 20
-82.1725
 11
228.765
 21
-82.3287
  0
LINE
  8
0
 10
228.765
 20
-82.3287
 11
228.425
 21
-82.3826
  0
LINE
  8
0
 10
228.425
 20
-82.3826
 11
228.085
 21
-82.3287
  0
ENDSEC
  0
SECTION
  2
OBJECTS
  0
DICTIONARY
  0
ENDSEC
  0
EOF
